<svg xmlns="http://www.w3.org/2000/svg" xmlns:xlink="http://www.w3.org/1999/xlink" version="1.1" x="0px" y="0px" viewBox="0 0 93.515 33.977" enable-background="new 0 0 93.515 33.977" xml:space="preserve"><path d="M70.257,9.512c0,0-3.685,1.631-4.396,6.076c-0.036-0.003-0.07-0.01-0.106-0.01h-4.083c-0.854,0-1.548,0.63-1.548,1.41  c0,0.778,0.693,1.409,1.548,1.409h4.083c0.025,0,0.049-0.006,0.074-0.007c0.627,4.574,4.428,6.074,4.428,6.074  S65.733,17.094,70.257,9.512z"></path><path d="M61.562,6.423c0,0-4.237,2.437-4.819,9.163c-0.031-0.001-0.06-0.008-0.091-0.008h-4.083c-0.855,0-1.548,0.63-1.548,1.41  c0,0.778,0.692,1.409,1.548,1.409h4.083c0.024,0,0.046-0.005,0.069-0.006c0.481,6.922,4.841,9.162,4.841,9.162  S56.672,17.138,61.562,6.423z"></path><path d="M52.501,4.175c0,0-4.8,3.029-5.347,11.422c-0.067-0.009-0.133-0.019-0.203-0.019h-4.083c-0.855,0-1.548,0.63-1.548,1.41  c0,0.778,0.693,1.409,1.548,1.409h4.083c0.065,0,0.127-0.01,0.19-0.017c0.434,8.632,5.359,11.42,5.359,11.42  S47.099,17.17,52.501,4.175z"></path><path d="M42.928,0.739c0,0-5.795,3.934-6.34,14.839h-3.976c-0.855,0-1.548,0.63-1.548,1.41c0,0.778,0.693,1.409,1.548,1.409h3.96  c0.403,11.225,6.355,14.839,6.355,14.839S36.534,17.219,42.928,0.739z"></path><path d="M32.363,0.935c0,0-5.824,3.884-6.374,14.653c-0.036-0.002-0.07-0.01-0.106-0.01H21.8c-0.855,0-1.549,0.63-1.549,1.41  c0,0.778,0.693,1.409,1.549,1.409h4.083c0.031,0,0.061-0.007,0.091-0.008c0.408,11.082,6.389,14.651,6.389,14.651  S25.935,17.216,32.363,0.935z"></path><path d="M93.366,0c-8.578,4.062-16.179,11.14-18.178,15.581c-0.011,0-0.021-0.003-0.031-0.003h-4.083  c-0.855,0-1.548,0.63-1.548,1.41c0,0.778,0.692,1.409,1.548,1.409h4.083c0.011,0,0.021-0.003,0.032-0.003  c1.999,4.443,9.601,11.521,18.177,15.582c0,0,1.541-7.275-5.27-16.989C94.907,7.276,93.366,0,93.366,0z"></path><path d="M19.14,16.987c0-7.562,2.245-15.894,2.245-15.894S0,7.367,0,16.988c0,9.623,21.385,15.896,21.385,15.896  s-2.245-8.331-2.245-15.895V16.987z M9.845,15.9c-1.38,0-2.5-1.118-2.5-2.499c0-1.38,1.12-2.499,2.5-2.499  c1.381,0,2.5,1.119,2.5,2.499C12.345,14.782,11.226,15.9,9.845,15.9z"></path></svg>