<svg xmlns="http://www.w3.org/2000/svg" xmlns:xlink="http://www.w3.org/1999/xlink" version="1.1" x="0px" y="0px" viewBox="0 0 100 100" enable-background="new 0 0 100 100" xml:space="preserve"><g><g><path d="M34.139,46.144c-0.969,0.969-2.553,0.969-3.521,0L5.726,21.252c-0.968-0.968-0.968-2.552,0-3.521L17.731,5.727    c0.968-0.969,2.552-0.969,3.521,0l24.892,24.891c0.968,0.968,0.968,2.553,0,3.521L34.139,46.144z"></path></g></g><g><g><path d="M82.269,94.274c-0.969,0.968-2.553,0.968-3.521,0L53.856,69.383c-0.969-0.969-0.969-2.553,0-3.521l12.005-12.005    c0.968-0.969,2.552-0.969,3.521,0.001l24.891,24.891c0.969,0.969,0.969,2.553,0,3.521L82.269,94.274z"></path></g></g><g><rect x="26.067" y="47.914" transform="matrix(0.7071 0.7071 -0.7071 0.7071 50.0002 -20.7106)" width="47.866" height="4.172"></rect></g><g><path d="M68.344,31.656c-3.73-3.729-9.777-3.729-13.507,0L31.656,54.837c-3.73,3.729-3.73,9.777,0,13.508   c3.729,3.729,9.778,3.729,13.507,0l23.181-23.181C72.074,41.434,72.074,35.386,68.344,31.656z"></path></g><g><path d="M26.997,73.003c-2.396-2.396-3.942-5.441-4.471-8.807c-0.151-0.959,0.504-1.858,1.463-2.009   c0.958-0.15,1.857,0.503,2.008,1.462c0.413,2.627,1.618,5.002,3.485,6.869s4.242,3.072,6.869,3.485   c0.96,0.151,1.613,1.05,1.463,2.008s-1.049,1.613-2.007,1.462C32.439,76.945,29.394,75.399,26.997,73.003z"></path></g><g><path d="M22.279,77.722c-3.475-3.476-5.687-7.874-6.395-12.725c-0.141-0.959,0.523-1.852,1.483-1.992s1.852,0.523,1.992,1.484   c0.6,4.096,2.468,7.812,5.404,10.748c2.935,2.935,6.651,4.804,10.748,5.403c0.96,0.141,1.624,1.034,1.484,1.993   c-0.141,0.959-1.033,1.623-1.993,1.483C30.152,83.406,25.752,81.194,22.279,77.722z"></path></g></svg>