<svg xmlns="http://www.w3.org/2000/svg" xmlns:xlink="http://www.w3.org/1999/xlink" version="1.1" x="0px" y="0px" viewBox="0 0 90 90" enable-background="new 0 0 90 90" xml:space="preserve"><g><path d="M44,69.9c1.2-3.6-0.6-6.7-3.1-8.6c-0.1-0.1-0.2-0.1-0.3-0.2c-0.2-0.1-0.3-0.2-0.4-0.3c-0.1,0-0.1-0.1-0.2-0.1l0,0   c-1.6-1.1-2.8-2.6-3.7-4.2c-0.2,1-0.4,2-0.9,2.9c-0.6,1.3-1.5,2.6-2.7,3.6c-2.2,2-4.9,2.9-7.4,2.4c-1.1-0.2-2.2-0.8-3.1-1.6   c2.2,3.4,5.2,6.4,8.8,8.8c1.7,1.1,3.6,2,5.5,2.6C38.2,75.5,42.2,75.4,44,69.9z"></path><path d="M28.7,48.7c3-0.3,5.6-1.7,7-3.9l0,0c0.3-0.6,0.6-1.2,0.9-1.8c1.1-1.7,2.5-3.2,4.2-4.4c-2,0-4.1-0.7-6-2   c-2.7-1.9-4.5-4.7-4.8-7.5c-0.4-4.1,1.1-7.1,2.9-9.2c-4.3,2.9-8,6.6-10.9,11c-1.6,2.5-2.8,5.1-3.6,7.9c-0.3,2.2,0.2,4.9,2.8,7.5   C23,48.1,25.8,49,28.7,48.7z"></path><path d="M25.6,64.5c2.2,0.4,4.6-0.4,6.5-2.2c2.3-2.1,3.6-5.2,3.3-8h0c-0.8-2.3-0.9-4.7-0.4-7.1c-1.6,1.4-3.8,2.3-6.1,2.5   c-3.3,0.3-6.3-0.6-8.3-2.6c-1.6-1.6-2.4-3.2-2.9-4.7c-0.8,4.9-0.4,9.8,1.1,14.4C19.3,58.1,21.9,63.8,25.6,64.5z"></path><path d="M55.4,63.2c-0.8-0.9-2.2-1.8-4.3-1.5c-2.3,1.1-4.9,1.4-7.4,0.8c1.7,2.2,2.3,5.1,1.3,7.7c-0.2,0.5-0.3,0.9-0.5,1.4   c-1.3,2.8-3.2,4-4.9,4.5c4.1,0.8,8.4,0.5,12.3-0.9c1.1-0.4,4.3-2.1,5.2-5.9C57.6,67.3,56.9,64.8,55.4,63.2z"></path><path d="M74.4,19.7c-8.5-5.5-18.6-7.3-28.5-5.2c-2.9,0.6-5.6,1.6-8.2,2.8c-0.5,0.2-7.2,3.9-6.5,11.8c0.2,2.5,1.9,5.1,4.3,6.7   c2.4,1.6,5.3,2.2,7.6,1.5l0,0c1.2-0.6,2.5-1.1,3.8-1.4c4.2-0.9,8.6-0.1,12.2,2.2c0.8,0.5,1.5,1.1,2.2,1.6   c5.8-0.7,10.1-5.4,10.9-9.3C73.1,26.9,74.4,20.1,74.4,19.7C74.5,19.7,74.4,19.7,74.4,19.7z"></path><path d="M58.6,39.1c-3.4-2.2-7.5-2.9-11.4-2.1c-4,0.9-7.4,3.2-9.6,6.6c-3.5,5.4-2.1,12.6,3.2,16.3c0.3,0.2,0.5,0.3,0.7,0.5   c4.4,2.6,10.1,1.3,12.9-3c2.2-3.5,1.2-8.1-2.2-10.4c-1.3-0.9-2.9-1.1-4.4-0.8c-1.5,0.3-2.9,1.2-3.7,2.6c-1.4,2.1-0.8,5,1.4,6.4   c0.2,0.2,0.3,0.5,0.2,0.7c-0.2,0.2-0.5,0.3-0.7,0.2c-2.6-1.7-3.4-5.2-1.7-7.9c2.1-3.2,6.4-4.2,9.6-2.1c2.7,1.8,4.1,4.8,3.9,7.8   c1.1-1.1,2.6-1.8,4.2-2c2.2-0.3,4.3,0.4,5.6,2c0.4,0.5,0.7,1,1,1.4C67.4,49.1,64.4,42.8,58.6,39.1z"></path><path d="M61,53c-2.2,0.3-4,1.6-4.9,3.5c0,0,0,0,0,0l0,0c-0.2,0.5-0.4,1-0.7,1.4c-0.7,1.1-1.5,1.9-2.5,2.7c1.2,0.2,2.4,0.8,3.3,1.8   c1.7,1.8,2.6,4.7,2,7.1c-0.2,0.7-0.4,1.3-0.6,1.8c-0.3,0.7-0.7,1.2-1.1,1.8c3.1-1.8,5.8-4.4,7.9-7.6c1.4-2.2,2.4-4.7,2.8-7.1   c-0.1-1.1-0.4-2.4-1.5-3.7C64.5,53.4,62.8,52.8,61,53z"></path></g></svg>