<?xml version="1.0" encoding="UTF-8" standalone="no"?>
<!-- Created with Inkscape (http://www.inkscape.org/) -->
<svg
   xmlns:svg="http://www.w3.org/2000/svg"
   xmlns="http://www.w3.org/2000/svg"
   version="1.0"
   width="6pt"
   height="14pt"
   id="svg7867">
  <defs
     id="defs7869" />
  <g
     id="layer1">
    <g
       transform="matrix(1.250579,0,0,1.250579,-616.6102,-38.76671)"
       id="g7863">
      <path
         d="M 495.5,31.8 C 495.5,31.8 493.9,33.8 494,35.5 C 494.1,37.2 495,37.8 495.4,38.2 C 495.8,38.7 496.8,39.8 496.8,40.4 C 496.8,41.5 496.8,43.1 495,44.4"
         style="font-size:7.00019979px;letter-spacing:0;word-spacing:0;fill:none;stroke:#000000;stroke-width:0.70859998;stroke-miterlimit:3.86360002;font-family:Arial"
         id="path14430" />
      <path
         d="M 497,31.8 C 497,31.8 495.4,33.8 495.5,35.5 C 495.6,37.2 496.5,37.8 496.9,38.2 C 497.3,38.7 498.2,39.8 498.3,40.4 C 498.4,41.5 498.4,43 496.8,44.5"
         style="font-size:7.00019979px;letter-spacing:0;word-spacing:0;fill:none;stroke:#000000;stroke-width:0.70859998;stroke-miterlimit:3.86360002;font-family:Arial"
         id="path14432" />
    </g>
  </g>
</svg>
