<?xml version="1.0" encoding="UTF-8" standalone="no"?>
<!-- Created with Inkscape (http://www.inkscape.org/) -->
<svg
   xmlns:svg="http://www.w3.org/2000/svg"
   xmlns="http://www.w3.org/2000/svg"
   version="1.0"
   width="12pt"
   height="15pt"
   id="svg7836">
  <defs
     id="defs7838" />
  <g
     id="layer1">
    <g
       transform="matrix(1.250579,0,0,1.250579,-612.7114,-79.69375)"
       id="g7830">
      <path
         d="M 493,64.8 C 493,64.8 491.4,66.8 491.5,68.5 C 491.7,70.2 492.6,70.8 493,71.3 C 493.4,71.8 494.3,72.8 494.3,73.4 C 494.4,74.6 494.3,76.2 492.6,77.5"
         style="font-size:7.00019979px;letter-spacing:0;word-spacing:0;fill:none;stroke:#000000;stroke-width:0.70859998;stroke-miterlimit:3.86360002;font-family:Arial"
         id="path14442" />
      <path
         d="M 494.5,64.8 C 494.5,64.8 492.9,66.8 493,68.5 C 493.2,70.2 494.1,70.8 494.5,71.3 C 494.9,71.8 495.8,72.8 495.8,73.4 C 495.9,74.6 495.9,76 494.4,77.6"
         style="font-size:7.00019979px;letter-spacing:0;word-spacing:0;fill:none;stroke:#000000;stroke-width:0.70859998;stroke-miterlimit:3.86360002;font-family:Arial"
         id="path14444" />
      <path
         d="M 497.9,64.8 C 497.9,64.8 496.3,66.8 496.4,68.5 C 496.6,70.2 497.4,70.8 497.8,71.3 C 498.3,71.8 499.2,72.8 499.2,73.4 C 499.2,74.6 499.2,76.2 497.4,77.5"
         style="font-size:7.00019979px;letter-spacing:0;word-spacing:0;fill:none;stroke:#000000;stroke-width:0.70859998;stroke-miterlimit:3.86360002;font-family:Arial"
         id="path14446" />
      <path
         d="M 499.4,64.8 C 499.4,64.8 497.8,66.8 497.9,68.5 C 498,70.2 498.9,70.8 499.3,71.3 C 499.7,71.8 500.6,72.8 500.7,73.4 C 500.8,74.6 500.8,76 499.2,77.6"
         style="font-size:7.00019979px;letter-spacing:0;word-spacing:0;fill:none;stroke:#000000;stroke-width:0.70859998;stroke-miterlimit:3.86360002;font-family:Arial"
         id="path14448" />
    </g>
  </g>
</svg>
