<?xml version="1.0" encoding="UTF-8" standalone="no"?>
<!-- Created with Inkscape (http://www.inkscape.org/) -->
<svg
   xmlns:svg="http://www.w3.org/2000/svg"
   xmlns="http://www.w3.org/2000/svg"
   version="1.0"
   width="16pt"
   height="13pt"
   id="svg7801">
  <defs
     id="defs7803" />
  <g
     id="layer1">
    <g
       transform="matrix(1.250579,0,0,1.250579,-610.3434,-121.8683)"
       id="g7793">
      <path
         d="M 490.7,97.9 C 490.7,97.9 489.1,99.9 489.2,101.5 C 489.4,103.2 490.2,103.9 490.7,104.3 C 491.1,104.8 492,105.9 492,106.5 C 492,107.6 492,109.2 490.2,110.5"
         style="font-size:7.00019979px;letter-spacing:0;word-spacing:0;fill:none;stroke:#000000;stroke-width:0.70859998;stroke-miterlimit:3.86360002;font-family:Arial"
         id="path14474" />
      <path
         d="M 492.2,97.9 C 492.2,97.9 490.6,99.9 490.7,101.5 C 490.9,103.2 491.7,103.9 492.1,104.3 C 492.6,104.8 493.5,105.9 493.5,106.5 C 493.6,107.6 493.6,109 492,110.6"
         style="font-size:7.00019979px;letter-spacing:0;word-spacing:0;fill:none;stroke:#000000;stroke-width:0.70859998;stroke-miterlimit:3.86360002;font-family:Arial"
         id="path14476" />
      <path
         d="M 495.6,97.9 C 495.6,97.9 494,99.9 494.1,101.5 C 494.2,103.2 495.1,103.9 495.5,104.3 C 495.9,104.8 496.9,105.9 496.9,106.5 C 496.9,107.6 496.9,109.2 495.1,110.5"
         style="font-size:7.00019979px;letter-spacing:0;word-spacing:0;fill:none;stroke:#000000;stroke-width:0.70859998;stroke-miterlimit:3.86360002;font-family:Arial"
         id="path14478" />
      <path
         d="M 497.1,97.9 C 497.1,97.9 495.5,99.9 495.6,101.5 C 495.7,103.2 496.6,103.9 497,104.3 C 497.4,104.8 498.3,105.9 498.4,106.5 C 498.5,107.6 498.5,109 496.9,110.6"
         style="font-size:7.00019979px;letter-spacing:0;word-spacing:0;fill:none;stroke:#000000;stroke-width:0.70859998;stroke-miterlimit:3.86360002;font-family:Arial"
         id="path14480" />
      <path
         d="M 500.2,97.9 C 500.2,97.9 498.5,99.9 498.7,101.5 C 498.8,103.2 499.7,103.9 500.1,104.3 C 500.5,104.8 501.4,105.9 501.4,106.5 C 501.5,107.6 501.4,109.2 499.7,110.5"
         style="font-size:7.00019979px;letter-spacing:0;word-spacing:0;fill:none;stroke:#000000;stroke-width:0.70859998;stroke-miterlimit:3.86360002;font-family:Arial"
         id="path14482" />
      <path
         d="M 501.7,97.9 C 501.7,97.9 500,99.9 500.2,101.5 C 500.3,103.2 501.2,103.9 501.6,104.3 C 502,104.8 502.9,105.9 502.9,106.5 C 503,107.6 503,109 501.5,110.6"
         style="font-size:7.00019979px;letter-spacing:0;word-spacing:0;fill:none;stroke:#000000;stroke-width:0.70859998;stroke-miterlimit:3.86360002;font-family:Arial"
         id="path14484" />
    </g>
  </g>
</svg>
