<?xml version="1.0" encoding="UTF-8" standalone="no"?>
<!-- Created with Inkscape (http://www.inkscape.org/) -->
<svg
   xmlns:svg="http://www.w3.org/2000/svg"
   xmlns="http://www.w3.org/2000/svg"
   version="1.0"
   width="22pt"
   height="12pt"
   id="svg7976">
  <defs
     id="defs7978" />
  <g
     id="layer1">
    <g
       transform="matrix(1.250579,0,0,1.250579,-325.4056,-446.5608)"
       id="g7970">
      <path
         d="M 271.4,364.3 C 271.4,364.3 270.3,366.7 272.7,368 C 275.2,369.2 277.5,368.7 278.6,368.2 C 280.2,367.4 281.8,367.6 281.8,367.6"
         style="font-size:7.00019979px;letter-spacing:0;word-spacing:0;fill:none;stroke:#000000;stroke-width:0.70859998;stroke-miterlimit:3.86360002;font-family:Arial"
         id="path13180" />
      <path
         d="M 260.7,367.6 C 260.7,367.6 263.9,367.7 266.5,366.9 C 269.1,366 271.2,364.7 271.2,364.7 L 273,362.3"
         style="font-size:7.00019979px;letter-spacing:0;word-spacing:0;fill:none;stroke:#000000;stroke-width:0.70859998;stroke-miterlimit:3.86360002;font-family:Arial"
         id="path13182" />
      <path
         d="M 260.7,365.5 C 260.7,365.5 265.3,365.7 267.8,364.2 C 270.4,362.6 271.7,361.3 272.4,360.5 C 273.1,359.8 274.1,359.6 274.9,359.9 C 275.6,360.2 276,362 275,363 C 274,364 273.1,365.2 273.7,365.8 C 274.3,366.3 276.8,366.3 278,365.8 C 279.1,365.4 281,364.7 281.8,364.7"
         style="font-size:7.00019979px;letter-spacing:0;word-spacing:0;fill:none;stroke:#000000;stroke-width:0.70859998;stroke-miterlimit:3.86360002;font-family:Arial"
         id="path13184" />
      <path
         d="M 260.9,363.8 C 260.9,363.8 264.3,363.8 266,363 C 267.8,362.1 270.4,360 271.4,359.1 C 272.4,358.2 274.6,356.4 276.6,358.4 C 278.3,360 277.7,362.1 277.1,362.7 C 276.5,363.4 275.9,364.1 276.9,364 C 278,363.9 278.8,363.1 279.4,362.7 C 280.4,362.1 281.7,362.4 281.7,362.4"
         style="font-size:7.00019979px;letter-spacing:0;word-spacing:0;fill:none;stroke:#000000;stroke-width:0.70859998;stroke-miterlimit:3.86360002;font-family:Arial"
         id="path13186" />
    </g>
  </g>
</svg>
