<?xml version="1.0" encoding="UTF-8" standalone="no"?>
<!-- Created with Inkscape (http://www.inkscape.org/) -->
<svg
   xmlns:svg="http://www.w3.org/2000/svg"
   xmlns="http://www.w3.org/2000/svg"
   version="1.0"
   width="22pt"
   height="7pt"
   id="svg7703">
  <defs
     id="defs7705" />
  <g
     id="layer1">
    <g
       transform="matrix(1.250579,0,0,1.250579,-324.8711,-657.2091)"
       id="g7698">
      <path
         d="M 267.7,527.5 C 265.8,527.2 264.8,526.6 263,526.6 C 261.6,526.6 260.6,527.9 260.6,529.3 C 260.6,529.7 261.8,530.6 261.8,531 C 263.9,531.3 263.7,531.1 265.8,531.1 C 267.3,531.1 269.2,530.8 269.2,529.2 C 269.2,528.5 268.2,528 267.7,527.5 z "
         style="fill:#ffffff;fill-rule:evenodd;stroke:#000000;stroke-width:0.70859998;stroke-miterlimit:3.86360002"
         id="path11996" />
      <path
         d="M 274.2,529.1 C 273.3,529 272.8,528.7 271.9,528.7 C 271.2,528.7 270.7,529.4 270.7,530.1 C 270.7,530.3 271.3,530.7 271.3,530.9 C 272.3,531.1 272.3,531 273.3,531 C 274,531 275,530.8 275,530 C 275,529.6 274.5,529.4 274.2,529.1 z "
         style="fill:#ffffff;fill-rule:evenodd;stroke:#000000;stroke-width:0.5;stroke-miterlimit:3.86360002"
         id="path11998" />
      <path
         d="M 280.5,528.9 C 279.4,528.7 278.8,528.4 277.7,528.4 C 276.8,528.4 276.2,529.1 276.2,530 C 276.2,530.2 277,530.7 277,531 C 278.2,531.2 278.1,531.1 279.4,531.1 C 280.3,531.1 281.4,530.8 281.4,529.9 C 281.4,529.5 280.8,529.2 280.5,528.9 z "
         style="fill:#ffffff;fill-rule:evenodd;stroke:#000000;stroke-width:0.5;stroke-miterlimit:3.86360002"
         id="path12000" />
    </g>
  </g>
</svg>
