<?xml version="1.0" encoding="UTF-8" standalone="no"?>
<!-- Created with Inkscape (http://www.inkscape.org/) -->
<svg
   xmlns:svg="http://www.w3.org/2000/svg"
   xmlns="http://www.w3.org/2000/svg"
   version="1.0"
   width="22pt"
   height="7pt"
   id="svg7677">
  <defs
     id="defs7679" />
  <g
     id="layer1">
    <g
       transform="matrix(1.250579,0,0,1.250579,-323.8827,-612.7504)"
       id="g7672">
      <path
         d="M 266.8,492 C 264.9,491.7 263.9,491.1 262,491.1 C 260.6,491.1 259.6,492.4 259.6,493.8 C 259.6,494.2 260.9,495.1 260.9,495.5 C 262.9,495.8 262.8,495.6 264.8,495.6 C 266.3,495.6 268.3,495.3 268.3,493.7 C 268.3,493 267.3,492.5 266.8,492 z "
         style="fill:#000000;fill-rule:evenodd;stroke:#000000;stroke-width:0.70859998;stroke-miterlimit:3.86360002"
         id="path11990" />
      <path
         d="M 273.3,493.7 C 272.3,493.5 271.8,493.2 270.9,493.2 C 270.2,493.2 269.7,493.9 269.7,494.6 C 269.7,494.8 270.3,495.2 270.3,495.4 C 271.4,495.6 271.3,495.5 272.3,495.5 C 273.1,495.5 274,495.3 274,494.5 C 274,494.2 273.5,493.9 273.3,493.7 z "
         style="fill:#000000;fill-rule:evenodd;stroke:#000000;stroke-width:0.35429999;stroke-miterlimit:3.86360002"
         id="path11992" />
      <path
         d="M 279.6,493.4 C 278.4,493.2 277.8,492.9 276.7,492.9 C 275.9,492.9 275.3,493.7 275.3,494.5 C 275.3,494.8 276,495.3 276,495.5 C 277.3,495.7 277.2,495.6 278.4,495.6 C 279.3,495.6 280.5,495.4 280.5,494.5 C 280.5,494 279.9,493.7 279.6,493.4 z "
         style="fill:#000000;fill-rule:evenodd;stroke:#000000;stroke-width:0.4251;stroke-miterlimit:3.86360002"
         id="path11994" />
    </g>
  </g>
</svg>
