<?xml version="1.0" encoding="UTF-8" standalone="no"?>
<!-- Created with Inkscape (http://www.inkscape.org/) -->
<svg
   xmlns:svg="http://www.w3.org/2000/svg"
   xmlns="http://www.w3.org/2000/svg"
   version="1.0"
   width="18pt"
   height="9pt"
   id="svg7653">
  <defs
     id="defs7655" />
  <g
     id="layer1">
    <g
       transform="matrix(1.250579,0,0,1.250579,-327.8576,-571.0277)"
       id="g7649">
      <path
         d="M 263,461.1 C 263,459 266.7,457.2 271.2,457.2 C 275.8,457.2 279.5,459 279.5,461.1 C 279.5,463.2 275.8,465 271.2,465 C 266.7,465 263,463.2 263,461.1 z "
         style="font-size:7.00019979px;letter-spacing:0;word-spacing:0;fill:none;stroke:#000000;stroke-width:0.70859998;stroke-miterlimit:3.86360002;font-family:Arial"
         id="path13232" />
      <path
         d="M 266.4,461.2 C 266.4,459 268.5,457.3 271.2,457.3 C 275.8,457.3 279.5,459 279.5,461.2 C 279.5,463.3 275.8,465 271.2,465 C 268.9,465 266.4,463.3 266.4,461.2 z "
         style="font-size:7.00019979px;letter-spacing:0;word-spacing:0;fill:none;stroke:#000000;stroke-width:0.42519999;stroke-miterlimit:3.86360002;font-family:Arial"
         id="path13234" />
    </g>
  </g>
</svg>
