<?xml version="1.0" encoding="UTF-8" standalone="no"?>
<!-- Created with Inkscape (http://www.inkscape.org/) -->
<svg
   xmlns:svg="http://www.w3.org/2000/svg"
   xmlns="http://www.w3.org/2000/svg"
   version="1.0"
   width="19pt"
   height="17pt"
   id="svg7784">
  <defs
     id="defs7786" />
  <g
     id="layer1">
    <path
       d="M 7.3327606,14.153979 C 6.9575869,9.2767215 4.2063131,8.2762583 3.080792,7.7760267 C 1.9552709,7.1507372 1.830213,3.649116 1.830213,3.649116 C 1.830213,3.649116 3.080792,1.147958 4.5814868,1.2730159 C 5.9571237,1.2730159 7.2077027,3.5240581 7.2077027,3.5240581 C 7.2077027,3.5240581 8.3332238,0.89784216 9.8339186,1.0229001 C 11.334613,1.147958 11.584729,3.2739423 11.959903,4.1493476 C 12.335076,5.0247529 11.334613,5.9001582 11.834845,6.5254477 C 12.335076,7.0256793 12.835308,10.652358 12.835308,10.652358 C 12.835308,10.652358 14.461061,7.2757951 16.712103,4.3994634 C 17.962682,2.7737107 18.963145,2.398537 20.46384,2.8987686 C 22.464766,3.3990002 22.589824,5.7751003 22.339708,7.9010846 C 21.839477,11.027532 17.712566,8.651432 15.586582,12.403169 C 13.460598,16.154906 13.710713,19.281353 13.710713,19.406411 C 13.710713,19.781585 11.834845,20.031701 10.709324,19.781585 C 10.709324,19.781585 10.459208,17.030311 10.459208,16.780195 C 10.459208,16.655137 7.7079343,19.031237 7.3327606,14.153979 z "
       style="font-size:7.00019979px;letter-spacing:0;word-spacing:0;fill:none;stroke:#000000;stroke-width:0.88616025;stroke-miterlimit:3.86360002;font-family:Arial"
       id="path14502" />
  </g>
</svg>
