<?xml version="1.0" encoding="UTF-8" standalone="no"?>
<!-- Created with Inkscape (http://www.inkscape.org/) -->
<svg
   xmlns:svg="http://www.w3.org/2000/svg"
   xmlns="http://www.w3.org/2000/svg"
   version="1.0"
   width="17pt"
   height="9pt"
   id="svg7988">
  <defs
     id="defs7990" />
  <g
     id="layer1">
    <g
       transform="matrix(1.250579,0,0,1.250579,-609.6537,-290.011)"
       id="g7982">
      <path
         d="M 488.7,239.2 C 489.8,238.5 489.8,236.7 491.2,236.7 C 491.6,236.7 491.8,236.7 492.2,236.7 C 492.2,236.9 492.4,237 492.4,237.2 C 492.4,238.7 490.1,238.9 488.7,239.2 z "
         style="fill:none;stroke:#000000;stroke-width:0.70859998;stroke-miterlimit:3.86360002"
         id="path12284" />
      <path
         d="M 493.4,239.8 C 494.6,239 494.6,237.3 496,237.3 C 496.3,237.3 496.6,237.3 496.9,237.3 C 497,237.5 497.2,237.6 497.2,237.8 C 497.2,239.2 494.8,239.4 493.4,239.8 z "
         style="fill:none;stroke:#000000;stroke-width:0.70859998;stroke-miterlimit:3.86360002"
         id="path12540" />
      <path
         d="M 494.9,235.4 C 496.1,234.7 496.1,232.9 497.5,232.9 C 497.8,232.9 498.1,232.9 498.4,232.9 C 498.5,233.1 498.7,233.2 498.7,233.4 C 498.7,234.9 496.3,235.1 494.9,235.4 z "
         style="fill:none;stroke:#000000;stroke-width:0.70859998;stroke-miterlimit:3.86360002"
         id="path12796" />
      <path
         d="M 499.2,236.4 C 500.3,235.7 500.3,233.9 501.7,233.9 C 502.1,233.9 502.3,233.9 502.7,233.9 C 502.7,234.1 502.9,234.2 502.9,234.4 C 502.9,235.9 500.6,236.1 499.2,236.4 z "
         style="fill:none;stroke:#000000;stroke-width:0.70859998;stroke-miterlimit:3.86360002"
         id="path13052" />
    </g>
  </g>
</svg>
