<?xml version="1.0" encoding="UTF-8" standalone="no"?>
<!-- Created with Inkscape (http://www.inkscape.org/) -->
<svg
   xmlns:svg="http://www.w3.org/2000/svg"
   xmlns="http://www.w3.org/2000/svg"
   version="1.0"
   width="22pt"
   height="15pt"
   id="svg8135">
  <defs
     id="defs8137" />
  <g
     id="layer1">
    <g
       transform="matrix(1.250579,0,0,1.250579,-607.803,-245.4874)"
       id="g7941">
      <path
         d="M 487.3,209.4 C 488.5,208.4 488.4,206.9 489.7,206.1 C 491.4,205 493.2,205.9 494.8,204.7"
         style="fill:none;stroke:#000000;stroke-width:0.70859998;stroke-miterlimit:3.86360002"
         id="path12022" />
      <path
         d="M 498.7,202.9 C 497.5,203.8 497.6,205.3 496.3,206.1 C 494.6,207.2 492.8,206.3 491.2,207.5"
         style="fill:none;stroke:#000000;stroke-width:0.70859998;stroke-miterlimit:3.86360002"
         id="path12024" />
      <path
         d="M 495.5,204 C 496.7,203.1 496.6,201.6 497.9,200.8 C 499.6,199.7 501.4,200.6 503,199.4"
         style="fill:none;stroke:#000000;stroke-width:0.70859998;stroke-miterlimit:3.86360002"
         id="path12026" />
      <path
         d="M 506.9,197.5 C 505.7,198.5 505.8,199.9 504.5,200.8 C 502.8,201.9 501,200.9 499.4,202.2"
         style="fill:none;stroke:#000000;stroke-width:0.70859998;stroke-miterlimit:3.86360002"
         id="path12028" />
    </g>
  </g>
</svg>
