<?xml version="1.0" encoding="UTF-8" standalone="no"?>
<!-- Created with Inkscape (http://www.inkscape.org/) -->
<svg
   xmlns:svg="http://www.w3.org/2000/svg"
   xmlns="http://www.w3.org/2000/svg"
   version="1.0"
   width="21.280001pt"
   height="8pt"
   id="svg7725">
  <defs
     id="defs7727" />
  <g
     id="layer1">
    <g
       transform="matrix(1.250579,0,0,1.250579,-326.5789,-121.7583)"
       id="g7709">
      <path
         d="M 261.4,97.4 C 261.4,97.4 265.1,101 272.5,100.5 C 280.1,100.1 282.7,97.4 282.7,97.4"
         style="font-size:7.00019979px;letter-spacing:0;word-spacing:0;fill:none;stroke:#000000;stroke-width:0.51569998;stroke-miterlimit:3.86360002;font-family:Arial"
         id="path13500" />
      <path
         d="M 265.1,97.4 C 265.1,97.4 268.6,98.9 271.7,98.9 C 275.6,98.9 278.7,97.3 278.7,97.3"
         style="font-size:7.00019979px;letter-spacing:0;word-spacing:0;fill:none;stroke:#000000;stroke-width:0.30939999;stroke-miterlimit:3.86360002;font-family:Arial"
         id="path13502" />
      <path
         d="M 261.4,105 C 270.3,105.1 273.7,100.6 273.7,100.6"
         style="font-size:7.00019979px;letter-spacing:0;word-spacing:0;fill:none;stroke:#000000;stroke-width:0.51569998;stroke-miterlimit:3.86360002;font-family:Arial"
         id="path13504" />
      <path
         d="M 261.4,102.1 C 266.5,102.1 268.3,100.2 268.3,100.2"
         style="font-size:7.00019979px;letter-spacing:0;word-spacing:0;fill:none;stroke:#000000;stroke-width:0.30939999;stroke-miterlimit:3.86360002;font-family:Arial"
         id="path13506" />
      <path
         d="M 270.9,102.6 C 270.9,102.6 273.8,105 282.6,105.1"
         style="font-size:7.00019979px;letter-spacing:0;word-spacing:0;fill:none;stroke:#000000;stroke-width:0.51569998;stroke-miterlimit:3.86360002;font-family:Arial"
         id="path13508" />
      <path
         d="M 273.7,100.6 C 273.7,100.6 277.1,102.5 282.9,102.1"
         style="font-size:7.00019979px;letter-spacing:0;word-spacing:0;fill:none;stroke:#000000;stroke-width:0.30939999;stroke-miterlimit:3.86360002;font-family:Arial"
         id="path13510" />
    </g>
  </g>
</svg>
