<?xml version="1.0" encoding="UTF-8" standalone="no"?>
<!-- Created with Inkscape (http://www.inkscape.org/) -->
<svg
   xmlns:svg="http://www.w3.org/2000/svg"
   xmlns="http://www.w3.org/2000/svg"
   version="1.0"
   width="20pt"
   height="11pt"
   id="svg8005">
  <defs
     id="defs8007" />
  <g
     id="layer1">
    <g
       transform="matrix(1.250579,0,0,1.250579,-326.6902,-488.2282)"
       id="g7998">
      <path
         d="M 267.7,391.2 C 267.7,391.2 271.4,390.5 269.8,393.9 C 267.3,399 261.8,400.3 261.8,400.3"
         style="font-size:7.00019979px;letter-spacing:0;word-spacing:0;fill:none;stroke:#000000;stroke-width:0.70859998;stroke-miterlimit:3.86360002;font-family:Arial"
         id="path13200" />
      <path
         d="M 278,391.4 C 278,391.4 275.1,391.4 275.1,394.3 C 275,397.3 275.7,398.1 277.3,399.2 C 278.9,400.2 280.7,400.2 280.7,400.2"
         style="font-size:7.00019979px;letter-spacing:0;word-spacing:0;fill:none;stroke:#000000;stroke-width:0.70859998;stroke-miterlimit:3.86360002;font-family:Arial"
         id="path13202" />
      <path
         d="M 272.7,390.8 C 272.7,390.8 272,391.4 272,393 C 272,394.6 272.1,396.6 270.9,398 C 269.7,399.3 268.7,399.9 268.7,399.9"
         style="font-size:7.00019979px;letter-spacing:0;word-spacing:0;fill:none;stroke:#000000;stroke-width:0.42519999;stroke-miterlimit:3.86360002;font-family:Arial"
         id="path13204" />
      <path
         d="M 273.8,392.2 C 273.8,392.2 273,394 273.4,395.5"
         style="font-size:7.00019979px;letter-spacing:0;word-spacing:0;fill:none;stroke:#000000;stroke-width:0.42519999;stroke-miterlimit:3.86360002;font-family:Arial"
         id="path13206" />
      <path
         d="M 273.3,397.7 C 273.3,397.7 273.7,399.6 275.7,400.8"
         style="font-size:7.00019979px;letter-spacing:0;word-spacing:0;fill:none;stroke:#000000;stroke-width:0.42519999;stroke-miterlimit:3.86360002;font-family:Arial"
         id="path13208" />
    </g>
  </g>
</svg>
