<?xml version="1.0" encoding="utf-8"?>
<!-- Generator: Adobe Illustrator 12.0.0, SVG Export Plug-In . SVG Version: 6.00 Build 51448)  -->
<!DOCTYPE svg PUBLIC "-//W3C//DTD SVG 1.1//EN" "http://www.w3.org/Graphics/SVG/1.1/DTD/svg11.dtd" [
	<!ENTITY ns_svg "http://www.w3.org/2000/svg">
	<!ENTITY ns_xlink "http://www.w3.org/1999/xlink">
]>
<svg  version="1.1" id="Layer_1" xmlns="&ns_svg;" xmlns:xlink="&ns_xlink;" width="110.954" height="54.558"
	 viewBox="0 0 110.954 54.558" overflow="visible" enable-background="new 0 0 110.954 54.558" xml:space="preserve">
<rect x="11.655" y="16.558" fill="none" width="72" height="38"/>
<g>
	<rect x="11.655" y="27.071" fill="none" width="16.141" height="27.487"/>
	<polygon fill-rule="evenodd" clip-rule="evenodd" fill="#808284" points="5.556,29.079 6.837,27.797 8.119,29.079 	"/>
	<polygon fill-rule="evenodd" clip-rule="evenodd" fill="#808284" points="11.111,29.079 12.393,27.797 13.675,29.079 	"/>
	<polygon fill-rule="evenodd" clip-rule="evenodd" fill="#808284" points="16.667,29.079 17.949,27.797 19.23,29.079 	"/>
	<polygon fill-rule="evenodd" clip-rule="evenodd" fill="#808284" points="22.224,29.079 23.505,27.797 24.786,29.079 	"/>
	<polygon fill-rule="evenodd" clip-rule="evenodd" fill="#808284" points="2.777,31.857 4.06,30.575 5.341,31.857 	"/>
	<polygon fill-rule="evenodd" clip-rule="evenodd" fill="#808284" points="8.333,31.857 9.615,30.575 10.896,31.857 	"/>
	<polygon fill-rule="evenodd" clip-rule="evenodd" fill="#808284" points="5.556,34.636 6.837,33.353 8.119,34.636 	"/>
	<polygon fill-rule="evenodd" clip-rule="evenodd" fill="#808284" points="13.89,31.857 15.171,30.575 16.452,31.857 	"/>
	<polygon fill-rule="evenodd" clip-rule="evenodd" fill="#808284" points="11.111,34.636 12.393,33.353 13.675,34.636 	"/>
	<polygon fill-rule="evenodd" clip-rule="evenodd" fill="#808284" points="19.445,31.857 20.727,30.575 22.009,31.857 	"/>
	<polygon fill-rule="evenodd" clip-rule="evenodd" fill="#808284" points="16.667,34.636 17.949,33.353 19.23,34.636 	"/>
	<polygon fill-rule="evenodd" clip-rule="evenodd" fill="#808284" points="25.001,31.857 26.282,30.575 27.564,31.857 	"/>
	<polygon fill-rule="evenodd" clip-rule="evenodd" fill="#808284" points="22.224,34.636 23.505,33.353 24.786,34.636 	"/>
	<polygon fill-rule="evenodd" clip-rule="evenodd" fill="#808284" points="2.777,37.413 4.06,36.131 5.341,37.413 	"/>
	<polygon fill-rule="evenodd" clip-rule="evenodd" fill="#808284" points="8.333,37.413 9.615,36.131 10.896,37.413 	"/>
	<polygon fill-rule="evenodd" clip-rule="evenodd" fill="#808284" points="5.556,40.191 6.837,38.909 8.119,40.191 	"/>
	<polygon fill-rule="evenodd" clip-rule="evenodd" fill="#808284" points="13.89,37.413 15.171,36.131 16.452,37.413 	"/>
	<polygon fill-rule="evenodd" clip-rule="evenodd" fill="#808284" points="11.111,40.191 12.393,38.909 13.675,40.191 	"/>
	<polygon fill-rule="evenodd" clip-rule="evenodd" fill="#808284" points="19.445,37.413 20.727,36.131 22.009,37.413 	"/>
	<polygon fill-rule="evenodd" clip-rule="evenodd" fill="#808284" points="16.667,40.191 17.949,38.909 19.23,40.191 	"/>
	<polygon fill-rule="evenodd" clip-rule="evenodd" fill="#808284" points="25.001,37.413 26.282,36.131 27.564,37.413 	"/>
	<polygon fill-rule="evenodd" clip-rule="evenodd" fill="#808284" points="22.224,40.191 23.505,38.909 24.786,40.191 	"/>
	<polygon fill-rule="evenodd" clip-rule="evenodd" fill="#808284" points="2.777,42.97 4.06,41.687 5.341,42.97 	"/>
	<polygon fill-rule="evenodd" clip-rule="evenodd" fill="#808284" points="8.333,42.97 9.615,41.687 10.896,42.97 	"/>
	<polygon fill-rule="evenodd" clip-rule="evenodd" fill="#808284" points="5.556,45.747 6.837,44.464 8.119,45.747 	"/>
	<polygon fill-rule="evenodd" clip-rule="evenodd" fill="#808284" points="13.89,42.97 15.171,41.687 16.452,42.97 	"/>
	<polygon fill-rule="evenodd" clip-rule="evenodd" fill="#808284" points="11.111,45.747 12.393,44.464 13.675,45.747 	"/>
	<polygon fill-rule="evenodd" clip-rule="evenodd" fill="#808284" points="19.445,42.97 20.727,41.687 22.009,42.97 	"/>
	<polygon fill-rule="evenodd" clip-rule="evenodd" fill="#808284" points="16.667,45.747 17.949,44.464 19.23,45.747 	"/>
	<polygon fill-rule="evenodd" clip-rule="evenodd" fill="#808284" points="25.001,42.97 26.282,41.687 27.564,42.97 	"/>
	<polygon fill-rule="evenodd" clip-rule="evenodd" fill="#808284" points="22.224,45.747 23.505,44.464 24.786,45.747 	"/>
	<polygon fill-rule="evenodd" clip-rule="evenodd" fill="#808284" points="2.777,48.525 4.06,47.242 5.341,48.525 	"/>
	<polygon fill-rule="evenodd" clip-rule="evenodd" fill="#808284" points="8.333,48.525 9.615,47.242 10.896,48.525 	"/>
	<polygon fill-rule="evenodd" clip-rule="evenodd" fill="#808284" points="5.556,51.304 6.837,50.021 8.119,51.304 	"/>
	<polygon fill-rule="evenodd" clip-rule="evenodd" fill="#808284" points="13.89,48.525 15.171,47.242 16.452,48.525 	"/>
	<polygon fill-rule="evenodd" clip-rule="evenodd" fill="#808284" points="11.111,51.304 12.393,50.021 13.675,51.304 	"/>
	<polygon fill-rule="evenodd" clip-rule="evenodd" fill="#808284" points="19.445,48.525 20.727,47.242 22.009,48.525 	"/>
	<polygon fill-rule="evenodd" clip-rule="evenodd" fill="#808284" points="16.667,51.304 17.949,50.021 19.23,51.304 	"/>
	<polygon fill-rule="evenodd" clip-rule="evenodd" fill="#808284" points="25.001,48.525 26.282,47.242 27.564,48.525 	"/>
	<polygon fill-rule="evenodd" clip-rule="evenodd" fill="#808284" points="22.224,51.304 23.505,50.021 24.786,51.304 	"/>
	<polygon fill-rule="evenodd" clip-rule="evenodd" fill="#808284" points="2.777,54.081 4.06,52.798 5.341,54.081 	"/>
	<polygon fill-rule="evenodd" clip-rule="evenodd" fill="#808284" points="8.333,54.081 9.615,52.798 10.896,54.081 	"/>
	<polygon fill-rule="evenodd" clip-rule="evenodd" fill="#808284" points="13.89,54.081 15.171,52.798 16.452,54.081 	"/>
	<polygon fill-rule="evenodd" clip-rule="evenodd" fill="#808284" points="19.445,54.081 20.727,52.798 22.009,54.081 	"/>
	<polygon fill-rule="evenodd" clip-rule="evenodd" fill="#808284" points="25.001,54.081 26.282,52.798 27.564,54.081 	"/>
	<polygon fill-rule="evenodd" clip-rule="evenodd" fill="#808284" points="0,29.079 1.281,27.797 2.563,29.079 	"/>
	<polygon fill-rule="evenodd" clip-rule="evenodd" fill="#808284" points="0,34.636 1.281,33.353 2.563,34.636 	"/>
	<polygon fill-rule="evenodd" clip-rule="evenodd" fill="#808284" points="0,40.191 1.281,38.909 2.563,40.191 	"/>
	<polygon fill-rule="evenodd" clip-rule="evenodd" fill="#808284" points="0,45.747 1.281,44.464 2.563,45.747 	"/>
	<polygon fill-rule="evenodd" clip-rule="evenodd" fill="#808284" points="0,51.304 1.281,50.021 2.563,51.304 	"/>
</g>
<g>
	<rect x="27.796" y="27.071" fill="none" width="27.797" height="27.487"/>
	<polygon fill-rule="evenodd" clip-rule="evenodd" fill="#808284" points="33.353,29.079 34.634,27.797 35.915,29.079 	"/>
	<polygon fill-rule="evenodd" clip-rule="evenodd" fill="#808284" points="38.908,29.079 40.189,27.797 41.472,29.079 	"/>
	<polygon fill-rule="evenodd" clip-rule="evenodd" fill="#808284" points="44.464,29.079 45.745,27.797 47.027,29.079 	"/>
	<polygon fill-rule="evenodd" clip-rule="evenodd" fill="#808284" points="50.02,29.079 51.302,27.797 52.583,29.079 	"/>
	<polygon fill-rule="evenodd" clip-rule="evenodd" fill="#808284" points="30.574,31.857 31.855,30.575 33.138,31.857 	"/>
	<polygon fill-rule="evenodd" clip-rule="evenodd" fill="#808284" points="36.13,31.857 37.412,30.575 38.693,31.857 	"/>
	<polygon fill-rule="evenodd" clip-rule="evenodd" fill="#808284" points="33.353,34.636 34.634,33.353 35.915,34.636 	"/>
	<polygon fill-rule="evenodd" clip-rule="evenodd" fill="#808284" points="41.686,31.857 42.968,30.575 44.249,31.857 	"/>
	<polygon fill-rule="evenodd" clip-rule="evenodd" fill="#808284" points="38.908,34.636 40.189,33.353 41.472,34.636 	"/>
	<polygon fill-rule="evenodd" clip-rule="evenodd" fill="#808284" points="47.241,31.857 48.523,30.575 49.806,31.857 	"/>
	<polygon fill-rule="evenodd" clip-rule="evenodd" fill="#808284" points="44.464,34.636 45.745,33.353 47.027,34.636 	"/>
	<polygon fill-rule="evenodd" clip-rule="evenodd" fill="#808284" points="52.798,31.857 54.079,30.575 55.361,31.857 	"/>
	<polygon fill-rule="evenodd" clip-rule="evenodd" fill="#808284" points="50.02,34.636 51.302,33.353 52.583,34.636 	"/>
	<polygon fill-rule="evenodd" clip-rule="evenodd" fill="#808284" points="30.574,37.413 31.855,36.131 33.138,37.413 	"/>
	<polygon fill-rule="evenodd" clip-rule="evenodd" fill="#808284" points="36.13,37.413 37.412,36.131 38.693,37.413 	"/>
	<polygon fill-rule="evenodd" clip-rule="evenodd" fill="#808284" points="33.353,40.191 34.634,38.909 35.915,40.191 	"/>
	<polygon fill-rule="evenodd" clip-rule="evenodd" fill="#808284" points="41.686,37.413 42.968,36.131 44.249,37.413 	"/>
	<polygon fill-rule="evenodd" clip-rule="evenodd" fill="#808284" points="38.908,40.191 40.189,38.909 41.472,40.191 	"/>
	<polygon fill-rule="evenodd" clip-rule="evenodd" fill="#808284" points="47.241,37.413 48.523,36.131 49.806,37.413 	"/>
	<polygon fill-rule="evenodd" clip-rule="evenodd" fill="#808284" points="44.464,40.191 45.745,38.909 47.027,40.191 	"/>
	<polygon fill-rule="evenodd" clip-rule="evenodd" fill="#808284" points="52.798,37.413 54.079,36.131 55.361,37.413 	"/>
	<polygon fill-rule="evenodd" clip-rule="evenodd" fill="#808284" points="50.02,40.191 51.302,38.909 52.583,40.191 	"/>
	<polygon fill-rule="evenodd" clip-rule="evenodd" fill="#808284" points="30.574,42.97 31.855,41.687 33.138,42.97 	"/>
	<polygon fill-rule="evenodd" clip-rule="evenodd" fill="#808284" points="36.13,42.97 37.412,41.687 38.693,42.97 	"/>
	<polygon fill-rule="evenodd" clip-rule="evenodd" fill="#808284" points="33.353,45.747 34.634,44.464 35.915,45.747 	"/>
	<polygon fill-rule="evenodd" clip-rule="evenodd" fill="#808284" points="41.686,42.97 42.968,41.687 44.249,42.97 	"/>
	<polygon fill-rule="evenodd" clip-rule="evenodd" fill="#808284" points="38.908,45.747 40.189,44.464 41.472,45.747 	"/>
	<polygon fill-rule="evenodd" clip-rule="evenodd" fill="#808284" points="47.241,42.97 48.523,41.687 49.806,42.97 	"/>
	<polygon fill-rule="evenodd" clip-rule="evenodd" fill="#808284" points="44.464,45.747 45.745,44.464 47.027,45.747 	"/>
	<polygon fill-rule="evenodd" clip-rule="evenodd" fill="#808284" points="52.798,42.97 54.079,41.687 55.361,42.97 	"/>
	<polygon fill-rule="evenodd" clip-rule="evenodd" fill="#808284" points="50.02,45.747 51.302,44.464 52.583,45.747 	"/>
	<polygon fill-rule="evenodd" clip-rule="evenodd" fill="#808284" points="30.574,48.525 31.855,47.242 33.138,48.525 	"/>
	<polygon fill-rule="evenodd" clip-rule="evenodd" fill="#808284" points="36.13,48.525 37.412,47.242 38.693,48.525 	"/>
	<polygon fill-rule="evenodd" clip-rule="evenodd" fill="#808284" points="33.353,51.304 34.634,50.021 35.915,51.304 	"/>
	<polygon fill-rule="evenodd" clip-rule="evenodd" fill="#808284" points="41.686,48.525 42.968,47.242 44.249,48.525 	"/>
	<polygon fill-rule="evenodd" clip-rule="evenodd" fill="#808284" points="38.908,51.304 40.189,50.021 41.472,51.304 	"/>
	<polygon fill-rule="evenodd" clip-rule="evenodd" fill="#808284" points="47.241,48.525 48.523,47.242 49.806,48.525 	"/>
	<polygon fill-rule="evenodd" clip-rule="evenodd" fill="#808284" points="44.464,51.304 45.745,50.021 47.027,51.304 	"/>
	<polygon fill-rule="evenodd" clip-rule="evenodd" fill="#808284" points="52.798,48.525 54.079,47.242 55.361,48.525 	"/>
	<polygon fill-rule="evenodd" clip-rule="evenodd" fill="#808284" points="50.02,51.304 51.302,50.021 52.583,51.304 	"/>
	<polygon fill-rule="evenodd" clip-rule="evenodd" fill="#808284" points="30.574,54.081 31.855,52.798 33.138,54.081 	"/>
	<polygon fill-rule="evenodd" clip-rule="evenodd" fill="#808284" points="36.13,54.081 37.412,52.798 38.693,54.081 	"/>
	<polygon fill-rule="evenodd" clip-rule="evenodd" fill="#808284" points="41.686,54.081 42.968,52.798 44.249,54.081 	"/>
	<polygon fill-rule="evenodd" clip-rule="evenodd" fill="#808284" points="47.241,54.081 48.523,52.798 49.806,54.081 	"/>
	<polygon fill-rule="evenodd" clip-rule="evenodd" fill="#808284" points="52.798,54.081 54.079,52.798 55.361,54.081 	"/>
	<polygon fill-rule="evenodd" clip-rule="evenodd" fill="#808284" points="27.796,29.079 29.078,27.797 30.359,29.079 	"/>
	<polygon fill-rule="evenodd" clip-rule="evenodd" fill="#808284" points="27.796,34.636 29.078,33.353 30.359,34.636 	"/>
	<polygon fill-rule="evenodd" clip-rule="evenodd" fill="#808284" points="27.796,40.191 29.078,38.909 30.359,40.191 	"/>
	<polygon fill-rule="evenodd" clip-rule="evenodd" fill="#808284" points="27.796,45.747 29.078,44.464 30.359,45.747 	"/>
	<polygon fill-rule="evenodd" clip-rule="evenodd" fill="#808284" points="27.796,51.304 29.078,50.021 30.359,51.304 	"/>
</g>
<g>
	<rect x="55.593" y="27.071" fill="none" width="27.797" height="27.487"/>
	<polygon fill-rule="evenodd" clip-rule="evenodd" fill="#808284" points="61.149,29.079 62.431,27.797 63.712,29.079 	"/>
	<polygon fill-rule="evenodd" clip-rule="evenodd" fill="#808284" points="66.705,29.079 67.986,27.797 69.268,29.079 	"/>
	<polygon fill-rule="evenodd" clip-rule="evenodd" fill="#808284" points="72.261,29.079 73.542,27.797 74.824,29.079 	"/>
	<polygon fill-rule="evenodd" clip-rule="evenodd" fill="#808284" points="77.816,29.079 79.098,27.797 80.38,29.079 	"/>
	<polygon fill-rule="evenodd" clip-rule="evenodd" fill="#808284" points="58.371,31.857 59.652,30.575 60.935,31.857 	"/>
	<polygon fill-rule="evenodd" clip-rule="evenodd" fill="#808284" points="63.927,31.857 65.208,30.575 66.49,31.857 	"/>
	<polygon fill-rule="evenodd" clip-rule="evenodd" fill="#808284" points="61.149,34.636 62.431,33.353 63.712,34.636 	"/>
	<polygon fill-rule="evenodd" clip-rule="evenodd" fill="#808284" points="69.482,31.857 70.765,30.575 72.046,31.857 	"/>
	<polygon fill-rule="evenodd" clip-rule="evenodd" fill="#808284" points="66.705,34.636 67.986,33.353 69.268,34.636 	"/>
	<polygon fill-rule="evenodd" clip-rule="evenodd" fill="#808284" points="75.038,31.857 76.32,30.575 77.602,31.857 	"/>
	<polygon fill-rule="evenodd" clip-rule="evenodd" fill="#808284" points="72.261,34.636 73.542,33.353 74.824,34.636 	"/>
	<polygon fill-rule="evenodd" clip-rule="evenodd" fill="#808284" points="80.595,31.857 81.876,30.575 83.157,31.857 	"/>
	<polygon fill-rule="evenodd" clip-rule="evenodd" fill="#808284" points="77.816,34.636 79.098,33.353 80.38,34.636 	"/>
	<polygon fill-rule="evenodd" clip-rule="evenodd" fill="#808284" points="58.371,37.413 59.652,36.131 60.935,37.413 	"/>
	<polygon fill-rule="evenodd" clip-rule="evenodd" fill="#808284" points="63.927,37.413 65.208,36.131 66.49,37.413 	"/>
	<polygon fill-rule="evenodd" clip-rule="evenodd" fill="#808284" points="61.149,40.191 62.431,38.909 63.712,40.191 	"/>
	<polygon fill-rule="evenodd" clip-rule="evenodd" fill="#808284" points="69.482,37.413 70.765,36.131 72.046,37.413 	"/>
	<polygon fill-rule="evenodd" clip-rule="evenodd" fill="#808284" points="66.705,40.191 67.986,38.909 69.268,40.191 	"/>
	<polygon fill-rule="evenodd" clip-rule="evenodd" fill="#808284" points="75.038,37.413 76.32,36.131 77.602,37.413 	"/>
	<polygon fill-rule="evenodd" clip-rule="evenodd" fill="#808284" points="72.261,40.191 73.542,38.909 74.824,40.191 	"/>
	<polygon fill-rule="evenodd" clip-rule="evenodd" fill="#808284" points="80.595,37.413 81.876,36.131 83.157,37.413 	"/>
	<polygon fill-rule="evenodd" clip-rule="evenodd" fill="#808284" points="77.816,40.191 79.098,38.909 80.38,40.191 	"/>
	<polygon fill-rule="evenodd" clip-rule="evenodd" fill="#808284" points="58.371,42.97 59.652,41.687 60.935,42.97 	"/>
	<polygon fill-rule="evenodd" clip-rule="evenodd" fill="#808284" points="63.927,42.97 65.208,41.687 66.49,42.97 	"/>
	<polygon fill-rule="evenodd" clip-rule="evenodd" fill="#808284" points="61.149,45.747 62.431,44.464 63.712,45.747 	"/>
	<polygon fill-rule="evenodd" clip-rule="evenodd" fill="#808284" points="69.482,42.97 70.765,41.687 72.046,42.97 	"/>
	<polygon fill-rule="evenodd" clip-rule="evenodd" fill="#808284" points="66.705,45.747 67.986,44.464 69.268,45.747 	"/>
	<polygon fill-rule="evenodd" clip-rule="evenodd" fill="#808284" points="75.038,42.97 76.32,41.687 77.602,42.97 	"/>
	<polygon fill-rule="evenodd" clip-rule="evenodd" fill="#808284" points="72.261,45.747 73.542,44.464 74.824,45.747 	"/>
	<polygon fill-rule="evenodd" clip-rule="evenodd" fill="#808284" points="80.595,42.97 81.876,41.687 83.157,42.97 	"/>
	<polygon fill-rule="evenodd" clip-rule="evenodd" fill="#808284" points="77.816,45.747 79.098,44.464 80.38,45.747 	"/>
	<polygon fill-rule="evenodd" clip-rule="evenodd" fill="#808284" points="58.371,48.525 59.652,47.242 60.935,48.525 	"/>
	<polygon fill-rule="evenodd" clip-rule="evenodd" fill="#808284" points="63.927,48.525 65.208,47.242 66.49,48.525 	"/>
	<polygon fill-rule="evenodd" clip-rule="evenodd" fill="#808284" points="61.149,51.304 62.431,50.021 63.712,51.304 	"/>
	<polygon fill-rule="evenodd" clip-rule="evenodd" fill="#808284" points="69.482,48.525 70.765,47.242 72.046,48.525 	"/>
	<polygon fill-rule="evenodd" clip-rule="evenodd" fill="#808284" points="66.705,51.304 67.986,50.021 69.268,51.304 	"/>
	<polygon fill-rule="evenodd" clip-rule="evenodd" fill="#808284" points="75.038,48.525 76.32,47.242 77.602,48.525 	"/>
	<polygon fill-rule="evenodd" clip-rule="evenodd" fill="#808284" points="72.261,51.304 73.542,50.021 74.824,51.304 	"/>
	<polygon fill-rule="evenodd" clip-rule="evenodd" fill="#808284" points="80.595,48.525 81.876,47.242 83.157,48.525 	"/>
	<polygon fill-rule="evenodd" clip-rule="evenodd" fill="#808284" points="77.816,51.304 79.098,50.021 80.38,51.304 	"/>
	<polygon fill-rule="evenodd" clip-rule="evenodd" fill="#808284" points="58.371,54.081 59.652,52.798 60.935,54.081 	"/>
	<polygon fill-rule="evenodd" clip-rule="evenodd" fill="#808284" points="63.927,54.081 65.208,52.798 66.49,54.081 	"/>
	<polygon fill-rule="evenodd" clip-rule="evenodd" fill="#808284" points="69.482,54.081 70.765,52.798 72.046,54.081 	"/>
	<polygon fill-rule="evenodd" clip-rule="evenodd" fill="#808284" points="75.038,54.081 76.32,52.798 77.602,54.081 	"/>
	<polygon fill-rule="evenodd" clip-rule="evenodd" fill="#808284" points="80.595,54.081 81.876,52.798 83.157,54.081 	"/>
	<polygon fill-rule="evenodd" clip-rule="evenodd" fill="#808284" points="55.593,29.079 56.875,27.797 58.156,29.079 	"/>
	<polygon fill-rule="evenodd" clip-rule="evenodd" fill="#808284" points="55.593,34.636 56.875,33.353 58.156,34.636 	"/>
	<polygon fill-rule="evenodd" clip-rule="evenodd" fill="#808284" points="55.593,40.191 56.875,38.909 58.156,40.191 	"/>
	<polygon fill-rule="evenodd" clip-rule="evenodd" fill="#808284" points="55.593,45.747 56.875,44.464 58.156,45.747 	"/>
	<polygon fill-rule="evenodd" clip-rule="evenodd" fill="#808284" points="55.593,51.304 56.875,50.021 58.156,51.304 	"/>
</g>
<g>
	<rect x="83.39" y="27.071" fill="none" width="0.266" height="27.487"/>
	<polygon fill-rule="evenodd" clip-rule="evenodd" fill="#808284" points="88.945,29.079 90.228,27.797 91.509,29.079 	"/>
	<polygon fill-rule="evenodd" clip-rule="evenodd" fill="#808284" points="94.501,29.079 95.783,27.797 97.064,29.079 	"/>
	<polygon fill-rule="evenodd" clip-rule="evenodd" fill="#808284" points="100.058,29.079 101.339,27.797 102.62,29.079 	"/>
	<polygon fill-rule="evenodd" clip-rule="evenodd" fill="#808284" points="105.613,29.079 106.895,27.797 108.177,29.079 	"/>
	<polygon fill-rule="evenodd" clip-rule="evenodd" fill="#808284" points="86.167,31.857 87.449,30.575 88.73,31.857 	"/>
	<polygon fill-rule="evenodd" clip-rule="evenodd" fill="#808284" points="91.724,31.857 93.005,30.575 94.287,31.857 	"/>
	<polygon fill-rule="evenodd" clip-rule="evenodd" fill="#808284" points="88.945,34.636 90.228,33.353 91.509,34.636 	"/>
	<polygon fill-rule="evenodd" clip-rule="evenodd" fill="#808284" points="97.279,31.857 98.561,30.575 99.843,31.857 	"/>
	<polygon fill-rule="evenodd" clip-rule="evenodd" fill="#808284" points="94.501,34.636 95.783,33.353 97.064,34.636 	"/>
	<polygon fill-rule="evenodd" clip-rule="evenodd" fill="#808284" points="102.835,31.857 104.117,30.575 105.398,31.857 	"/>
	<polygon fill-rule="evenodd" clip-rule="evenodd" fill="#808284" points="100.058,34.636 101.339,33.353 102.62,34.636 	"/>
	<polygon fill-rule="evenodd" clip-rule="evenodd" fill="#808284" points="108.391,31.857 109.673,30.575 110.954,31.857 	"/>
	<polygon fill-rule="evenodd" clip-rule="evenodd" fill="#808284" points="105.613,34.636 106.895,33.353 108.177,34.636 	"/>
	<polygon fill-rule="evenodd" clip-rule="evenodd" fill="#808284" points="86.167,37.413 87.449,36.131 88.73,37.413 	"/>
	<polygon fill-rule="evenodd" clip-rule="evenodd" fill="#808284" points="91.724,37.413 93.005,36.131 94.287,37.413 	"/>
	<polygon fill-rule="evenodd" clip-rule="evenodd" fill="#808284" points="88.945,40.191 90.228,38.909 91.509,40.191 	"/>
	<polygon fill-rule="evenodd" clip-rule="evenodd" fill="#808284" points="97.279,37.413 98.561,36.131 99.843,37.413 	"/>
	<polygon fill-rule="evenodd" clip-rule="evenodd" fill="#808284" points="94.501,40.191 95.783,38.909 97.064,40.191 	"/>
	<polygon fill-rule="evenodd" clip-rule="evenodd" fill="#808284" points="102.835,37.413 104.117,36.131 105.398,37.413 	"/>
	<polygon fill-rule="evenodd" clip-rule="evenodd" fill="#808284" points="100.058,40.191 101.339,38.909 102.62,40.191 	"/>
	<polygon fill-rule="evenodd" clip-rule="evenodd" fill="#808284" points="108.391,37.413 109.673,36.131 110.954,37.413 	"/>
	<polygon fill-rule="evenodd" clip-rule="evenodd" fill="#808284" points="105.613,40.191 106.895,38.909 108.177,40.191 	"/>
	<polygon fill-rule="evenodd" clip-rule="evenodd" fill="#808284" points="86.167,42.97 87.449,41.687 88.73,42.97 	"/>
	<polygon fill-rule="evenodd" clip-rule="evenodd" fill="#808284" points="91.724,42.97 93.005,41.687 94.287,42.97 	"/>
	<polygon fill-rule="evenodd" clip-rule="evenodd" fill="#808284" points="88.945,45.747 90.228,44.464 91.509,45.747 	"/>
	<polygon fill-rule="evenodd" clip-rule="evenodd" fill="#808284" points="97.279,42.97 98.561,41.687 99.843,42.97 	"/>
	<polygon fill-rule="evenodd" clip-rule="evenodd" fill="#808284" points="94.501,45.747 95.783,44.464 97.064,45.747 	"/>
	<polygon fill-rule="evenodd" clip-rule="evenodd" fill="#808284" points="102.835,42.97 104.117,41.687 105.398,42.97 	"/>
	<polygon fill-rule="evenodd" clip-rule="evenodd" fill="#808284" points="100.058,45.747 101.339,44.464 102.62,45.747 	"/>
	<polygon fill-rule="evenodd" clip-rule="evenodd" fill="#808284" points="108.391,42.97 109.673,41.687 110.954,42.97 	"/>
	<polygon fill-rule="evenodd" clip-rule="evenodd" fill="#808284" points="105.613,45.747 106.895,44.464 108.177,45.747 	"/>
	<polygon fill-rule="evenodd" clip-rule="evenodd" fill="#808284" points="86.167,48.525 87.449,47.242 88.73,48.525 	"/>
	<polygon fill-rule="evenodd" clip-rule="evenodd" fill="#808284" points="91.724,48.525 93.005,47.242 94.287,48.525 	"/>
	<polygon fill-rule="evenodd" clip-rule="evenodd" fill="#808284" points="88.945,51.304 90.228,50.021 91.509,51.304 	"/>
	<polygon fill-rule="evenodd" clip-rule="evenodd" fill="#808284" points="97.279,48.525 98.561,47.242 99.843,48.525 	"/>
	<polygon fill-rule="evenodd" clip-rule="evenodd" fill="#808284" points="94.501,51.304 95.783,50.021 97.064,51.304 	"/>
	<polygon fill-rule="evenodd" clip-rule="evenodd" fill="#808284" points="102.835,48.525 104.117,47.242 105.398,48.525 	"/>
	<polygon fill-rule="evenodd" clip-rule="evenodd" fill="#808284" points="100.058,51.304 101.339,50.021 102.62,51.304 	"/>
	<polygon fill-rule="evenodd" clip-rule="evenodd" fill="#808284" points="108.391,48.525 109.673,47.242 110.954,48.525 	"/>
	<polygon fill-rule="evenodd" clip-rule="evenodd" fill="#808284" points="105.613,51.304 106.895,50.021 108.177,51.304 	"/>
	<polygon fill-rule="evenodd" clip-rule="evenodd" fill="#808284" points="86.167,54.081 87.449,52.798 88.73,54.081 	"/>
	<polygon fill-rule="evenodd" clip-rule="evenodd" fill="#808284" points="91.724,54.081 93.005,52.798 94.287,54.081 	"/>
	<polygon fill-rule="evenodd" clip-rule="evenodd" fill="#808284" points="97.279,54.081 98.561,52.798 99.843,54.081 	"/>
	<polygon fill-rule="evenodd" clip-rule="evenodd" fill="#808284" points="102.835,54.081 104.117,52.798 105.398,54.081 	"/>
	<polygon fill-rule="evenodd" clip-rule="evenodd" fill="#808284" points="108.391,54.081 109.673,52.798 110.954,54.081 	"/>
	<polygon fill-rule="evenodd" clip-rule="evenodd" fill="#808284" points="83.39,29.079 84.671,27.797 85.953,29.079 	"/>
	<polygon fill-rule="evenodd" clip-rule="evenodd" fill="#808284" points="83.39,34.636 84.671,33.353 85.953,34.636 	"/>
	<polygon fill-rule="evenodd" clip-rule="evenodd" fill="#808284" points="83.39,40.191 84.671,38.909 85.953,40.191 	"/>
	<polygon fill-rule="evenodd" clip-rule="evenodd" fill="#808284" points="83.39,45.747 84.671,44.464 85.953,45.747 	"/>
	<polygon fill-rule="evenodd" clip-rule="evenodd" fill="#808284" points="83.39,51.304 84.671,50.021 85.953,51.304 	"/>
</g>
<g>
	<rect x="11.655" y="16.558" fill="none" width="16.141" height="10.513"/>
	<polygon fill-rule="evenodd" clip-rule="evenodd" fill="#808284" points="5.556,1.283 6.837,0 8.119,1.283 	"/>
	<polygon fill-rule="evenodd" clip-rule="evenodd" fill="#808284" points="11.111,1.283 12.393,0 13.675,1.283 	"/>
	<polygon fill-rule="evenodd" clip-rule="evenodd" fill="#808284" points="16.667,1.283 17.949,0 19.23,1.283 	"/>
	<polygon fill-rule="evenodd" clip-rule="evenodd" fill="#808284" points="22.224,1.283 23.505,0 24.786,1.283 	"/>
	<polygon fill-rule="evenodd" clip-rule="evenodd" fill="#808284" points="2.777,4.061 4.06,2.778 5.341,4.061 	"/>
	<polygon fill-rule="evenodd" clip-rule="evenodd" fill="#808284" points="8.333,4.061 9.615,2.778 10.896,4.061 	"/>
	<polygon fill-rule="evenodd" clip-rule="evenodd" fill="#808284" points="5.556,6.839 6.837,5.556 8.119,6.839 	"/>
	<polygon fill-rule="evenodd" clip-rule="evenodd" fill="#808284" points="13.89,4.061 15.171,2.778 16.452,4.061 	"/>
	<polygon fill-rule="evenodd" clip-rule="evenodd" fill="#808284" points="11.111,6.839 12.393,5.556 13.675,6.839 	"/>
	<polygon fill-rule="evenodd" clip-rule="evenodd" fill="#808284" points="19.445,4.061 20.727,2.778 22.009,4.061 	"/>
	<polygon fill-rule="evenodd" clip-rule="evenodd" fill="#808284" points="16.667,6.839 17.949,5.556 19.23,6.839 	"/>
	<polygon fill-rule="evenodd" clip-rule="evenodd" fill="#808284" points="25.001,4.061 26.282,2.778 27.564,4.061 	"/>
	<polygon fill-rule="evenodd" clip-rule="evenodd" fill="#808284" points="22.224,6.839 23.505,5.556 24.786,6.839 	"/>
	<polygon fill-rule="evenodd" clip-rule="evenodd" fill="#808284" points="2.777,9.617 4.06,8.334 5.341,9.617 	"/>
	<polygon fill-rule="evenodd" clip-rule="evenodd" fill="#808284" points="8.333,9.617 9.615,8.334 10.896,9.617 	"/>
	<polygon fill-rule="evenodd" clip-rule="evenodd" fill="#808284" points="5.556,12.395 6.837,11.112 8.119,12.395 	"/>
	<polygon fill-rule="evenodd" clip-rule="evenodd" fill="#808284" points="13.89,9.617 15.171,8.334 16.452,9.617 	"/>
	<polygon fill-rule="evenodd" clip-rule="evenodd" fill="#808284" points="11.111,12.395 12.393,11.112 13.675,12.395 	"/>
	<polygon fill-rule="evenodd" clip-rule="evenodd" fill="#808284" points="19.445,9.617 20.727,8.334 22.009,9.617 	"/>
	<polygon fill-rule="evenodd" clip-rule="evenodd" fill="#808284" points="16.667,12.395 17.949,11.112 19.23,12.395 	"/>
	<polygon fill-rule="evenodd" clip-rule="evenodd" fill="#808284" points="25.001,9.617 26.282,8.334 27.564,9.617 	"/>
	<polygon fill-rule="evenodd" clip-rule="evenodd" fill="#808284" points="22.224,12.395 23.505,11.112 24.786,12.395 	"/>
	<polygon fill-rule="evenodd" clip-rule="evenodd" fill="#808284" points="2.777,15.173 4.06,13.89 5.341,15.173 	"/>
	<polygon fill-rule="evenodd" clip-rule="evenodd" fill="#808284" points="8.333,15.173 9.615,13.89 10.896,15.173 	"/>
	<polygon fill-rule="evenodd" clip-rule="evenodd" fill="#808284" points="5.556,17.951 6.837,16.668 8.119,17.951 	"/>
	<polygon fill-rule="evenodd" clip-rule="evenodd" fill="#808284" points="13.89,15.173 15.171,13.89 16.452,15.173 	"/>
	<polygon fill-rule="evenodd" clip-rule="evenodd" fill="#808284" points="11.111,17.951 12.393,16.668 13.675,17.951 	"/>
	<polygon fill-rule="evenodd" clip-rule="evenodd" fill="#808284" points="19.445,15.173 20.727,13.89 22.009,15.173 	"/>
	<polygon fill-rule="evenodd" clip-rule="evenodd" fill="#808284" points="16.667,17.951 17.949,16.668 19.23,17.951 	"/>
	<polygon fill-rule="evenodd" clip-rule="evenodd" fill="#808284" points="25.001,15.173 26.282,13.89 27.564,15.173 	"/>
	<polygon fill-rule="evenodd" clip-rule="evenodd" fill="#808284" points="22.224,17.951 23.505,16.668 24.786,17.951 	"/>
	<polygon fill-rule="evenodd" clip-rule="evenodd" fill="#808284" points="2.777,20.729 4.06,19.446 5.341,20.729 	"/>
	<polygon fill-rule="evenodd" clip-rule="evenodd" fill="#808284" points="8.333,20.729 9.615,19.446 10.896,20.729 	"/>
	<polygon fill-rule="evenodd" clip-rule="evenodd" fill="#808284" points="5.556,23.506 6.837,22.224 8.119,23.506 	"/>
	<polygon fill-rule="evenodd" clip-rule="evenodd" fill="#808284" points="13.89,20.729 15.171,19.446 16.452,20.729 	"/>
	<polygon fill-rule="evenodd" clip-rule="evenodd" fill="#808284" points="11.111,23.506 12.393,22.224 13.675,23.506 	"/>
	<polygon fill-rule="evenodd" clip-rule="evenodd" fill="#808284" points="19.445,20.729 20.727,19.446 22.009,20.729 	"/>
	<polygon fill-rule="evenodd" clip-rule="evenodd" fill="#808284" points="16.667,23.506 17.949,22.224 19.23,23.506 	"/>
	<polygon fill-rule="evenodd" clip-rule="evenodd" fill="#808284" points="25.001,20.729 26.282,19.446 27.564,20.729 	"/>
	<polygon fill-rule="evenodd" clip-rule="evenodd" fill="#808284" points="22.224,23.506 23.505,22.224 24.786,23.506 	"/>
	<polygon fill-rule="evenodd" clip-rule="evenodd" fill="#808284" points="2.777,26.284 4.06,25.002 5.341,26.284 	"/>
	<polygon fill-rule="evenodd" clip-rule="evenodd" fill="#808284" points="8.333,26.284 9.615,25.002 10.896,26.284 	"/>
	<polygon fill-rule="evenodd" clip-rule="evenodd" fill="#808284" points="13.89,26.284 15.171,25.002 16.452,26.284 	"/>
	<polygon fill-rule="evenodd" clip-rule="evenodd" fill="#808284" points="19.445,26.284 20.727,25.002 22.009,26.284 	"/>
	<polygon fill-rule="evenodd" clip-rule="evenodd" fill="#808284" points="25.001,26.284 26.282,25.002 27.564,26.284 	"/>
	<polygon fill-rule="evenodd" clip-rule="evenodd" fill="#808284" points="0,1.283 1.281,0 2.563,1.283 	"/>
	<polygon fill-rule="evenodd" clip-rule="evenodd" fill="#808284" points="0,6.839 1.281,5.556 2.563,6.839 	"/>
	<polygon fill-rule="evenodd" clip-rule="evenodd" fill="#808284" points="0,12.395 1.281,11.112 2.563,12.395 	"/>
	<polygon fill-rule="evenodd" clip-rule="evenodd" fill="#808284" points="0,17.951 1.281,16.668 2.563,17.951 	"/>
	<polygon fill-rule="evenodd" clip-rule="evenodd" fill="#808284" points="0,23.506 1.281,22.224 2.563,23.506 	"/>
</g>
<g>
	<rect x="27.796" y="16.558" fill="none" width="27.797" height="10.513"/>
	<polygon fill-rule="evenodd" clip-rule="evenodd" fill="#808284" points="33.353,1.283 34.634,0 35.915,1.283 	"/>
	<polygon fill-rule="evenodd" clip-rule="evenodd" fill="#808284" points="38.908,1.283 40.189,0 41.472,1.283 	"/>
	<polygon fill-rule="evenodd" clip-rule="evenodd" fill="#808284" points="44.464,1.283 45.745,0 47.027,1.283 	"/>
	<polygon fill-rule="evenodd" clip-rule="evenodd" fill="#808284" points="50.02,1.283 51.302,0 52.583,1.283 	"/>
	<polygon fill-rule="evenodd" clip-rule="evenodd" fill="#808284" points="30.574,4.061 31.855,2.778 33.138,4.061 	"/>
	<polygon fill-rule="evenodd" clip-rule="evenodd" fill="#808284" points="36.13,4.061 37.412,2.778 38.693,4.061 	"/>
	<polygon fill-rule="evenodd" clip-rule="evenodd" fill="#808284" points="33.353,6.839 34.634,5.556 35.915,6.839 	"/>
	<polygon fill-rule="evenodd" clip-rule="evenodd" fill="#808284" points="41.686,4.061 42.968,2.778 44.249,4.061 	"/>
	<polygon fill-rule="evenodd" clip-rule="evenodd" fill="#808284" points="38.908,6.839 40.189,5.556 41.472,6.839 	"/>
	<polygon fill-rule="evenodd" clip-rule="evenodd" fill="#808284" points="47.241,4.061 48.523,2.778 49.806,4.061 	"/>
	<polygon fill-rule="evenodd" clip-rule="evenodd" fill="#808284" points="44.464,6.839 45.745,5.556 47.027,6.839 	"/>
	<polygon fill-rule="evenodd" clip-rule="evenodd" fill="#808284" points="52.798,4.061 54.079,2.778 55.361,4.061 	"/>
	<polygon fill-rule="evenodd" clip-rule="evenodd" fill="#808284" points="50.02,6.839 51.302,5.556 52.583,6.839 	"/>
	<polygon fill-rule="evenodd" clip-rule="evenodd" fill="#808284" points="30.574,9.617 31.855,8.334 33.138,9.617 	"/>
	<polygon fill-rule="evenodd" clip-rule="evenodd" fill="#808284" points="36.13,9.617 37.412,8.334 38.693,9.617 	"/>
	<polygon fill-rule="evenodd" clip-rule="evenodd" fill="#808284" points="33.353,12.395 34.634,11.112 35.915,12.395 	"/>
	<polygon fill-rule="evenodd" clip-rule="evenodd" fill="#808284" points="41.686,9.617 42.968,8.334 44.249,9.617 	"/>
	<polygon fill-rule="evenodd" clip-rule="evenodd" fill="#808284" points="38.908,12.395 40.189,11.112 41.472,12.395 	"/>
	<polygon fill-rule="evenodd" clip-rule="evenodd" fill="#808284" points="47.241,9.617 48.523,8.334 49.806,9.617 	"/>
	<polygon fill-rule="evenodd" clip-rule="evenodd" fill="#808284" points="44.464,12.395 45.745,11.112 47.027,12.395 	"/>
	<polygon fill-rule="evenodd" clip-rule="evenodd" fill="#808284" points="52.798,9.617 54.079,8.334 55.361,9.617 	"/>
	<polygon fill-rule="evenodd" clip-rule="evenodd" fill="#808284" points="50.02,12.395 51.302,11.112 52.583,12.395 	"/>
	<polygon fill-rule="evenodd" clip-rule="evenodd" fill="#808284" points="30.574,15.173 31.855,13.89 33.138,15.173 	"/>
	<polygon fill-rule="evenodd" clip-rule="evenodd" fill="#808284" points="36.13,15.173 37.412,13.89 38.693,15.173 	"/>
	<polygon fill-rule="evenodd" clip-rule="evenodd" fill="#808284" points="33.353,17.951 34.634,16.668 35.915,17.951 	"/>
	<polygon fill-rule="evenodd" clip-rule="evenodd" fill="#808284" points="41.686,15.173 42.968,13.89 44.249,15.173 	"/>
	<polygon fill-rule="evenodd" clip-rule="evenodd" fill="#808284" points="38.908,17.951 40.189,16.668 41.472,17.951 	"/>
	<polygon fill-rule="evenodd" clip-rule="evenodd" fill="#808284" points="47.241,15.173 48.523,13.89 49.806,15.173 	"/>
	<polygon fill-rule="evenodd" clip-rule="evenodd" fill="#808284" points="44.464,17.951 45.745,16.668 47.027,17.951 	"/>
	<polygon fill-rule="evenodd" clip-rule="evenodd" fill="#808284" points="52.798,15.173 54.079,13.89 55.361,15.173 	"/>
	<polygon fill-rule="evenodd" clip-rule="evenodd" fill="#808284" points="50.02,17.951 51.302,16.668 52.583,17.951 	"/>
	<polygon fill-rule="evenodd" clip-rule="evenodd" fill="#808284" points="30.574,20.729 31.855,19.446 33.138,20.729 	"/>
	<polygon fill-rule="evenodd" clip-rule="evenodd" fill="#808284" points="36.13,20.729 37.412,19.446 38.693,20.729 	"/>
	<polygon fill-rule="evenodd" clip-rule="evenodd" fill="#808284" points="33.353,23.506 34.634,22.224 35.915,23.506 	"/>
	<polygon fill-rule="evenodd" clip-rule="evenodd" fill="#808284" points="41.686,20.729 42.968,19.446 44.249,20.729 	"/>
	<polygon fill-rule="evenodd" clip-rule="evenodd" fill="#808284" points="38.908,23.506 40.189,22.224 41.472,23.506 	"/>
	<polygon fill-rule="evenodd" clip-rule="evenodd" fill="#808284" points="47.241,20.729 48.523,19.446 49.806,20.729 	"/>
	<polygon fill-rule="evenodd" clip-rule="evenodd" fill="#808284" points="44.464,23.506 45.745,22.224 47.027,23.506 	"/>
	<polygon fill-rule="evenodd" clip-rule="evenodd" fill="#808284" points="52.798,20.729 54.079,19.446 55.361,20.729 	"/>
	<polygon fill-rule="evenodd" clip-rule="evenodd" fill="#808284" points="50.02,23.506 51.302,22.224 52.583,23.506 	"/>
	<polygon fill-rule="evenodd" clip-rule="evenodd" fill="#808284" points="30.574,26.284 31.855,25.002 33.138,26.284 	"/>
	<polygon fill-rule="evenodd" clip-rule="evenodd" fill="#808284" points="36.13,26.284 37.412,25.002 38.693,26.284 	"/>
	<polygon fill-rule="evenodd" clip-rule="evenodd" fill="#808284" points="41.686,26.284 42.968,25.002 44.249,26.284 	"/>
	<polygon fill-rule="evenodd" clip-rule="evenodd" fill="#808284" points="47.241,26.284 48.523,25.002 49.806,26.284 	"/>
	<polygon fill-rule="evenodd" clip-rule="evenodd" fill="#808284" points="52.798,26.284 54.079,25.002 55.361,26.284 	"/>
	<polygon fill-rule="evenodd" clip-rule="evenodd" fill="#808284" points="27.796,1.283 29.078,0 30.359,1.283 	"/>
	<polygon fill-rule="evenodd" clip-rule="evenodd" fill="#808284" points="27.796,6.839 29.078,5.556 30.359,6.839 	"/>
	<polygon fill-rule="evenodd" clip-rule="evenodd" fill="#808284" points="27.796,12.395 29.078,11.112 30.359,12.395 	"/>
	<polygon fill-rule="evenodd" clip-rule="evenodd" fill="#808284" points="27.796,17.951 29.078,16.668 30.359,17.951 	"/>
	<polygon fill-rule="evenodd" clip-rule="evenodd" fill="#808284" points="27.796,23.506 29.078,22.224 30.359,23.506 	"/>
</g>
<g>
	<rect x="55.593" y="16.558" fill="none" width="27.797" height="10.513"/>
	<polygon fill-rule="evenodd" clip-rule="evenodd" fill="#808284" points="61.149,1.283 62.431,0 63.712,1.283 	"/>
	<polygon fill-rule="evenodd" clip-rule="evenodd" fill="#808284" points="66.705,1.283 67.986,0 69.268,1.283 	"/>
	<polygon fill-rule="evenodd" clip-rule="evenodd" fill="#808284" points="72.261,1.283 73.542,0 74.824,1.283 	"/>
	<polygon fill-rule="evenodd" clip-rule="evenodd" fill="#808284" points="77.816,1.283 79.098,0 80.38,1.283 	"/>
	<polygon fill-rule="evenodd" clip-rule="evenodd" fill="#808284" points="58.371,4.061 59.652,2.778 60.935,4.061 	"/>
	<polygon fill-rule="evenodd" clip-rule="evenodd" fill="#808284" points="63.927,4.061 65.208,2.778 66.49,4.061 	"/>
	<polygon fill-rule="evenodd" clip-rule="evenodd" fill="#808284" points="61.149,6.839 62.431,5.556 63.712,6.839 	"/>
	<polygon fill-rule="evenodd" clip-rule="evenodd" fill="#808284" points="69.482,4.061 70.765,2.778 72.046,4.061 	"/>
	<polygon fill-rule="evenodd" clip-rule="evenodd" fill="#808284" points="66.705,6.839 67.986,5.556 69.268,6.839 	"/>
	<polygon fill-rule="evenodd" clip-rule="evenodd" fill="#808284" points="75.038,4.061 76.32,2.778 77.602,4.061 	"/>
	<polygon fill-rule="evenodd" clip-rule="evenodd" fill="#808284" points="72.261,6.839 73.542,5.556 74.824,6.839 	"/>
	<polygon fill-rule="evenodd" clip-rule="evenodd" fill="#808284" points="80.595,4.061 81.876,2.778 83.157,4.061 	"/>
	<polygon fill-rule="evenodd" clip-rule="evenodd" fill="#808284" points="77.816,6.839 79.098,5.556 80.38,6.839 	"/>
	<polygon fill-rule="evenodd" clip-rule="evenodd" fill="#808284" points="58.371,9.617 59.652,8.334 60.935,9.617 	"/>
	<polygon fill-rule="evenodd" clip-rule="evenodd" fill="#808284" points="63.927,9.617 65.208,8.334 66.49,9.617 	"/>
	<polygon fill-rule="evenodd" clip-rule="evenodd" fill="#808284" points="61.149,12.395 62.431,11.112 63.712,12.395 	"/>
	<polygon fill-rule="evenodd" clip-rule="evenodd" fill="#808284" points="69.482,9.617 70.765,8.334 72.046,9.617 	"/>
	<polygon fill-rule="evenodd" clip-rule="evenodd" fill="#808284" points="66.705,12.395 67.986,11.112 69.268,12.395 	"/>
	<polygon fill-rule="evenodd" clip-rule="evenodd" fill="#808284" points="75.038,9.617 76.32,8.334 77.602,9.617 	"/>
	<polygon fill-rule="evenodd" clip-rule="evenodd" fill="#808284" points="72.261,12.395 73.542,11.112 74.824,12.395 	"/>
	<polygon fill-rule="evenodd" clip-rule="evenodd" fill="#808284" points="80.595,9.617 81.876,8.334 83.157,9.617 	"/>
	<polygon fill-rule="evenodd" clip-rule="evenodd" fill="#808284" points="77.816,12.395 79.098,11.112 80.38,12.395 	"/>
	<polygon fill-rule="evenodd" clip-rule="evenodd" fill="#808284" points="58.371,15.173 59.652,13.89 60.935,15.173 	"/>
	<polygon fill-rule="evenodd" clip-rule="evenodd" fill="#808284" points="63.927,15.173 65.208,13.89 66.49,15.173 	"/>
	<polygon fill-rule="evenodd" clip-rule="evenodd" fill="#808284" points="61.149,17.951 62.431,16.668 63.712,17.951 	"/>
	<polygon fill-rule="evenodd" clip-rule="evenodd" fill="#808284" points="69.482,15.173 70.765,13.89 72.046,15.173 	"/>
	<polygon fill-rule="evenodd" clip-rule="evenodd" fill="#808284" points="66.705,17.951 67.986,16.668 69.268,17.951 	"/>
	<polygon fill-rule="evenodd" clip-rule="evenodd" fill="#808284" points="75.038,15.173 76.32,13.89 77.602,15.173 	"/>
	<polygon fill-rule="evenodd" clip-rule="evenodd" fill="#808284" points="72.261,17.951 73.542,16.668 74.824,17.951 	"/>
	<polygon fill-rule="evenodd" clip-rule="evenodd" fill="#808284" points="80.595,15.173 81.876,13.89 83.157,15.173 	"/>
	<polygon fill-rule="evenodd" clip-rule="evenodd" fill="#808284" points="77.816,17.951 79.098,16.668 80.38,17.951 	"/>
	<polygon fill-rule="evenodd" clip-rule="evenodd" fill="#808284" points="58.371,20.729 59.652,19.446 60.935,20.729 	"/>
	<polygon fill-rule="evenodd" clip-rule="evenodd" fill="#808284" points="63.927,20.729 65.208,19.446 66.49,20.729 	"/>
	<polygon fill-rule="evenodd" clip-rule="evenodd" fill="#808284" points="61.149,23.506 62.431,22.224 63.712,23.506 	"/>
	<polygon fill-rule="evenodd" clip-rule="evenodd" fill="#808284" points="69.482,20.729 70.765,19.446 72.046,20.729 	"/>
	<polygon fill-rule="evenodd" clip-rule="evenodd" fill="#808284" points="66.705,23.506 67.986,22.224 69.268,23.506 	"/>
	<polygon fill-rule="evenodd" clip-rule="evenodd" fill="#808284" points="75.038,20.729 76.32,19.446 77.602,20.729 	"/>
	<polygon fill-rule="evenodd" clip-rule="evenodd" fill="#808284" points="72.261,23.506 73.542,22.224 74.824,23.506 	"/>
	<polygon fill-rule="evenodd" clip-rule="evenodd" fill="#808284" points="80.595,20.729 81.876,19.446 83.157,20.729 	"/>
	<polygon fill-rule="evenodd" clip-rule="evenodd" fill="#808284" points="77.816,23.506 79.098,22.224 80.38,23.506 	"/>
	<polygon fill-rule="evenodd" clip-rule="evenodd" fill="#808284" points="58.371,26.284 59.652,25.002 60.935,26.284 	"/>
	<polygon fill-rule="evenodd" clip-rule="evenodd" fill="#808284" points="63.927,26.284 65.208,25.002 66.49,26.284 	"/>
	<polygon fill-rule="evenodd" clip-rule="evenodd" fill="#808284" points="69.482,26.284 70.765,25.002 72.046,26.284 	"/>
	<polygon fill-rule="evenodd" clip-rule="evenodd" fill="#808284" points="75.038,26.284 76.32,25.002 77.602,26.284 	"/>
	<polygon fill-rule="evenodd" clip-rule="evenodd" fill="#808284" points="80.595,26.284 81.876,25.002 83.157,26.284 	"/>
	<polygon fill-rule="evenodd" clip-rule="evenodd" fill="#808284" points="55.593,1.283 56.875,0 58.156,1.283 	"/>
	<polygon fill-rule="evenodd" clip-rule="evenodd" fill="#808284" points="55.593,6.839 56.875,5.556 58.156,6.839 	"/>
	<polygon fill-rule="evenodd" clip-rule="evenodd" fill="#808284" points="55.593,12.395 56.875,11.112 58.156,12.395 	"/>
	<polygon fill-rule="evenodd" clip-rule="evenodd" fill="#808284" points="55.593,17.951 56.875,16.668 58.156,17.951 	"/>
	<polygon fill-rule="evenodd" clip-rule="evenodd" fill="#808284" points="55.593,23.506 56.875,22.224 58.156,23.506 	"/>
</g>
<g>
	<rect x="83.39" y="16.558" fill="none" width="0.266" height="10.513"/>
	<polygon fill-rule="evenodd" clip-rule="evenodd" fill="#808284" points="88.945,1.283 90.228,0 91.509,1.283 	"/>
	<polygon fill-rule="evenodd" clip-rule="evenodd" fill="#808284" points="94.501,1.283 95.783,0 97.064,1.283 	"/>
	<polygon fill-rule="evenodd" clip-rule="evenodd" fill="#808284" points="100.058,1.283 101.339,0 102.62,1.283 	"/>
	<polygon fill-rule="evenodd" clip-rule="evenodd" fill="#808284" points="105.613,1.283 106.895,0 108.177,1.283 	"/>
	<polygon fill-rule="evenodd" clip-rule="evenodd" fill="#808284" points="86.167,4.061 87.449,2.778 88.73,4.061 	"/>
	<polygon fill-rule="evenodd" clip-rule="evenodd" fill="#808284" points="91.724,4.061 93.005,2.778 94.287,4.061 	"/>
	<polygon fill-rule="evenodd" clip-rule="evenodd" fill="#808284" points="88.945,6.839 90.228,5.556 91.509,6.839 	"/>
	<polygon fill-rule="evenodd" clip-rule="evenodd" fill="#808284" points="97.279,4.061 98.561,2.778 99.843,4.061 	"/>
	<polygon fill-rule="evenodd" clip-rule="evenodd" fill="#808284" points="94.501,6.839 95.783,5.556 97.064,6.839 	"/>
	<polygon fill-rule="evenodd" clip-rule="evenodd" fill="#808284" points="102.835,4.061 104.117,2.778 105.398,4.061 	"/>
	<polygon fill-rule="evenodd" clip-rule="evenodd" fill="#808284" points="100.058,6.839 101.339,5.556 102.62,6.839 	"/>
	<polygon fill-rule="evenodd" clip-rule="evenodd" fill="#808284" points="108.391,4.061 109.673,2.778 110.954,4.061 	"/>
	<polygon fill-rule="evenodd" clip-rule="evenodd" fill="#808284" points="105.613,6.839 106.895,5.556 108.177,6.839 	"/>
	<polygon fill-rule="evenodd" clip-rule="evenodd" fill="#808284" points="86.167,9.617 87.449,8.334 88.73,9.617 	"/>
	<polygon fill-rule="evenodd" clip-rule="evenodd" fill="#808284" points="91.724,9.617 93.005,8.334 94.287,9.617 	"/>
	<polygon fill-rule="evenodd" clip-rule="evenodd" fill="#808284" points="88.945,12.395 90.228,11.112 91.509,12.395 	"/>
	<polygon fill-rule="evenodd" clip-rule="evenodd" fill="#808284" points="97.279,9.617 98.561,8.334 99.843,9.617 	"/>
	<polygon fill-rule="evenodd" clip-rule="evenodd" fill="#808284" points="94.501,12.395 95.783,11.112 97.064,12.395 	"/>
	<polygon fill-rule="evenodd" clip-rule="evenodd" fill="#808284" points="102.835,9.617 104.117,8.334 105.398,9.617 	"/>
	<polygon fill-rule="evenodd" clip-rule="evenodd" fill="#808284" points="100.058,12.395 101.339,11.112 102.62,12.395 	"/>
	<polygon fill-rule="evenodd" clip-rule="evenodd" fill="#808284" points="108.391,9.617 109.673,8.334 110.954,9.617 	"/>
	<polygon fill-rule="evenodd" clip-rule="evenodd" fill="#808284" points="105.613,12.395 106.895,11.112 108.177,12.395 	"/>
	<polygon fill-rule="evenodd" clip-rule="evenodd" fill="#808284" points="86.167,15.173 87.449,13.89 88.73,15.173 	"/>
	<polygon fill-rule="evenodd" clip-rule="evenodd" fill="#808284" points="91.724,15.173 93.005,13.89 94.287,15.173 	"/>
	<polygon fill-rule="evenodd" clip-rule="evenodd" fill="#808284" points="88.945,17.951 90.228,16.668 91.509,17.951 	"/>
	<polygon fill-rule="evenodd" clip-rule="evenodd" fill="#808284" points="97.279,15.173 98.561,13.89 99.843,15.173 	"/>
	<polygon fill-rule="evenodd" clip-rule="evenodd" fill="#808284" points="94.501,17.951 95.783,16.668 97.064,17.951 	"/>
	<polygon fill-rule="evenodd" clip-rule="evenodd" fill="#808284" points="102.835,15.173 104.117,13.89 105.398,15.173 	"/>
	<polygon fill-rule="evenodd" clip-rule="evenodd" fill="#808284" points="100.058,17.951 101.339,16.668 102.62,17.951 	"/>
	<polygon fill-rule="evenodd" clip-rule="evenodd" fill="#808284" points="108.391,15.173 109.673,13.89 110.954,15.173 	"/>
	<polygon fill-rule="evenodd" clip-rule="evenodd" fill="#808284" points="105.613,17.951 106.895,16.668 108.177,17.951 	"/>
	<polygon fill-rule="evenodd" clip-rule="evenodd" fill="#808284" points="86.167,20.729 87.449,19.446 88.73,20.729 	"/>
	<polygon fill-rule="evenodd" clip-rule="evenodd" fill="#808284" points="91.724,20.729 93.005,19.446 94.287,20.729 	"/>
	<polygon fill-rule="evenodd" clip-rule="evenodd" fill="#808284" points="88.945,23.506 90.228,22.224 91.509,23.506 	"/>
	<polygon fill-rule="evenodd" clip-rule="evenodd" fill="#808284" points="97.279,20.729 98.561,19.446 99.843,20.729 	"/>
	<polygon fill-rule="evenodd" clip-rule="evenodd" fill="#808284" points="94.501,23.506 95.783,22.224 97.064,23.506 	"/>
	<polygon fill-rule="evenodd" clip-rule="evenodd" fill="#808284" points="102.835,20.729 104.117,19.446 105.398,20.729 	"/>
	<polygon fill-rule="evenodd" clip-rule="evenodd" fill="#808284" points="100.058,23.506 101.339,22.224 102.62,23.506 	"/>
	<polygon fill-rule="evenodd" clip-rule="evenodd" fill="#808284" points="108.391,20.729 109.673,19.446 110.954,20.729 	"/>
	<polygon fill-rule="evenodd" clip-rule="evenodd" fill="#808284" points="105.613,23.506 106.895,22.224 108.177,23.506 	"/>
	<polygon fill-rule="evenodd" clip-rule="evenodd" fill="#808284" points="86.167,26.284 87.449,25.002 88.73,26.284 	"/>
	<polygon fill-rule="evenodd" clip-rule="evenodd" fill="#808284" points="91.724,26.284 93.005,25.002 94.287,26.284 	"/>
	<polygon fill-rule="evenodd" clip-rule="evenodd" fill="#808284" points="97.279,26.284 98.561,25.002 99.843,26.284 	"/>
	<polygon fill-rule="evenodd" clip-rule="evenodd" fill="#808284" points="102.835,26.284 104.117,25.002 105.398,26.284 	"/>
	<polygon fill-rule="evenodd" clip-rule="evenodd" fill="#808284" points="108.391,26.284 109.673,25.002 110.954,26.284 	"/>
	<polygon fill-rule="evenodd" clip-rule="evenodd" fill="#808284" points="83.39,1.283 84.671,0 85.953,1.283 	"/>
	<polygon fill-rule="evenodd" clip-rule="evenodd" fill="#808284" points="83.39,6.839 84.671,5.556 85.953,6.839 	"/>
	<polygon fill-rule="evenodd" clip-rule="evenodd" fill="#808284" points="83.39,12.395 84.671,11.112 85.953,12.395 	"/>
	<polygon fill-rule="evenodd" clip-rule="evenodd" fill="#808284" points="83.39,17.951 84.671,16.668 85.953,17.951 	"/>
	<polygon fill-rule="evenodd" clip-rule="evenodd" fill="#808284" points="83.39,23.506 84.671,22.224 85.953,23.506 	"/>
</g>
</svg>
