<?xml version="1.0" encoding="utf-8"?>
<!-- Generator: Adobe Illustrator 12.0.0, SVG Export Plug-In . SVG Version: 6.00 Build 51448)  -->
<!DOCTYPE svg PUBLIC "-//W3C//DTD SVG 1.1//EN" "http://www.w3.org/Graphics/SVG/1.1/DTD/svg11.dtd" [
	<!ENTITY ns_svg "http://www.w3.org/2000/svg">
	<!ENTITY ns_xlink "http://www.w3.org/1999/xlink">
]>
<svg  version="1.1" id="Layer_1" xmlns="&ns_svg;" xmlns:xlink="&ns_xlink;" width="95.571" height="50.216"
	 viewBox="0 0 95.571 50.216" overflow="visible" enable-background="new 0 0 95.571 50.216" xml:space="preserve">
<rect x="2.965" y="5.282" fill="none" width="70.25" height="32.5"/>
<g>
	<rect x="2.965" y="25.011" fill="none" width="22.262" height="12.771"/>
	<g>
		<rect x="2.549" y="25.011" fill-rule="evenodd" clip-rule="evenodd" fill="none" width="22.678" height="22.677"/>
		<circle fill="none" stroke="#000000" stroke-width="0.2834" stroke-miterlimit="3.8636" cx="7.649" cy="25.108" r="2.289"/>
		<circle fill="none" stroke="#000000" stroke-width="0.2834" stroke-miterlimit="3.8636" cx="21.306" cy="25.444" r="1.145"/>
		<circle fill="none" stroke="#000000" stroke-width="0.2834" stroke-miterlimit="3.8636" cx="21.306" cy="48.121" r="1.145"/>
		<circle fill="none" stroke="#000000" stroke-width="0.2834" stroke-miterlimit="3.8636" cx="7.649" cy="47.786" r="2.289"/>
		<circle fill="none" stroke="#000000" stroke-width="0.2834" stroke-miterlimit="3.8636" cx="2.572" cy="43.611" r="1.145"/>
		<circle fill="none" stroke="#000000" stroke-width="0.2834" stroke-miterlimit="3.8636" cx="25.249" cy="43.611" r="1.145"/>
		<circle fill="none" stroke="#000000" stroke-width="0.2834" stroke-miterlimit="3.8636" cx="2.329" cy="37.508" r="1.145"/>
		<circle fill="none" stroke="#000000" stroke-width="0.2834" stroke-miterlimit="3.8636" cx="2.431" cy="33.561" r="2.29"/>
		<circle fill="none" stroke="#000000" stroke-width="0.2834" stroke-miterlimit="3.8636" cx="25.108" cy="33.561" r="2.289"/>
		<circle fill="none" stroke="#000000" stroke-width="0.2834" stroke-miterlimit="3.8636" cx="25.006" cy="37.508" r="1.145"/>
	</g>
	<circle fill="none" stroke="#000000" stroke-width="0.2834" stroke-miterlimit="3.8636" cx="5.165" cy="29.389" r="2.289"/>
	<circle fill="none" stroke="#000000" stroke-width="0.2834" stroke-miterlimit="3.8636" cx="5.057" cy="40.551" r="2.289"/>
	<path fill="none" stroke="#000000" stroke-width="0.2834" stroke-miterlimit="3.8636" d="M4.838,25.011
		c0,1.265-1.024,2.29-2.289,2.29"/>
	<path fill="none" stroke="#000000" stroke-width="0.2834" stroke-miterlimit="3.8636" d="M2.549,45.399
		c1.265,0,2.289,1.025,2.289,2.289"/>
	<path fill="none" stroke="#000000" stroke-width="0.2834" stroke-miterlimit="3.8636" d="M25.227,27.301
		c-1.265,0-2.29-1.025-2.29-2.29"/>
	<path fill="none" stroke="#000000" stroke-width="0.2834" stroke-miterlimit="3.8636" d="M22.937,47.688
		c0-1.264,1.025-2.289,2.29-2.289"/>
	<circle fill="none" stroke="#000000" stroke-width="0.2834" stroke-miterlimit="3.8636" cx="5.367" cy="44.461" r="1.145"/>
	<circle fill="none" stroke="#000000" stroke-width="0.2834" stroke-miterlimit="3.8636" cx="8.04" cy="43.442" r="1.145"/>
	<circle fill="none" stroke="#000000" stroke-width="0.2834" stroke-miterlimit="3.8636" cx="22.515" cy="29.22" r="2.289"/>
	<circle fill="none" stroke="#000000" stroke-width="0.2834" stroke-miterlimit="3.8636" cx="11.781" cy="44.987" r="2.29"/>
	<circle fill="none" stroke="#000000" stroke-width="0.2834" stroke-miterlimit="3.8636" cx="8.932" cy="40.769" r="1.145"/>
	<circle fill="none" stroke="#000000" stroke-width="0.2834" stroke-miterlimit="3.8636" cx="12.996" cy="40.084" r="2.289"/>
	<circle fill="none" stroke="#000000" stroke-width="0.2834" stroke-miterlimit="3.8636" cx="8.865" cy="36.823" r="2.29"/>
	<circle fill="none" stroke="#000000" stroke-width="0.2834" stroke-miterlimit="3.8636" cx="5.104" cy="36.475" r="1.145"/>
	<circle fill="none" stroke="#000000" stroke-width="0.2834" stroke-miterlimit="3.8636" cx="18.754" cy="34.957" r="1.145"/>
	<circle fill="none" stroke="#000000" stroke-width="0.2834" stroke-miterlimit="3.8636" cx="18.762" cy="44.762" r="2.289"/>
	<circle fill="none" stroke="#000000" stroke-width="0.2834" stroke-miterlimit="3.8636" cx="22.582" cy="44.596" r="1.145"/>
	<circle fill="none" stroke="#000000" stroke-width="0.2834" stroke-miterlimit="3.8636" cx="18.281" cy="38.991" r="2.289"/>
	<circle fill="none" stroke="#000000" stroke-width="0.2834" stroke-miterlimit="3.8636" cx="15.413" cy="43.078" r="1.145"/>
	<circle fill="none" stroke="#000000" stroke-width="0.2834" stroke-miterlimit="3.8636" cx="6.562" cy="33.377" r="1.145"/>
	<circle fill="none" stroke="#000000" stroke-width="0.2834" stroke-miterlimit="3.8636" cx="10.917" cy="27.564" r="1.145"/>
	<circle fill="none" stroke="#000000" stroke-width="0.2834" stroke-miterlimit="3.8636" cx="9.783" cy="31.192" r="2.29"/>
	<circle fill="none" stroke="#000000" stroke-width="0.2834" stroke-miterlimit="3.8636" cx="12.011" cy="34.532" r="1.145"/>
	<circle fill="none" stroke="#000000" stroke-width="0.2834" stroke-miterlimit="3.8636" cx="14.258" cy="36.415" r="1.145"/>
	<circle fill="none" stroke="#000000" stroke-width="0.2834" stroke-miterlimit="3.8636" cx="15.487" cy="32.631" r="2.29"/>
	<circle fill="none" stroke="#000000" stroke-width="0.2834" stroke-miterlimit="3.8636" cx="14.94" cy="27.446" r="2.29"/>
	<circle fill="none" stroke="#000000" stroke-width="0.2834" stroke-miterlimit="3.8636" cx="21.306" cy="41.741" r="1.145"/>
	<circle fill="none" stroke="#000000" stroke-width="0.2834" stroke-miterlimit="3.8636" cx="23.857" cy="40.952" r="1.145"/>
	<circle fill="none" stroke="#000000" stroke-width="0.2834" stroke-miterlimit="3.8636" cx="18.978" cy="26.834" r="1.145"/>
	<circle fill="none" stroke="#000000" stroke-width="0.2834" stroke-miterlimit="3.8636" cx="18.431" cy="29.812" r="1.145"/>
	<circle fill="none" stroke="#000000" stroke-width="0.2834" stroke-miterlimit="3.8636" cx="20.071" cy="32.465" r="1.145"/>
	<circle fill="none" stroke="#000000" stroke-width="0.2834" stroke-miterlimit="3.8636" cx="21.65" cy="35.017" r="1.145"/>
	<circle fill="none" stroke="#000000" stroke-width="0.2834" stroke-miterlimit="3.8636" cx="22.319" cy="38.116" r="1.145"/>
	<circle fill="none" stroke="#000000" stroke-width="0.2834" stroke-miterlimit="3.8636" cx="15.413" cy="46.451" r="1.145"/>
</g>
<g>
	<rect x="25.227" y="25.011" fill="none" width="22.677" height="12.771"/>
	<g>
		<rect x="25.227" y="25.011" fill-rule="evenodd" clip-rule="evenodd" fill="none" width="22.677" height="22.677"/>
		<circle fill="none" stroke="#000000" stroke-width="0.2834" stroke-miterlimit="3.8636" cx="30.327" cy="25.108" r="2.29"/>
		<circle fill="none" stroke="#000000" stroke-width="0.2834" stroke-miterlimit="3.8636" cx="43.983" cy="25.444" r="1.145"/>
		<circle fill="none" stroke="#000000" stroke-width="0.2834" stroke-miterlimit="3.8636" cx="43.983" cy="48.121" r="1.145"/>
		<circle fill="none" stroke="#000000" stroke-width="0.2834" stroke-miterlimit="3.8636" cx="30.327" cy="47.786" r="2.29"/>
		<circle fill="none" stroke="#000000" stroke-width="0.2834" stroke-miterlimit="3.8636" cx="25.249" cy="43.611" r="1.145"/>
		<circle fill="none" stroke="#000000" stroke-width="0.2834" stroke-miterlimit="3.8636" cx="47.926" cy="43.611" r="1.145"/>
		<circle fill="none" stroke="#000000" stroke-width="0.2834" stroke-miterlimit="3.8636" cx="25.006" cy="37.508" r="1.145"/>
		<circle fill="none" stroke="#000000" stroke-width="0.2834" stroke-miterlimit="3.8636" cx="25.108" cy="33.561" r="2.289"/>
		<circle fill="none" stroke="#000000" stroke-width="0.2834" stroke-miterlimit="3.8636" cx="47.786" cy="33.561" r="2.29"/>
		<circle fill="none" stroke="#000000" stroke-width="0.2834" stroke-miterlimit="3.8636" cx="47.684" cy="37.508" r="1.145"/>
	</g>
	<circle fill="none" stroke="#000000" stroke-width="0.2834" stroke-miterlimit="3.8636" cx="27.842" cy="29.389" r="2.29"/>
	<circle fill="none" stroke="#000000" stroke-width="0.2834" stroke-miterlimit="3.8636" cx="27.734" cy="40.551" r="2.29"/>
	<path fill="none" stroke="#000000" stroke-width="0.2834" stroke-miterlimit="3.8636" d="M27.516,25.011
		c0,1.265-1.025,2.29-2.289,2.29"/>
	<path fill="none" stroke="#000000" stroke-width="0.2834" stroke-miterlimit="3.8636" d="M25.227,45.399
		c1.264,0,2.289,1.025,2.289,2.289"/>
	<path fill="none" stroke="#000000" stroke-width="0.2834" stroke-miterlimit="3.8636" d="M47.903,27.301
		c-1.265,0-2.289-1.025-2.289-2.29"/>
	<path fill="none" stroke="#000000" stroke-width="0.2834" stroke-miterlimit="3.8636" d="M45.614,47.688
		c0-1.264,1.024-2.289,2.289-2.289"/>
	<circle fill="none" stroke="#000000" stroke-width="0.2834" stroke-miterlimit="3.8636" cx="28.044" cy="44.461" r="1.145"/>
	<circle fill="none" stroke="#000000" stroke-width="0.2834" stroke-miterlimit="3.8636" cx="30.717" cy="43.442" r="1.145"/>
	<circle fill="none" stroke="#000000" stroke-width="0.2834" stroke-miterlimit="3.8636" cx="45.192" cy="29.22" r="2.29"/>
	<circle fill="none" stroke="#000000" stroke-width="0.2834" stroke-miterlimit="3.8636" cx="34.458" cy="44.987" r="2.289"/>
	<circle fill="none" stroke="#000000" stroke-width="0.2834" stroke-miterlimit="3.8636" cx="31.608" cy="40.769" r="1.145"/>
	<circle fill="none" stroke="#000000" stroke-width="0.2834" stroke-miterlimit="3.8636" cx="35.673" cy="40.084" r="2.29"/>
	<circle fill="none" stroke="#000000" stroke-width="0.2834" stroke-miterlimit="3.8636" cx="31.542" cy="36.823" r="2.29"/>
	<circle fill="none" stroke="#000000" stroke-width="0.2834" stroke-miterlimit="3.8636" cx="27.781" cy="36.475" r="1.145"/>
	<circle fill="none" stroke="#000000" stroke-width="0.2834" stroke-miterlimit="3.8636" cx="41.432" cy="34.957" r="1.145"/>
	<circle fill="none" stroke="#000000" stroke-width="0.2834" stroke-miterlimit="3.8636" cx="41.439" cy="44.762" r="2.29"/>
	<circle fill="none" stroke="#000000" stroke-width="0.2834" stroke-miterlimit="3.8636" cx="45.259" cy="44.596" r="1.145"/>
	<circle fill="none" stroke="#000000" stroke-width="0.2834" stroke-miterlimit="3.8636" cx="40.958" cy="38.991" r="2.29"/>
	<circle fill="none" stroke="#000000" stroke-width="0.2834" stroke-miterlimit="3.8636" cx="38.09" cy="43.078" r="1.145"/>
	<circle fill="none" stroke="#000000" stroke-width="0.2834" stroke-miterlimit="3.8636" cx="29.239" cy="33.377" r="1.145"/>
	<circle fill="none" stroke="#000000" stroke-width="0.2834" stroke-miterlimit="3.8636" cx="33.594" cy="27.564" r="1.145"/>
	<circle fill="none" stroke="#000000" stroke-width="0.2834" stroke-miterlimit="3.8636" cx="32.46" cy="31.192" r="2.289"/>
	<circle fill="none" stroke="#000000" stroke-width="0.2834" stroke-miterlimit="3.8636" cx="34.688" cy="34.532" r="1.145"/>
	<circle fill="none" stroke="#000000" stroke-width="0.2834" stroke-miterlimit="3.8636" cx="36.936" cy="36.415" r="1.145"/>
	<circle fill="none" stroke="#000000" stroke-width="0.2834" stroke-miterlimit="3.8636" cx="38.164" cy="32.631" r="2.289"/>
	<circle fill="none" stroke="#000000" stroke-width="0.2834" stroke-miterlimit="3.8636" cx="37.617" cy="27.446" r="2.289"/>
	<circle fill="none" stroke="#000000" stroke-width="0.2834" stroke-miterlimit="3.8636" cx="43.983" cy="41.741" r="1.145"/>
	<circle fill="none" stroke="#000000" stroke-width="0.2834" stroke-miterlimit="3.8636" cx="46.535" cy="40.952" r="1.145"/>
	<circle fill="none" stroke="#000000" stroke-width="0.2834" stroke-miterlimit="3.8636" cx="41.655" cy="26.834" r="1.145"/>
	<circle fill="none" stroke="#000000" stroke-width="0.2834" stroke-miterlimit="3.8636" cx="41.108" cy="29.812" r="1.145"/>
	<circle fill="none" stroke="#000000" stroke-width="0.2834" stroke-miterlimit="3.8636" cx="42.748" cy="32.465" r="1.145"/>
	<circle fill="none" stroke="#000000" stroke-width="0.2834" stroke-miterlimit="3.8636" cx="44.328" cy="35.017" r="1.145"/>
	<circle fill="none" stroke="#000000" stroke-width="0.2834" stroke-miterlimit="3.8636" cx="44.996" cy="38.116" r="1.145"/>
	<circle fill="none" stroke="#000000" stroke-width="0.2834" stroke-miterlimit="3.8636" cx="38.09" cy="46.451" r="1.145"/>
</g>
<g>
	<rect x="47.903" y="25.011" fill="none" width="22.678" height="12.771"/>
	<g>
		<rect x="47.903" y="25.011" fill-rule="evenodd" clip-rule="evenodd" fill="none" width="22.678" height="22.677"/>
		<circle fill="none" stroke="#000000" stroke-width="0.2834" stroke-miterlimit="3.8636" cx="53.004" cy="25.108" r="2.289"/>
		<circle fill="none" stroke="#000000" stroke-width="0.2834" stroke-miterlimit="3.8636" cx="66.66" cy="25.444" r="1.145"/>
		<circle fill="none" stroke="#000000" stroke-width="0.2834" stroke-miterlimit="3.8636" cx="66.66" cy="48.121" r="1.145"/>
		<circle fill="none" stroke="#000000" stroke-width="0.2834" stroke-miterlimit="3.8636" cx="53.004" cy="47.786" r="2.289"/>
		<circle fill="none" stroke="#000000" stroke-width="0.2834" stroke-miterlimit="3.8636" cx="47.926" cy="43.611" r="1.145"/>
		<circle fill="none" stroke="#000000" stroke-width="0.2834" stroke-miterlimit="3.8636" cx="70.604" cy="43.611" r="1.145"/>
		<circle fill="none" stroke="#000000" stroke-width="0.2834" stroke-miterlimit="3.8636" cx="47.684" cy="37.508" r="1.145"/>
		<circle fill="none" stroke="#000000" stroke-width="0.2834" stroke-miterlimit="3.8636" cx="47.786" cy="33.561" r="2.29"/>
		<circle fill="none" stroke="#000000" stroke-width="0.2834" stroke-miterlimit="3.8636" cx="70.463" cy="33.561" r="2.289"/>
		<circle fill="none" stroke="#000000" stroke-width="0.2834" stroke-miterlimit="3.8636" cx="70.36" cy="37.508" r="1.145"/>
	</g>
	<circle fill="none" stroke="#000000" stroke-width="0.2834" stroke-miterlimit="3.8636" cx="50.52" cy="29.389" r="2.289"/>
	<circle fill="none" stroke="#000000" stroke-width="0.2834" stroke-miterlimit="3.8636" cx="50.411" cy="40.551" r="2.289"/>
	<path fill="none" stroke="#000000" stroke-width="0.2834" stroke-miterlimit="3.8636" d="M50.192,25.011
		c0,1.265-1.024,2.29-2.289,2.29"/>
	<path fill="none" stroke="#000000" stroke-width="0.2834" stroke-miterlimit="3.8636" d="M47.903,45.399
		c1.265,0,2.289,1.025,2.289,2.289"/>
	<path fill="none" stroke="#000000" stroke-width="0.2834" stroke-miterlimit="3.8636" d="M70.581,27.301
		c-1.265,0-2.29-1.025-2.29-2.29"/>
	<path fill="none" stroke="#000000" stroke-width="0.2834" stroke-miterlimit="3.8636" d="M68.291,47.688
		c0-1.264,1.025-2.289,2.29-2.289"/>
	<circle fill="none" stroke="#000000" stroke-width="0.2834" stroke-miterlimit="3.8636" cx="50.721" cy="44.461" r="1.145"/>
	<circle fill="none" stroke="#000000" stroke-width="0.2834" stroke-miterlimit="3.8636" cx="53.395" cy="43.442" r="1.145"/>
	<circle fill="none" stroke="#000000" stroke-width="0.2834" stroke-miterlimit="3.8636" cx="67.869" cy="29.22" r="2.289"/>
	<circle fill="none" stroke="#000000" stroke-width="0.2834" stroke-miterlimit="3.8636" cx="57.135" cy="44.987" r="2.29"/>
	<circle fill="none" stroke="#000000" stroke-width="0.2834" stroke-miterlimit="3.8636" cx="54.286" cy="40.769" r="1.145"/>
	<circle fill="none" stroke="#000000" stroke-width="0.2834" stroke-miterlimit="3.8636" cx="58.35" cy="40.084" r="2.29"/>
	<circle fill="none" stroke="#000000" stroke-width="0.2834" stroke-miterlimit="3.8636" cx="54.219" cy="36.823" r="2.289"/>
	<circle fill="none" stroke="#000000" stroke-width="0.2834" stroke-miterlimit="3.8636" cx="50.458" cy="36.475" r="1.145"/>
	<circle fill="none" stroke="#000000" stroke-width="0.2834" stroke-miterlimit="3.8636" cx="64.108" cy="34.957" r="1.145"/>
	<circle fill="none" stroke="#000000" stroke-width="0.2834" stroke-miterlimit="3.8636" cx="64.116" cy="44.762" r="2.289"/>
	<circle fill="none" stroke="#000000" stroke-width="0.2834" stroke-miterlimit="3.8636" cx="67.936" cy="44.596" r="1.145"/>
	<circle fill="none" stroke="#000000" stroke-width="0.2834" stroke-miterlimit="3.8636" cx="63.636" cy="38.991" r="2.289"/>
	<circle fill="none" stroke="#000000" stroke-width="0.2834" stroke-miterlimit="3.8636" cx="60.768" cy="43.078" r="1.145"/>
	<circle fill="none" stroke="#000000" stroke-width="0.2834" stroke-miterlimit="3.8636" cx="51.917" cy="33.377" r="1.145"/>
	<circle fill="none" stroke="#000000" stroke-width="0.2834" stroke-miterlimit="3.8636" cx="56.271" cy="27.564" r="1.145"/>
	<circle fill="none" stroke="#000000" stroke-width="0.2834" stroke-miterlimit="3.8636" cx="55.137" cy="31.192" r="2.29"/>
	<circle fill="none" stroke="#000000" stroke-width="0.2834" stroke-miterlimit="3.8636" cx="57.365" cy="34.532" r="1.145"/>
	<circle fill="none" stroke="#000000" stroke-width="0.2834" stroke-miterlimit="3.8636" cx="59.613" cy="36.415" r="1.145"/>
	<circle fill="none" stroke="#000000" stroke-width="0.2834" stroke-miterlimit="3.8636" cx="60.841" cy="32.631" r="2.29"/>
	<circle fill="none" stroke="#000000" stroke-width="0.2834" stroke-miterlimit="3.8636" cx="60.294" cy="27.446" r="2.29"/>
	<circle fill="none" stroke="#000000" stroke-width="0.2834" stroke-miterlimit="3.8636" cx="66.66" cy="41.741" r="1.145"/>
	<circle fill="none" stroke="#000000" stroke-width="0.2834" stroke-miterlimit="3.8636" cx="69.212" cy="40.952" r="1.145"/>
	<circle fill="none" stroke="#000000" stroke-width="0.2834" stroke-miterlimit="3.8636" cx="64.332" cy="26.834" r="1.145"/>
	<circle fill="none" stroke="#000000" stroke-width="0.2834" stroke-miterlimit="3.8636" cx="63.785" cy="29.812" r="1.145"/>
	<circle fill="none" stroke="#000000" stroke-width="0.2834" stroke-miterlimit="3.8636" cx="65.426" cy="32.465" r="1.145"/>
	<circle fill="none" stroke="#000000" stroke-width="0.2834" stroke-miterlimit="3.8636" cx="67.005" cy="35.017" r="1.145"/>
	<circle fill="none" stroke="#000000" stroke-width="0.2834" stroke-miterlimit="3.8636" cx="67.674" cy="38.116" r="1.145"/>
	<circle fill="none" stroke="#000000" stroke-width="0.2834" stroke-miterlimit="3.8636" cx="60.768" cy="46.451" r="1.145"/>
</g>
<g>
	<rect x="70.581" y="25.011" fill="none" width="2.634" height="12.771"/>
	<g>
		<rect x="70.58" y="25.011" fill-rule="evenodd" clip-rule="evenodd" fill="none" width="22.678" height="22.677"/>
		<circle fill="none" stroke="#000000" stroke-width="0.2834" stroke-miterlimit="3.8636" cx="75.681" cy="25.108" r="2.29"/>
		<circle fill="none" stroke="#000000" stroke-width="0.2834" stroke-miterlimit="3.8636" cx="89.338" cy="25.444" r="1.145"/>
		<circle fill="none" stroke="#000000" stroke-width="0.2834" stroke-miterlimit="3.8636" cx="89.338" cy="48.121" r="1.145"/>
		<circle fill="none" stroke="#000000" stroke-width="0.2834" stroke-miterlimit="3.8636" cx="75.681" cy="47.786" r="2.29"/>
		<circle fill="none" stroke="#000000" stroke-width="0.2834" stroke-miterlimit="3.8636" cx="70.604" cy="43.611" r="1.145"/>
		<circle fill="none" stroke="#000000" stroke-width="0.2834" stroke-miterlimit="3.8636" cx="93.281" cy="43.611" r="1.145"/>
		<circle fill="none" stroke="#000000" stroke-width="0.2834" stroke-miterlimit="3.8636" cx="70.36" cy="37.508" r="1.145"/>
		<circle fill="none" stroke="#000000" stroke-width="0.2834" stroke-miterlimit="3.8636" cx="70.463" cy="33.561" r="2.289"/>
		<circle fill="none" stroke="#000000" stroke-width="0.2834" stroke-miterlimit="3.8636" cx="93.14" cy="33.561" r="2.29"/>
		<circle fill="none" stroke="#000000" stroke-width="0.2834" stroke-miterlimit="3.8636" cx="93.038" cy="37.508" r="1.145"/>
	</g>
	<circle fill="none" stroke="#000000" stroke-width="0.2834" stroke-miterlimit="3.8636" cx="73.197" cy="29.389" r="2.29"/>
	<circle fill="none" stroke="#000000" stroke-width="0.2834" stroke-miterlimit="3.8636" cx="73.088" cy="40.551" r="2.289"/>
	<path fill="none" stroke="#000000" stroke-width="0.2834" stroke-miterlimit="3.8636" d="M72.87,25.011
		c0,1.265-1.025,2.29-2.29,2.29"/>
	<path fill="none" stroke="#000000" stroke-width="0.2834" stroke-miterlimit="3.8636" d="M70.58,45.399
		c1.265,0,2.29,1.025,2.29,2.289"/>
	<path fill="none" stroke="#000000" stroke-width="0.2834" stroke-miterlimit="3.8636" d="M93.258,27.301
		c-1.265,0-2.289-1.025-2.289-2.29"/>
	<path fill="none" stroke="#000000" stroke-width="0.2834" stroke-miterlimit="3.8636" d="M90.969,47.688
		c0-1.264,1.024-2.289,2.289-2.289"/>
	<circle fill="none" stroke="#000000" stroke-width="0.2834" stroke-miterlimit="3.8636" cx="73.398" cy="44.461" r="1.145"/>
	<circle fill="none" stroke="#000000" stroke-width="0.2834" stroke-miterlimit="3.8636" cx="76.071" cy="43.442" r="1.145"/>
	<circle fill="none" stroke="#000000" stroke-width="0.2834" stroke-miterlimit="3.8636" cx="90.546" cy="29.22" r="2.29"/>
	<circle fill="none" stroke="#000000" stroke-width="0.2834" stroke-miterlimit="3.8636" cx="79.813" cy="44.987" r="2.289"/>
	<circle fill="none" stroke="#000000" stroke-width="0.2834" stroke-miterlimit="3.8636" cx="76.963" cy="40.769" r="1.145"/>
	<circle fill="none" stroke="#000000" stroke-width="0.2834" stroke-miterlimit="3.8636" cx="81.027" cy="40.084" r="2.289"/>
	<circle fill="none" stroke="#000000" stroke-width="0.2834" stroke-miterlimit="3.8636" cx="76.896" cy="36.823" r="2.29"/>
	<circle fill="none" stroke="#000000" stroke-width="0.2834" stroke-miterlimit="3.8636" cx="73.136" cy="36.475" r="1.145"/>
	<circle fill="none" stroke="#000000" stroke-width="0.2834" stroke-miterlimit="3.8636" cx="86.786" cy="34.957" r="1.145"/>
	<circle fill="none" stroke="#000000" stroke-width="0.2834" stroke-miterlimit="3.8636" cx="86.793" cy="44.762" r="2.29"/>
	<circle fill="none" stroke="#000000" stroke-width="0.2834" stroke-miterlimit="3.8636" cx="90.613" cy="44.596" r="1.145"/>
	<circle fill="none" stroke="#000000" stroke-width="0.2834" stroke-miterlimit="3.8636" cx="86.313" cy="38.991" r="2.29"/>
	<circle fill="none" stroke="#000000" stroke-width="0.2834" stroke-miterlimit="3.8636" cx="83.444" cy="43.078" r="1.145"/>
	<circle fill="none" stroke="#000000" stroke-width="0.2834" stroke-miterlimit="3.8636" cx="74.594" cy="33.377" r="1.145"/>
	<circle fill="none" stroke="#000000" stroke-width="0.2834" stroke-miterlimit="3.8636" cx="78.948" cy="27.564" r="1.145"/>
	<circle fill="none" stroke="#000000" stroke-width="0.2834" stroke-miterlimit="3.8636" cx="77.814" cy="31.192" r="2.289"/>
	<circle fill="none" stroke="#000000" stroke-width="0.2834" stroke-miterlimit="3.8636" cx="80.042" cy="34.532" r="1.145"/>
	<circle fill="none" stroke="#000000" stroke-width="0.2834" stroke-miterlimit="3.8636" cx="82.29" cy="36.415" r="1.145"/>
	<circle fill="none" stroke="#000000" stroke-width="0.2834" stroke-miterlimit="3.8636" cx="83.518" cy="32.631" r="2.29"/>
	<circle fill="none" stroke="#000000" stroke-width="0.2834" stroke-miterlimit="3.8636" cx="82.972" cy="27.446" r="2.289"/>
	<circle fill="none" stroke="#000000" stroke-width="0.2834" stroke-miterlimit="3.8636" cx="89.338" cy="41.741" r="1.145"/>
	<circle fill="none" stroke="#000000" stroke-width="0.2834" stroke-miterlimit="3.8636" cx="91.889" cy="40.952" r="1.145"/>
	<circle fill="none" stroke="#000000" stroke-width="0.2834" stroke-miterlimit="3.8636" cx="87.009" cy="26.834" r="1.145"/>
	<circle fill="none" stroke="#000000" stroke-width="0.2834" stroke-miterlimit="3.8636" cx="86.462" cy="29.812" r="1.145"/>
	<circle fill="none" stroke="#000000" stroke-width="0.2834" stroke-miterlimit="3.8636" cx="88.103" cy="32.465" r="1.145"/>
	<circle fill="none" stroke="#000000" stroke-width="0.2834" stroke-miterlimit="3.8636" cx="89.683" cy="35.017" r="1.145"/>
	<circle fill="none" stroke="#000000" stroke-width="0.2834" stroke-miterlimit="3.8636" cx="90.351" cy="38.116" r="1.145"/>
	<circle fill="none" stroke="#000000" stroke-width="0.2834" stroke-miterlimit="3.8636" cx="83.444" cy="46.451" r="1.145"/>
</g>
<g>
	<rect x="2.965" y="5.282" fill="none" width="22.262" height="19.729"/>
	<g>
		<rect x="2.549" y="2.334" fill-rule="evenodd" clip-rule="evenodd" fill="none" width="22.678" height="22.677"/>
		<circle fill="none" stroke="#000000" stroke-width="0.2834" stroke-miterlimit="3.8636" cx="7.649" cy="2.431" r="2.289"/>
		<circle fill="none" stroke="#000000" stroke-width="0.2834" stroke-miterlimit="3.8636" cx="21.306" cy="2.766" r="1.145"/>
		<circle fill="none" stroke="#000000" stroke-width="0.2834" stroke-miterlimit="3.8636" cx="21.306" cy="25.444" r="1.145"/>
		<circle fill="none" stroke="#000000" stroke-width="0.2834" stroke-miterlimit="3.8636" cx="7.649" cy="25.108" r="2.289"/>
		<circle fill="none" stroke="#000000" stroke-width="0.2834" stroke-miterlimit="3.8636" cx="2.572" cy="20.934" r="1.145"/>
		<circle fill="none" stroke="#000000" stroke-width="0.2834" stroke-miterlimit="3.8636" cx="25.249" cy="20.934" r="1.145"/>
		<circle fill="none" stroke="#000000" stroke-width="0.2834" stroke-miterlimit="3.8636" cx="2.329" cy="14.831" r="1.145"/>
		<circle fill="none" stroke="#000000" stroke-width="0.2834" stroke-miterlimit="3.8636" cx="2.431" cy="10.884" r="2.29"/>
		<circle fill="none" stroke="#000000" stroke-width="0.2834" stroke-miterlimit="3.8636" cx="25.108" cy="10.884" r="2.289"/>
		<circle fill="none" stroke="#000000" stroke-width="0.2834" stroke-miterlimit="3.8636" cx="25.006" cy="14.831" r="1.145"/>
	</g>
	<circle fill="none" stroke="#000000" stroke-width="0.2834" stroke-miterlimit="3.8636" cx="5.165" cy="6.711" r="2.289"/>
	<circle fill="none" stroke="#000000" stroke-width="0.2834" stroke-miterlimit="3.8636" cx="5.057" cy="17.874" r="2.289"/>
	<path fill="none" stroke="#000000" stroke-width="0.2834" stroke-miterlimit="3.8636" d="M4.838,2.334
		c0,1.265-1.024,2.29-2.289,2.29"/>
	<path fill="none" stroke="#000000" stroke-width="0.2834" stroke-miterlimit="3.8636" d="M2.549,22.722
		c1.265,0,2.289,1.025,2.289,2.289"/>
	<path fill="none" stroke="#000000" stroke-width="0.2834" stroke-miterlimit="3.8636" d="M25.227,4.624
		c-1.265,0-2.29-1.025-2.29-2.29"/>
	<path fill="none" stroke="#000000" stroke-width="0.2834" stroke-miterlimit="3.8636" d="M22.937,25.011
		c0-1.264,1.025-2.289,2.29-2.289"/>
	<circle fill="none" stroke="#000000" stroke-width="0.2834" stroke-miterlimit="3.8636" cx="5.367" cy="21.784" r="1.145"/>
	<circle fill="none" stroke="#000000" stroke-width="0.2834" stroke-miterlimit="3.8636" cx="8.04" cy="20.765" r="1.145"/>
	<circle fill="none" stroke="#000000" stroke-width="0.2834" stroke-miterlimit="3.8636" cx="22.515" cy="6.543" r="2.289"/>
	<circle fill="none" stroke="#000000" stroke-width="0.2834" stroke-miterlimit="3.8636" cx="11.781" cy="22.309" r="2.29"/>
	<circle fill="none" stroke="#000000" stroke-width="0.2834" stroke-miterlimit="3.8636" cx="8.932" cy="18.092" r="1.145"/>
	<circle fill="none" stroke="#000000" stroke-width="0.2834" stroke-miterlimit="3.8636" cx="12.996" cy="17.407" r="2.289"/>
	<circle fill="none" stroke="#000000" stroke-width="0.2834" stroke-miterlimit="3.8636" cx="8.865" cy="14.146" r="2.29"/>
	<circle fill="none" stroke="#000000" stroke-width="0.2834" stroke-miterlimit="3.8636" cx="5.104" cy="13.798" r="1.145"/>
	<circle fill="none" stroke="#000000" stroke-width="0.2834" stroke-miterlimit="3.8636" cx="18.754" cy="12.279" r="1.145"/>
	<circle fill="none" stroke="#000000" stroke-width="0.2834" stroke-miterlimit="3.8636" cx="18.762" cy="22.085" r="2.289"/>
	<circle fill="none" stroke="#000000" stroke-width="0.2834" stroke-miterlimit="3.8636" cx="22.582" cy="21.919" r="1.145"/>
	<circle fill="none" stroke="#000000" stroke-width="0.2834" stroke-miterlimit="3.8636" cx="18.281" cy="16.314" r="2.289"/>
	<circle fill="none" stroke="#000000" stroke-width="0.2834" stroke-miterlimit="3.8636" cx="15.413" cy="20.4" r="1.145"/>
	<circle fill="none" stroke="#000000" stroke-width="0.2834" stroke-miterlimit="3.8636" cx="6.562" cy="10.7" r="1.145"/>
	<circle fill="none" stroke="#000000" stroke-width="0.2834" stroke-miterlimit="3.8636" cx="10.917" cy="4.887" r="1.145"/>
	<circle fill="none" stroke="#000000" stroke-width="0.2834" stroke-miterlimit="3.8636" cx="9.783" cy="8.515" r="2.29"/>
	<circle fill="none" stroke="#000000" stroke-width="0.2834" stroke-miterlimit="3.8636" cx="12.011" cy="11.854" r="1.145"/>
	<circle fill="none" stroke="#000000" stroke-width="0.2834" stroke-miterlimit="3.8636" cx="14.258" cy="13.737" r="1.145"/>
	<circle fill="none" stroke="#000000" stroke-width="0.2834" stroke-miterlimit="3.8636" cx="15.487" cy="9.954" r="2.29"/>
	<circle fill="none" stroke="#000000" stroke-width="0.2834" stroke-miterlimit="3.8636" cx="14.94" cy="4.769" r="2.29"/>
	<circle fill="none" stroke="#000000" stroke-width="0.2834" stroke-miterlimit="3.8636" cx="21.306" cy="19.064" r="1.145"/>
	<circle fill="none" stroke="#000000" stroke-width="0.2834" stroke-miterlimit="3.8636" cx="23.857" cy="18.274" r="1.145"/>
	<circle fill="none" stroke="#000000" stroke-width="0.2834" stroke-miterlimit="3.8636" cx="18.978" cy="4.158" r="1.145"/>
	<circle fill="none" stroke="#000000" stroke-width="0.2834" stroke-miterlimit="3.8636" cx="18.431" cy="7.135" r="1.145"/>
	<circle fill="none" stroke="#000000" stroke-width="0.2834" stroke-miterlimit="3.8636" cx="20.071" cy="9.788" r="1.145"/>
	<circle fill="none" stroke="#000000" stroke-width="0.2834" stroke-miterlimit="3.8636" cx="21.65" cy="12.34" r="1.145"/>
	<circle fill="none" stroke="#000000" stroke-width="0.2834" stroke-miterlimit="3.8636" cx="22.319" cy="15.438" r="1.145"/>
	<circle fill="none" stroke="#000000" stroke-width="0.2834" stroke-miterlimit="3.8636" cx="15.413" cy="23.773" r="1.145"/>
</g>
<g>
	<rect x="25.227" y="5.282" fill="none" width="22.677" height="19.729"/>
	<g>
		<rect x="25.227" y="2.334" fill-rule="evenodd" clip-rule="evenodd" fill="none" width="22.677" height="22.677"/>
		<circle fill="none" stroke="#000000" stroke-width="0.2834" stroke-miterlimit="3.8636" cx="30.327" cy="2.431" r="2.29"/>
		<circle fill="none" stroke="#000000" stroke-width="0.2834" stroke-miterlimit="3.8636" cx="43.983" cy="2.766" r="1.145"/>
		<circle fill="none" stroke="#000000" stroke-width="0.2834" stroke-miterlimit="3.8636" cx="43.983" cy="25.444" r="1.145"/>
		<circle fill="none" stroke="#000000" stroke-width="0.2834" stroke-miterlimit="3.8636" cx="30.327" cy="25.108" r="2.29"/>
		<circle fill="none" stroke="#000000" stroke-width="0.2834" stroke-miterlimit="3.8636" cx="25.249" cy="20.934" r="1.145"/>
		<circle fill="none" stroke="#000000" stroke-width="0.2834" stroke-miterlimit="3.8636" cx="47.926" cy="20.934" r="1.145"/>
		<circle fill="none" stroke="#000000" stroke-width="0.2834" stroke-miterlimit="3.8636" cx="25.006" cy="14.831" r="1.145"/>
		<circle fill="none" stroke="#000000" stroke-width="0.2834" stroke-miterlimit="3.8636" cx="25.108" cy="10.884" r="2.289"/>
		<circle fill="none" stroke="#000000" stroke-width="0.2834" stroke-miterlimit="3.8636" cx="47.786" cy="10.884" r="2.29"/>
		<circle fill="none" stroke="#000000" stroke-width="0.2834" stroke-miterlimit="3.8636" cx="47.684" cy="14.831" r="1.145"/>
	</g>
	<circle fill="none" stroke="#000000" stroke-width="0.2834" stroke-miterlimit="3.8636" cx="27.842" cy="6.711" r="2.29"/>
	<circle fill="none" stroke="#000000" stroke-width="0.2834" stroke-miterlimit="3.8636" cx="27.734" cy="17.874" r="2.29"/>
	<path fill="none" stroke="#000000" stroke-width="0.2834" stroke-miterlimit="3.8636" d="M27.516,2.334
		c0,1.265-1.025,2.29-2.289,2.29"/>
	<path fill="none" stroke="#000000" stroke-width="0.2834" stroke-miterlimit="3.8636" d="M25.227,22.722
		c1.264,0,2.289,1.025,2.289,2.289"/>
	<path fill="none" stroke="#000000" stroke-width="0.2834" stroke-miterlimit="3.8636" d="M47.903,4.624
		c-1.265,0-2.289-1.025-2.289-2.29"/>
	<path fill="none" stroke="#000000" stroke-width="0.2834" stroke-miterlimit="3.8636" d="M45.614,25.011
		c0-1.264,1.024-2.289,2.289-2.289"/>
	<circle fill="none" stroke="#000000" stroke-width="0.2834" stroke-miterlimit="3.8636" cx="28.044" cy="21.784" r="1.145"/>
	<circle fill="none" stroke="#000000" stroke-width="0.2834" stroke-miterlimit="3.8636" cx="30.717" cy="20.765" r="1.145"/>
	<circle fill="none" stroke="#000000" stroke-width="0.2834" stroke-miterlimit="3.8636" cx="45.192" cy="6.543" r="2.29"/>
	<circle fill="none" stroke="#000000" stroke-width="0.2834" stroke-miterlimit="3.8636" cx="34.458" cy="22.309" r="2.289"/>
	<circle fill="none" stroke="#000000" stroke-width="0.2834" stroke-miterlimit="3.8636" cx="31.608" cy="18.092" r="1.145"/>
	<circle fill="none" stroke="#000000" stroke-width="0.2834" stroke-miterlimit="3.8636" cx="35.673" cy="17.407" r="2.29"/>
	<circle fill="none" stroke="#000000" stroke-width="0.2834" stroke-miterlimit="3.8636" cx="31.542" cy="14.146" r="2.29"/>
	<circle fill="none" stroke="#000000" stroke-width="0.2834" stroke-miterlimit="3.8636" cx="27.781" cy="13.798" r="1.145"/>
	<circle fill="none" stroke="#000000" stroke-width="0.2834" stroke-miterlimit="3.8636" cx="41.432" cy="12.279" r="1.145"/>
	<circle fill="none" stroke="#000000" stroke-width="0.2834" stroke-miterlimit="3.8636" cx="41.439" cy="22.085" r="2.29"/>
	<circle fill="none" stroke="#000000" stroke-width="0.2834" stroke-miterlimit="3.8636" cx="45.259" cy="21.919" r="1.145"/>
	<circle fill="none" stroke="#000000" stroke-width="0.2834" stroke-miterlimit="3.8636" cx="40.958" cy="16.314" r="2.29"/>
	<circle fill="none" stroke="#000000" stroke-width="0.2834" stroke-miterlimit="3.8636" cx="38.09" cy="20.4" r="1.145"/>
	<circle fill="none" stroke="#000000" stroke-width="0.2834" stroke-miterlimit="3.8636" cx="29.239" cy="10.7" r="1.145"/>
	<circle fill="none" stroke="#000000" stroke-width="0.2834" stroke-miterlimit="3.8636" cx="33.594" cy="4.887" r="1.145"/>
	<circle fill="none" stroke="#000000" stroke-width="0.2834" stroke-miterlimit="3.8636" cx="32.46" cy="8.515" r="2.289"/>
	<circle fill="none" stroke="#000000" stroke-width="0.2834" stroke-miterlimit="3.8636" cx="34.688" cy="11.854" r="1.145"/>
	<circle fill="none" stroke="#000000" stroke-width="0.2834" stroke-miterlimit="3.8636" cx="36.936" cy="13.737" r="1.145"/>
	<circle fill="none" stroke="#000000" stroke-width="0.2834" stroke-miterlimit="3.8636" cx="38.164" cy="9.954" r="2.289"/>
	<circle fill="none" stroke="#000000" stroke-width="0.2834" stroke-miterlimit="3.8636" cx="37.617" cy="4.769" r="2.289"/>
	<circle fill="none" stroke="#000000" stroke-width="0.2834" stroke-miterlimit="3.8636" cx="43.983" cy="19.064" r="1.145"/>
	<circle fill="none" stroke="#000000" stroke-width="0.2834" stroke-miterlimit="3.8636" cx="46.535" cy="18.274" r="1.145"/>
	<circle fill="none" stroke="#000000" stroke-width="0.2834" stroke-miterlimit="3.8636" cx="41.655" cy="4.158" r="1.145"/>
	<circle fill="none" stroke="#000000" stroke-width="0.2834" stroke-miterlimit="3.8636" cx="41.108" cy="7.135" r="1.145"/>
	<circle fill="none" stroke="#000000" stroke-width="0.2834" stroke-miterlimit="3.8636" cx="42.748" cy="9.788" r="1.145"/>
	<circle fill="none" stroke="#000000" stroke-width="0.2834" stroke-miterlimit="3.8636" cx="44.328" cy="12.34" r="1.145"/>
	<circle fill="none" stroke="#000000" stroke-width="0.2834" stroke-miterlimit="3.8636" cx="44.996" cy="15.438" r="1.145"/>
	<circle fill="none" stroke="#000000" stroke-width="0.2834" stroke-miterlimit="3.8636" cx="38.09" cy="23.773" r="1.145"/>
</g>
<g>
	<rect x="47.903" y="5.282" fill="none" width="22.678" height="19.729"/>
	<g>
		<rect x="47.903" y="2.334" fill-rule="evenodd" clip-rule="evenodd" fill="none" width="22.678" height="22.677"/>
		<circle fill="none" stroke="#000000" stroke-width="0.2834" stroke-miterlimit="3.8636" cx="53.004" cy="2.431" r="2.289"/>
		<circle fill="none" stroke="#000000" stroke-width="0.2834" stroke-miterlimit="3.8636" cx="66.66" cy="2.766" r="1.145"/>
		<circle fill="none" stroke="#000000" stroke-width="0.2834" stroke-miterlimit="3.8636" cx="66.66" cy="25.444" r="1.145"/>
		<circle fill="none" stroke="#000000" stroke-width="0.2834" stroke-miterlimit="3.8636" cx="53.004" cy="25.108" r="2.289"/>
		<circle fill="none" stroke="#000000" stroke-width="0.2834" stroke-miterlimit="3.8636" cx="47.926" cy="20.934" r="1.145"/>
		<circle fill="none" stroke="#000000" stroke-width="0.2834" stroke-miterlimit="3.8636" cx="70.604" cy="20.934" r="1.145"/>
		<circle fill="none" stroke="#000000" stroke-width="0.2834" stroke-miterlimit="3.8636" cx="47.684" cy="14.831" r="1.145"/>
		<circle fill="none" stroke="#000000" stroke-width="0.2834" stroke-miterlimit="3.8636" cx="47.786" cy="10.884" r="2.29"/>
		<circle fill="none" stroke="#000000" stroke-width="0.2834" stroke-miterlimit="3.8636" cx="70.463" cy="10.884" r="2.289"/>
		<circle fill="none" stroke="#000000" stroke-width="0.2834" stroke-miterlimit="3.8636" cx="70.36" cy="14.831" r="1.145"/>
	</g>
	<circle fill="none" stroke="#000000" stroke-width="0.2834" stroke-miterlimit="3.8636" cx="50.52" cy="6.711" r="2.289"/>
	<circle fill="none" stroke="#000000" stroke-width="0.2834" stroke-miterlimit="3.8636" cx="50.411" cy="17.874" r="2.289"/>
	<path fill="none" stroke="#000000" stroke-width="0.2834" stroke-miterlimit="3.8636" d="M50.192,2.334
		c0,1.265-1.024,2.29-2.289,2.29"/>
	<path fill="none" stroke="#000000" stroke-width="0.2834" stroke-miterlimit="3.8636" d="M47.903,22.722
		c1.265,0,2.289,1.025,2.289,2.289"/>
	<path fill="none" stroke="#000000" stroke-width="0.2834" stroke-miterlimit="3.8636" d="M70.581,4.624
		c-1.265,0-2.29-1.025-2.29-2.29"/>
	<path fill="none" stroke="#000000" stroke-width="0.2834" stroke-miterlimit="3.8636" d="M68.291,25.011
		c0-1.264,1.025-2.289,2.29-2.289"/>
	<circle fill="none" stroke="#000000" stroke-width="0.2834" stroke-miterlimit="3.8636" cx="50.721" cy="21.784" r="1.145"/>
	<circle fill="none" stroke="#000000" stroke-width="0.2834" stroke-miterlimit="3.8636" cx="53.395" cy="20.765" r="1.145"/>
	<circle fill="none" stroke="#000000" stroke-width="0.2834" stroke-miterlimit="3.8636" cx="67.869" cy="6.543" r="2.289"/>
	<circle fill="none" stroke="#000000" stroke-width="0.2834" stroke-miterlimit="3.8636" cx="57.135" cy="22.309" r="2.29"/>
	<circle fill="none" stroke="#000000" stroke-width="0.2834" stroke-miterlimit="3.8636" cx="54.286" cy="18.092" r="1.145"/>
	<circle fill="none" stroke="#000000" stroke-width="0.2834" stroke-miterlimit="3.8636" cx="58.35" cy="17.407" r="2.29"/>
	<circle fill="none" stroke="#000000" stroke-width="0.2834" stroke-miterlimit="3.8636" cx="54.219" cy="14.146" r="2.289"/>
	<circle fill="none" stroke="#000000" stroke-width="0.2834" stroke-miterlimit="3.8636" cx="50.458" cy="13.798" r="1.145"/>
	<circle fill="none" stroke="#000000" stroke-width="0.2834" stroke-miterlimit="3.8636" cx="64.108" cy="12.279" r="1.145"/>
	<circle fill="none" stroke="#000000" stroke-width="0.2834" stroke-miterlimit="3.8636" cx="64.116" cy="22.085" r="2.289"/>
	<circle fill="none" stroke="#000000" stroke-width="0.2834" stroke-miterlimit="3.8636" cx="67.936" cy="21.919" r="1.145"/>
	<circle fill="none" stroke="#000000" stroke-width="0.2834" stroke-miterlimit="3.8636" cx="63.636" cy="16.314" r="2.289"/>
	<circle fill="none" stroke="#000000" stroke-width="0.2834" stroke-miterlimit="3.8636" cx="60.768" cy="20.4" r="1.145"/>
	<circle fill="none" stroke="#000000" stroke-width="0.2834" stroke-miterlimit="3.8636" cx="51.917" cy="10.7" r="1.145"/>
	<circle fill="none" stroke="#000000" stroke-width="0.2834" stroke-miterlimit="3.8636" cx="56.271" cy="4.887" r="1.145"/>
	<circle fill="none" stroke="#000000" stroke-width="0.2834" stroke-miterlimit="3.8636" cx="55.137" cy="8.515" r="2.29"/>
	<circle fill="none" stroke="#000000" stroke-width="0.2834" stroke-miterlimit="3.8636" cx="57.365" cy="11.854" r="1.145"/>
	<circle fill="none" stroke="#000000" stroke-width="0.2834" stroke-miterlimit="3.8636" cx="59.613" cy="13.737" r="1.145"/>
	<circle fill="none" stroke="#000000" stroke-width="0.2834" stroke-miterlimit="3.8636" cx="60.841" cy="9.954" r="2.29"/>
	<circle fill="none" stroke="#000000" stroke-width="0.2834" stroke-miterlimit="3.8636" cx="60.294" cy="4.769" r="2.29"/>
	<circle fill="none" stroke="#000000" stroke-width="0.2834" stroke-miterlimit="3.8636" cx="66.66" cy="19.064" r="1.145"/>
	<circle fill="none" stroke="#000000" stroke-width="0.2834" stroke-miterlimit="3.8636" cx="69.212" cy="18.274" r="1.145"/>
	<circle fill="none" stroke="#000000" stroke-width="0.2834" stroke-miterlimit="3.8636" cx="64.332" cy="4.158" r="1.145"/>
	<circle fill="none" stroke="#000000" stroke-width="0.2834" stroke-miterlimit="3.8636" cx="63.785" cy="7.135" r="1.145"/>
	<circle fill="none" stroke="#000000" stroke-width="0.2834" stroke-miterlimit="3.8636" cx="65.426" cy="9.788" r="1.145"/>
	<circle fill="none" stroke="#000000" stroke-width="0.2834" stroke-miterlimit="3.8636" cx="67.005" cy="12.34" r="1.145"/>
	<circle fill="none" stroke="#000000" stroke-width="0.2834" stroke-miterlimit="3.8636" cx="67.674" cy="15.438" r="1.145"/>
	<circle fill="none" stroke="#000000" stroke-width="0.2834" stroke-miterlimit="3.8636" cx="60.768" cy="23.773" r="1.145"/>
</g>
<g>
	<rect x="70.581" y="5.282" fill="none" width="2.634" height="19.729"/>
	<g>
		<rect x="70.58" y="2.334" fill-rule="evenodd" clip-rule="evenodd" fill="none" width="22.678" height="22.677"/>
		<circle fill="none" stroke="#000000" stroke-width="0.2834" stroke-miterlimit="3.8636" cx="75.681" cy="2.431" r="2.29"/>
		<circle fill="none" stroke="#000000" stroke-width="0.2834" stroke-miterlimit="3.8636" cx="89.338" cy="2.766" r="1.145"/>
		<circle fill="none" stroke="#000000" stroke-width="0.2834" stroke-miterlimit="3.8636" cx="89.338" cy="25.444" r="1.145"/>
		<circle fill="none" stroke="#000000" stroke-width="0.2834" stroke-miterlimit="3.8636" cx="75.681" cy="25.108" r="2.29"/>
		<circle fill="none" stroke="#000000" stroke-width="0.2834" stroke-miterlimit="3.8636" cx="70.604" cy="20.934" r="1.145"/>
		<circle fill="none" stroke="#000000" stroke-width="0.2834" stroke-miterlimit="3.8636" cx="93.281" cy="20.934" r="1.145"/>
		<circle fill="none" stroke="#000000" stroke-width="0.2834" stroke-miterlimit="3.8636" cx="70.36" cy="14.831" r="1.145"/>
		<circle fill="none" stroke="#000000" stroke-width="0.2834" stroke-miterlimit="3.8636" cx="70.463" cy="10.884" r="2.289"/>
		<circle fill="none" stroke="#000000" stroke-width="0.2834" stroke-miterlimit="3.8636" cx="93.14" cy="10.884" r="2.29"/>
		<circle fill="none" stroke="#000000" stroke-width="0.2834" stroke-miterlimit="3.8636" cx="93.038" cy="14.831" r="1.145"/>
	</g>
	<circle fill="none" stroke="#000000" stroke-width="0.2834" stroke-miterlimit="3.8636" cx="73.197" cy="6.711" r="2.29"/>
	<circle fill="none" stroke="#000000" stroke-width="0.2834" stroke-miterlimit="3.8636" cx="73.088" cy="17.874" r="2.289"/>
	<path fill="none" stroke="#000000" stroke-width="0.2834" stroke-miterlimit="3.8636" d="M72.87,2.334
		c0,1.265-1.025,2.29-2.29,2.29"/>
	<path fill="none" stroke="#000000" stroke-width="0.2834" stroke-miterlimit="3.8636" d="M70.58,22.722
		c1.265,0,2.29,1.025,2.29,2.289"/>
	<path fill="none" stroke="#000000" stroke-width="0.2834" stroke-miterlimit="3.8636" d="M93.258,4.624
		c-1.265,0-2.289-1.025-2.289-2.29"/>
	<path fill="none" stroke="#000000" stroke-width="0.2834" stroke-miterlimit="3.8636" d="M90.969,25.011
		c0-1.264,1.024-2.289,2.289-2.289"/>
	<circle fill="none" stroke="#000000" stroke-width="0.2834" stroke-miterlimit="3.8636" cx="73.398" cy="21.784" r="1.145"/>
	<circle fill="none" stroke="#000000" stroke-width="0.2834" stroke-miterlimit="3.8636" cx="76.071" cy="20.765" r="1.145"/>
	<circle fill="none" stroke="#000000" stroke-width="0.2834" stroke-miterlimit="3.8636" cx="90.546" cy="6.543" r="2.29"/>
	<circle fill="none" stroke="#000000" stroke-width="0.2834" stroke-miterlimit="3.8636" cx="79.813" cy="22.309" r="2.289"/>
	<circle fill="none" stroke="#000000" stroke-width="0.2834" stroke-miterlimit="3.8636" cx="76.963" cy="18.092" r="1.145"/>
	<circle fill="none" stroke="#000000" stroke-width="0.2834" stroke-miterlimit="3.8636" cx="81.027" cy="17.407" r="2.289"/>
	<circle fill="none" stroke="#000000" stroke-width="0.2834" stroke-miterlimit="3.8636" cx="76.896" cy="14.146" r="2.29"/>
	<circle fill="none" stroke="#000000" stroke-width="0.2834" stroke-miterlimit="3.8636" cx="73.136" cy="13.798" r="1.145"/>
	<circle fill="none" stroke="#000000" stroke-width="0.2834" stroke-miterlimit="3.8636" cx="86.786" cy="12.279" r="1.145"/>
	<circle fill="none" stroke="#000000" stroke-width="0.2834" stroke-miterlimit="3.8636" cx="86.793" cy="22.085" r="2.29"/>
	<circle fill="none" stroke="#000000" stroke-width="0.2834" stroke-miterlimit="3.8636" cx="90.613" cy="21.919" r="1.145"/>
	<circle fill="none" stroke="#000000" stroke-width="0.2834" stroke-miterlimit="3.8636" cx="86.313" cy="16.314" r="2.29"/>
	<circle fill="none" stroke="#000000" stroke-width="0.2834" stroke-miterlimit="3.8636" cx="83.444" cy="20.4" r="1.145"/>
	<circle fill="none" stroke="#000000" stroke-width="0.2834" stroke-miterlimit="3.8636" cx="74.594" cy="10.7" r="1.145"/>
	<circle fill="none" stroke="#000000" stroke-width="0.2834" stroke-miterlimit="3.8636" cx="78.948" cy="4.887" r="1.145"/>
	<circle fill="none" stroke="#000000" stroke-width="0.2834" stroke-miterlimit="3.8636" cx="77.814" cy="8.515" r="2.289"/>
	<circle fill="none" stroke="#000000" stroke-width="0.2834" stroke-miterlimit="3.8636" cx="80.042" cy="11.854" r="1.145"/>
	<circle fill="none" stroke="#000000" stroke-width="0.2834" stroke-miterlimit="3.8636" cx="82.29" cy="13.737" r="1.145"/>
	<circle fill="none" stroke="#000000" stroke-width="0.2834" stroke-miterlimit="3.8636" cx="83.518" cy="9.954" r="2.29"/>
	<circle fill="none" stroke="#000000" stroke-width="0.2834" stroke-miterlimit="3.8636" cx="82.972" cy="4.769" r="2.289"/>
	<circle fill="none" stroke="#000000" stroke-width="0.2834" stroke-miterlimit="3.8636" cx="89.338" cy="19.064" r="1.145"/>
	<circle fill="none" stroke="#000000" stroke-width="0.2834" stroke-miterlimit="3.8636" cx="91.889" cy="18.274" r="1.145"/>
	<circle fill="none" stroke="#000000" stroke-width="0.2834" stroke-miterlimit="3.8636" cx="87.009" cy="4.158" r="1.145"/>
	<circle fill="none" stroke="#000000" stroke-width="0.2834" stroke-miterlimit="3.8636" cx="86.462" cy="7.135" r="1.145"/>
	<circle fill="none" stroke="#000000" stroke-width="0.2834" stroke-miterlimit="3.8636" cx="88.103" cy="9.788" r="1.145"/>
	<circle fill="none" stroke="#000000" stroke-width="0.2834" stroke-miterlimit="3.8636" cx="89.683" cy="12.34" r="1.145"/>
	<circle fill="none" stroke="#000000" stroke-width="0.2834" stroke-miterlimit="3.8636" cx="90.351" cy="15.438" r="1.145"/>
	<circle fill="none" stroke="#000000" stroke-width="0.2834" stroke-miterlimit="3.8636" cx="83.444" cy="23.773" r="1.145"/>
</g>
</svg>
