<?xml version="1.0" encoding="utf-8"?>
<!-- Generator: Adobe Illustrator 12.0.0, SVG Export Plug-In . SVG Version: 6.00 Build 51448)  -->
<!DOCTYPE svg PUBLIC "-//W3C//DTD SVG 1.1//EN" "http://www.w3.org/Graphics/SVG/1.1/DTD/svg11.dtd" [
	<!ENTITY ns_svg "http://www.w3.org/2000/svg">
	<!ENTITY ns_xlink "http://www.w3.org/1999/xlink">
]>
<svg  version="1.1" id="Layer_1" xmlns="&ns_svg;" xmlns:xlink="&ns_xlink;" width="84.612" height="43.33"
	 viewBox="0 0 84.612 43.33" overflow="visible" enable-background="new 0 0 84.612 43.33" xml:space="preserve">
<rect x="5.704" y="2.833" fill="none" width="70.5" height="37"/>
<g>
	<rect x="5.704" y="32.928" fill="none" width="3.929" height="6.905"/>
	<polyline fill="none" stroke="#000000" stroke-width="0.2834" stroke-miterlimit="3.8636" points="2.688,39.872 1.409,42.96 
		0.131,39.872 	"/>
	<polyline fill="none" stroke="#000000" stroke-width="0.2834" stroke-miterlimit="3.8636" points="8.243,39.872 6.965,42.96 
		5.687,39.872 	"/>
	<polyline fill="none" stroke="#000000" stroke-width="0.2834" stroke-miterlimit="3.8636" points="2.688,34.316 1.409,37.403 
		0.131,34.316 	"/>
	<polyline fill="none" stroke="#000000" stroke-width="0.2834" stroke-miterlimit="3.8636" points="8.243,34.316 6.965,37.403 
		5.687,34.316 	"/>
</g>
<g>
	<rect x="9.633" y="32.928" fill="none" width="10.891" height="6.905"/>
	<polyline fill="none" stroke="#000000" stroke-width="0.2834" stroke-miterlimit="3.8636" points="13.579,39.872 12.3,42.96 
		11.021,39.872 	"/>
	<polyline fill="none" stroke="#000000" stroke-width="0.2834" stroke-miterlimit="3.8636" points="19.135,39.872 17.856,42.96 
		16.577,39.872 	"/>
	<polyline fill="none" stroke="#000000" stroke-width="0.2834" stroke-miterlimit="3.8636" points="13.579,34.316 12.3,37.403 
		11.021,34.316 	"/>
	<polyline fill="none" stroke="#000000" stroke-width="0.2834" stroke-miterlimit="3.8636" points="19.135,34.316 17.856,37.403 
		16.577,34.316 	"/>
</g>
<g>
	<rect x="20.523" y="32.928" fill="none" width="10.892" height="6.905"/>
	<polyline fill="none" stroke="#000000" stroke-width="0.2834" stroke-miterlimit="3.8636" points="24.47,39.872 23.191,42.96 
		21.913,39.872 	"/>
	<polyline fill="none" stroke="#000000" stroke-width="0.2834" stroke-miterlimit="3.8636" points="30.025,39.872 28.747,42.96 
		27.469,39.872 	"/>
	<polyline fill="none" stroke="#000000" stroke-width="0.2834" stroke-miterlimit="3.8636" points="24.47,34.316 23.191,37.403 
		21.913,34.316 	"/>
	<polyline fill="none" stroke="#000000" stroke-width="0.2834" stroke-miterlimit="3.8636" points="30.025,34.316 28.747,37.403 
		27.469,34.316 	"/>
</g>
<g>
	<rect x="31.415" y="32.928" fill="none" width="10.891" height="6.905"/>
	<polyline fill="none" stroke="#000000" stroke-width="0.2834" stroke-miterlimit="3.8636" points="35.36,39.872 34.082,42.96 
		32.804,39.872 	"/>
	<polyline fill="none" stroke="#000000" stroke-width="0.2834" stroke-miterlimit="3.8636" points="40.917,39.872 39.638,42.96 
		38.359,39.872 	"/>
	<polyline fill="none" stroke="#000000" stroke-width="0.2834" stroke-miterlimit="3.8636" points="35.36,34.316 34.082,37.403 
		32.804,34.316 	"/>
	<polyline fill="none" stroke="#000000" stroke-width="0.2834" stroke-miterlimit="3.8636" points="40.917,34.316 39.638,37.403 
		38.359,34.316 	"/>
</g>
<g>
	<rect x="42.306" y="32.928" fill="none" width="10.892" height="6.905"/>
	<polyline fill="none" stroke="#000000" stroke-width="0.2834" stroke-miterlimit="3.8636" points="46.252,39.872 44.974,42.96 
		43.694,39.872 	"/>
	<polyline fill="none" stroke="#000000" stroke-width="0.2834" stroke-miterlimit="3.8636" points="51.808,39.872 50.529,42.96 
		49.251,39.872 	"/>
	<polyline fill="none" stroke="#000000" stroke-width="0.2834" stroke-miterlimit="3.8636" points="46.252,34.316 44.974,37.403 
		43.694,34.316 	"/>
	<polyline fill="none" stroke="#000000" stroke-width="0.2834" stroke-miterlimit="3.8636" points="51.808,34.316 50.529,37.403 
		49.251,34.316 	"/>
</g>
<g>
	<rect x="53.197" y="32.928" fill="none" width="10.891" height="6.905"/>
	<polyline fill="none" stroke="#000000" stroke-width="0.2834" stroke-miterlimit="3.8636" points="57.143,39.872 55.864,42.96 
		54.586,39.872 	"/>
	<polyline fill="none" stroke="#000000" stroke-width="0.2834" stroke-miterlimit="3.8636" points="62.699,39.872 61.42,42.96 
		60.142,39.872 	"/>
	<polyline fill="none" stroke="#000000" stroke-width="0.2834" stroke-miterlimit="3.8636" points="57.143,34.316 55.864,37.403 
		54.586,34.316 	"/>
	<polyline fill="none" stroke="#000000" stroke-width="0.2834" stroke-miterlimit="3.8636" points="62.699,34.316 61.42,37.403 
		60.142,34.316 	"/>
</g>
<g>
	<rect x="64.088" y="32.928" fill="none" width="10.892" height="6.905"/>
	<polyline fill="none" stroke="#000000" stroke-width="0.2834" stroke-miterlimit="3.8636" points="68.034,39.872 66.756,42.96 
		65.477,39.872 	"/>
	<polyline fill="none" stroke="#000000" stroke-width="0.2834" stroke-miterlimit="3.8636" points="73.59,39.872 72.312,42.96 
		71.033,39.872 	"/>
	<polyline fill="none" stroke="#000000" stroke-width="0.2834" stroke-miterlimit="3.8636" points="68.034,34.316 66.756,37.403 
		65.477,34.316 	"/>
	<polyline fill="none" stroke="#000000" stroke-width="0.2834" stroke-miterlimit="3.8636" points="73.59,34.316 72.312,37.403 
		71.033,34.316 	"/>
</g>
<g>
	<rect x="74.979" y="32.928" fill="none" width="1.225" height="6.905"/>
	<polyline fill="none" stroke="#000000" stroke-width="0.2834" stroke-miterlimit="3.8636" points="78.925,39.872 77.646,42.96 
		76.368,39.872 	"/>
	<polyline fill="none" stroke="#000000" stroke-width="0.2834" stroke-miterlimit="3.8636" points="84.481,39.872 83.202,42.96 
		81.924,39.872 	"/>
	<polyline fill="none" stroke="#000000" stroke-width="0.2834" stroke-miterlimit="3.8636" points="78.925,34.316 77.646,37.403 
		76.368,34.316 	"/>
	<polyline fill="none" stroke="#000000" stroke-width="0.2834" stroke-miterlimit="3.8636" points="84.481,34.316 83.202,37.403 
		81.924,34.316 	"/>
</g>
<g>
	<rect x="5.704" y="21.507" fill="none" width="3.929" height="11.421"/>
	<polyline fill="none" stroke="#000000" stroke-width="0.2834" stroke-miterlimit="3.8636" points="2.688,28.452 1.409,31.538 
		0.131,28.452 	"/>
	<polyline fill="none" stroke="#000000" stroke-width="0.2834" stroke-miterlimit="3.8636" points="8.243,28.452 6.965,31.538 
		5.687,28.452 	"/>
	<polyline fill="none" stroke="#000000" stroke-width="0.2834" stroke-miterlimit="3.8636" points="2.688,22.896 1.409,25.983 
		0.131,22.896 	"/>
	<polyline fill="none" stroke="#000000" stroke-width="0.2834" stroke-miterlimit="3.8636" points="8.243,22.896 6.965,25.983 
		5.687,22.896 	"/>
</g>
<g>
	<rect x="9.633" y="21.507" fill="none" width="10.891" height="11.421"/>
	<polyline fill="none" stroke="#000000" stroke-width="0.2834" stroke-miterlimit="3.8636" points="13.579,28.452 12.3,31.538 
		11.021,28.452 	"/>
	<polyline fill="none" stroke="#000000" stroke-width="0.2834" stroke-miterlimit="3.8636" points="19.135,28.452 17.856,31.538 
		16.577,28.452 	"/>
	<polyline fill="none" stroke="#000000" stroke-width="0.2834" stroke-miterlimit="3.8636" points="13.579,22.896 12.3,25.983 
		11.021,22.896 	"/>
	<polyline fill="none" stroke="#000000" stroke-width="0.2834" stroke-miterlimit="3.8636" points="19.135,22.896 17.856,25.983 
		16.577,22.896 	"/>
</g>
<g>
	<rect x="20.523" y="21.507" fill="none" width="10.892" height="11.421"/>
	<polyline fill="none" stroke="#000000" stroke-width="0.2834" stroke-miterlimit="3.8636" points="24.47,28.452 23.191,31.538 
		21.913,28.452 	"/>
	<polyline fill="none" stroke="#000000" stroke-width="0.2834" stroke-miterlimit="3.8636" points="30.025,28.452 28.747,31.538 
		27.469,28.452 	"/>
	<polyline fill="none" stroke="#000000" stroke-width="0.2834" stroke-miterlimit="3.8636" points="24.47,22.896 23.191,25.983 
		21.913,22.896 	"/>
	<polyline fill="none" stroke="#000000" stroke-width="0.2834" stroke-miterlimit="3.8636" points="30.025,22.896 28.747,25.983 
		27.469,22.896 	"/>
</g>
<g>
	<rect x="31.415" y="21.507" fill="none" width="10.891" height="11.421"/>
	<polyline fill="none" stroke="#000000" stroke-width="0.2834" stroke-miterlimit="3.8636" points="35.36,28.452 34.082,31.538 
		32.804,28.452 	"/>
	<polyline fill="none" stroke="#000000" stroke-width="0.2834" stroke-miterlimit="3.8636" points="40.917,28.452 39.638,31.538 
		38.359,28.452 	"/>
	<polyline fill="none" stroke="#000000" stroke-width="0.2834" stroke-miterlimit="3.8636" points="35.36,22.896 34.082,25.983 
		32.804,22.896 	"/>
	<polyline fill="none" stroke="#000000" stroke-width="0.2834" stroke-miterlimit="3.8636" points="40.917,22.896 39.638,25.983 
		38.359,22.896 	"/>
</g>
<g>
	<rect x="42.306" y="21.507" fill="none" width="10.892" height="11.421"/>
	<polyline fill="none" stroke="#000000" stroke-width="0.2834" stroke-miterlimit="3.8636" points="46.252,28.452 44.974,31.538 
		43.694,28.452 	"/>
	<polyline fill="none" stroke="#000000" stroke-width="0.2834" stroke-miterlimit="3.8636" points="51.808,28.452 50.529,31.538 
		49.251,28.452 	"/>
	<polyline fill="none" stroke="#000000" stroke-width="0.2834" stroke-miterlimit="3.8636" points="46.252,22.896 44.974,25.983 
		43.694,22.896 	"/>
	<polyline fill="none" stroke="#000000" stroke-width="0.2834" stroke-miterlimit="3.8636" points="51.808,22.896 50.529,25.983 
		49.251,22.896 	"/>
</g>
<g>
	<rect x="53.197" y="21.507" fill="none" width="10.891" height="11.421"/>
	<polyline fill="none" stroke="#000000" stroke-width="0.2834" stroke-miterlimit="3.8636" points="57.143,28.452 55.864,31.538 
		54.586,28.452 	"/>
	<polyline fill="none" stroke="#000000" stroke-width="0.2834" stroke-miterlimit="3.8636" points="62.699,28.452 61.42,31.538 
		60.142,28.452 	"/>
	<polyline fill="none" stroke="#000000" stroke-width="0.2834" stroke-miterlimit="3.8636" points="57.143,22.896 55.864,25.983 
		54.586,22.896 	"/>
	<polyline fill="none" stroke="#000000" stroke-width="0.2834" stroke-miterlimit="3.8636" points="62.699,22.896 61.42,25.983 
		60.142,22.896 	"/>
</g>
<g>
	<rect x="64.088" y="21.507" fill="none" width="10.892" height="11.421"/>
	<polyline fill="none" stroke="#000000" stroke-width="0.2834" stroke-miterlimit="3.8636" points="68.034,28.452 66.756,31.538 
		65.477,28.452 	"/>
	<polyline fill="none" stroke="#000000" stroke-width="0.2834" stroke-miterlimit="3.8636" points="73.59,28.452 72.312,31.538 
		71.033,28.452 	"/>
	<polyline fill="none" stroke="#000000" stroke-width="0.2834" stroke-miterlimit="3.8636" points="68.034,22.896 66.756,25.983 
		65.477,22.896 	"/>
	<polyline fill="none" stroke="#000000" stroke-width="0.2834" stroke-miterlimit="3.8636" points="73.59,22.896 72.312,25.983 
		71.033,22.896 	"/>
</g>
<g>
	<rect x="74.979" y="21.507" fill="none" width="1.225" height="11.421"/>
	<polyline fill="none" stroke="#000000" stroke-width="0.2834" stroke-miterlimit="3.8636" points="78.925,28.452 77.646,31.538 
		76.368,28.452 	"/>
	<polyline fill="none" stroke="#000000" stroke-width="0.2834" stroke-miterlimit="3.8636" points="84.481,28.452 83.202,31.538 
		81.924,28.452 	"/>
	<polyline fill="none" stroke="#000000" stroke-width="0.2834" stroke-miterlimit="3.8636" points="78.925,22.896 77.646,25.983 
		76.368,22.896 	"/>
	<polyline fill="none" stroke="#000000" stroke-width="0.2834" stroke-miterlimit="3.8636" points="84.481,22.896 83.202,25.983 
		81.924,22.896 	"/>
</g>
<g>
	<rect x="5.704" y="10.086" fill="none" width="3.929" height="11.421"/>
	<polyline fill="none" stroke="#000000" stroke-width="0.2834" stroke-miterlimit="3.8636" points="2.688,17.031 1.409,20.118 
		0.131,17.031 	"/>
	<polyline fill="none" stroke="#000000" stroke-width="0.2834" stroke-miterlimit="3.8636" points="8.243,17.031 6.965,20.118 
		5.687,17.031 	"/>
	<polyline fill="none" stroke="#000000" stroke-width="0.2834" stroke-miterlimit="3.8636" points="2.688,11.475 1.409,14.562 
		0.131,11.475 	"/>
	<polyline fill="none" stroke="#000000" stroke-width="0.2834" stroke-miterlimit="3.8636" points="8.243,11.475 6.965,14.562 
		5.687,11.475 	"/>
</g>
<g>
	<rect x="9.633" y="10.086" fill="none" width="10.891" height="11.421"/>
	<polyline fill="none" stroke="#000000" stroke-width="0.2834" stroke-miterlimit="3.8636" points="13.579,17.031 12.3,20.118 
		11.021,17.031 	"/>
	<polyline fill="none" stroke="#000000" stroke-width="0.2834" stroke-miterlimit="3.8636" points="19.135,17.031 17.856,20.118 
		16.577,17.031 	"/>
	<polyline fill="none" stroke="#000000" stroke-width="0.2834" stroke-miterlimit="3.8636" points="13.579,11.475 12.3,14.562 
		11.021,11.475 	"/>
	<polyline fill="none" stroke="#000000" stroke-width="0.2834" stroke-miterlimit="3.8636" points="19.135,11.475 17.856,14.562 
		16.577,11.475 	"/>
</g>
<g>
	<rect x="20.523" y="10.086" fill="none" width="10.892" height="11.421"/>
	<polyline fill="none" stroke="#000000" stroke-width="0.2834" stroke-miterlimit="3.8636" points="24.47,17.031 23.191,20.118 
		21.913,17.031 	"/>
	<polyline fill="none" stroke="#000000" stroke-width="0.2834" stroke-miterlimit="3.8636" points="30.025,17.031 28.747,20.118 
		27.469,17.031 	"/>
	<polyline fill="none" stroke="#000000" stroke-width="0.2834" stroke-miterlimit="3.8636" points="24.47,11.475 23.191,14.562 
		21.913,11.475 	"/>
	<polyline fill="none" stroke="#000000" stroke-width="0.2834" stroke-miterlimit="3.8636" points="30.025,11.475 28.747,14.562 
		27.469,11.475 	"/>
</g>
<g>
	<rect x="31.415" y="10.086" fill="none" width="10.891" height="11.421"/>
	<polyline fill="none" stroke="#000000" stroke-width="0.2834" stroke-miterlimit="3.8636" points="35.36,17.031 34.082,20.118 
		32.804,17.031 	"/>
	<polyline fill="none" stroke="#000000" stroke-width="0.2834" stroke-miterlimit="3.8636" points="40.917,17.031 39.638,20.118 
		38.359,17.031 	"/>
	<polyline fill="none" stroke="#000000" stroke-width="0.2834" stroke-miterlimit="3.8636" points="35.36,11.475 34.082,14.562 
		32.804,11.475 	"/>
	<polyline fill="none" stroke="#000000" stroke-width="0.2834" stroke-miterlimit="3.8636" points="40.917,11.475 39.638,14.562 
		38.359,11.475 	"/>
</g>
<g>
	<rect x="42.306" y="10.086" fill="none" width="10.892" height="11.421"/>
	<polyline fill="none" stroke="#000000" stroke-width="0.2834" stroke-miterlimit="3.8636" points="46.252,17.031 44.974,20.118 
		43.694,17.031 	"/>
	<polyline fill="none" stroke="#000000" stroke-width="0.2834" stroke-miterlimit="3.8636" points="51.808,17.031 50.529,20.118 
		49.251,17.031 	"/>
	<polyline fill="none" stroke="#000000" stroke-width="0.2834" stroke-miterlimit="3.8636" points="46.252,11.475 44.974,14.562 
		43.694,11.475 	"/>
	<polyline fill="none" stroke="#000000" stroke-width="0.2834" stroke-miterlimit="3.8636" points="51.808,11.475 50.529,14.562 
		49.251,11.475 	"/>
</g>
<g>
	<rect x="53.197" y="10.086" fill="none" width="10.891" height="11.421"/>
	<polyline fill="none" stroke="#000000" stroke-width="0.2834" stroke-miterlimit="3.8636" points="57.143,17.031 55.864,20.118 
		54.586,17.031 	"/>
	<polyline fill="none" stroke="#000000" stroke-width="0.2834" stroke-miterlimit="3.8636" points="62.699,17.031 61.42,20.118 
		60.142,17.031 	"/>
	<polyline fill="none" stroke="#000000" stroke-width="0.2834" stroke-miterlimit="3.8636" points="57.143,11.475 55.864,14.562 
		54.586,11.475 	"/>
	<polyline fill="none" stroke="#000000" stroke-width="0.2834" stroke-miterlimit="3.8636" points="62.699,11.475 61.42,14.562 
		60.142,11.475 	"/>
</g>
<g>
	<rect x="64.088" y="10.086" fill="none" width="10.892" height="11.421"/>
	<polyline fill="none" stroke="#000000" stroke-width="0.2834" stroke-miterlimit="3.8636" points="68.034,17.031 66.756,20.118 
		65.477,17.031 	"/>
	<polyline fill="none" stroke="#000000" stroke-width="0.2834" stroke-miterlimit="3.8636" points="73.59,17.031 72.312,20.118 
		71.033,17.031 	"/>
	<polyline fill="none" stroke="#000000" stroke-width="0.2834" stroke-miterlimit="3.8636" points="68.034,11.475 66.756,14.562 
		65.477,11.475 	"/>
	<polyline fill="none" stroke="#000000" stroke-width="0.2834" stroke-miterlimit="3.8636" points="73.59,11.475 72.312,14.562 
		71.033,11.475 	"/>
</g>
<g>
	<rect x="74.979" y="10.086" fill="none" width="1.225" height="11.421"/>
	<polyline fill="none" stroke="#000000" stroke-width="0.2834" stroke-miterlimit="3.8636" points="78.925,17.031 77.646,20.118 
		76.368,17.031 	"/>
	<polyline fill="none" stroke="#000000" stroke-width="0.2834" stroke-miterlimit="3.8636" points="84.481,17.031 83.202,20.118 
		81.924,17.031 	"/>
	<polyline fill="none" stroke="#000000" stroke-width="0.2834" stroke-miterlimit="3.8636" points="78.925,11.475 77.646,14.562 
		76.368,11.475 	"/>
	<polyline fill="none" stroke="#000000" stroke-width="0.2834" stroke-miterlimit="3.8636" points="84.481,11.475 83.202,14.562 
		81.924,11.475 	"/>
</g>
<g>
	<rect x="5.704" y="2.833" fill="none" width="3.929" height="7.252"/>
	<polyline fill="none" stroke="#000000" stroke-width="0.2834" stroke-miterlimit="3.8636" points="2.688,5.61 1.409,8.697 
		0.131,5.61 	"/>
	<polyline fill="none" stroke="#000000" stroke-width="0.2834" stroke-miterlimit="3.8636" points="8.243,5.61 6.965,8.697 
		5.687,5.61 	"/>
	<polyline fill="none" stroke="#000000" stroke-width="0.2834" stroke-miterlimit="3.8636" points="2.688,0.054 1.409,3.141 
		0.131,0.054 	"/>
	<polyline fill="none" stroke="#000000" stroke-width="0.2834" stroke-miterlimit="3.8636" points="8.243,0.054 6.965,3.141 
		5.687,0.054 	"/>
</g>
<g>
	<rect x="9.633" y="2.833" fill="none" width="10.891" height="7.252"/>
	<polyline fill="none" stroke="#000000" stroke-width="0.2834" stroke-miterlimit="3.8636" points="13.579,5.61 12.3,8.697 
		11.021,5.61 	"/>
	<polyline fill="none" stroke="#000000" stroke-width="0.2834" stroke-miterlimit="3.8636" points="19.135,5.61 17.856,8.697 
		16.577,5.61 	"/>
	<polyline fill="none" stroke="#000000" stroke-width="0.2834" stroke-miterlimit="3.8636" points="13.579,0.054 12.3,3.141 
		11.021,0.054 	"/>
	<polyline fill="none" stroke="#000000" stroke-width="0.2834" stroke-miterlimit="3.8636" points="19.135,0.054 17.856,3.141 
		16.577,0.054 	"/>
</g>
<g>
	<rect x="20.523" y="2.833" fill="none" width="10.892" height="7.252"/>
	<polyline fill="none" stroke="#000000" stroke-width="0.2834" stroke-miterlimit="3.8636" points="24.47,5.61 23.191,8.697 
		21.913,5.61 	"/>
	<polyline fill="none" stroke="#000000" stroke-width="0.2834" stroke-miterlimit="3.8636" points="30.025,5.61 28.747,8.697 
		27.469,5.61 	"/>
	<polyline fill="none" stroke="#000000" stroke-width="0.2834" stroke-miterlimit="3.8636" points="24.47,0.054 23.191,3.141 
		21.913,0.054 	"/>
	<polyline fill="none" stroke="#000000" stroke-width="0.2834" stroke-miterlimit="3.8636" points="30.025,0.054 28.747,3.141 
		27.469,0.054 	"/>
</g>
<g>
	<rect x="31.415" y="2.833" fill="none" width="10.891" height="7.252"/>
	<polyline fill="none" stroke="#000000" stroke-width="0.2834" stroke-miterlimit="3.8636" points="35.36,5.61 34.082,8.697 
		32.804,5.61 	"/>
	<polyline fill="none" stroke="#000000" stroke-width="0.2834" stroke-miterlimit="3.8636" points="40.917,5.61 39.638,8.697 
		38.359,5.61 	"/>
	<polyline fill="none" stroke="#000000" stroke-width="0.2834" stroke-miterlimit="3.8636" points="35.36,0.054 34.082,3.141 
		32.804,0.054 	"/>
	<polyline fill="none" stroke="#000000" stroke-width="0.2834" stroke-miterlimit="3.8636" points="40.917,0.054 39.638,3.141 
		38.359,0.054 	"/>
</g>
<g>
	<rect x="42.306" y="2.833" fill="none" width="10.892" height="7.252"/>
	<polyline fill="none" stroke="#000000" stroke-width="0.2834" stroke-miterlimit="3.8636" points="46.252,5.61 44.974,8.697 
		43.694,5.61 	"/>
	<polyline fill="none" stroke="#000000" stroke-width="0.2834" stroke-miterlimit="3.8636" points="51.808,5.61 50.529,8.697 
		49.251,5.61 	"/>
	<polyline fill="none" stroke="#000000" stroke-width="0.2834" stroke-miterlimit="3.8636" points="46.252,0.054 44.974,3.141 
		43.694,0.054 	"/>
	<polyline fill="none" stroke="#000000" stroke-width="0.2834" stroke-miterlimit="3.8636" points="51.808,0.054 50.529,3.141 
		49.251,0.054 	"/>
</g>
<g>
	<rect x="53.197" y="2.833" fill="none" width="10.891" height="7.252"/>
	<polyline fill="none" stroke="#000000" stroke-width="0.2834" stroke-miterlimit="3.8636" points="57.143,5.61 55.864,8.697 
		54.586,5.61 	"/>
	<polyline fill="none" stroke="#000000" stroke-width="0.2834" stroke-miterlimit="3.8636" points="62.699,5.61 61.42,8.697 
		60.142,5.61 	"/>
	<polyline fill="none" stroke="#000000" stroke-width="0.2834" stroke-miterlimit="3.8636" points="57.143,0.054 55.864,3.141 
		54.586,0.054 	"/>
	<polyline fill="none" stroke="#000000" stroke-width="0.2834" stroke-miterlimit="3.8636" points="62.699,0.054 61.42,3.141 
		60.142,0.054 	"/>
</g>
<g>
	<rect x="64.088" y="2.833" fill="none" width="10.892" height="7.252"/>
	<polyline fill="none" stroke="#000000" stroke-width="0.2834" stroke-miterlimit="3.8636" points="68.034,5.61 66.756,8.697 
		65.477,5.61 	"/>
	<polyline fill="none" stroke="#000000" stroke-width="0.2834" stroke-miterlimit="3.8636" points="73.59,5.61 72.312,8.697 
		71.033,5.61 	"/>
	<polyline fill="none" stroke="#000000" stroke-width="0.2834" stroke-miterlimit="3.8636" points="68.034,0.054 66.756,3.141 
		65.477,0.054 	"/>
	<polyline fill="none" stroke="#000000" stroke-width="0.2834" stroke-miterlimit="3.8636" points="73.59,0.054 72.312,3.141 
		71.033,0.054 	"/>
</g>
<g>
	<rect x="74.979" y="2.833" fill="none" width="1.225" height="7.252"/>
	<polyline fill="none" stroke="#000000" stroke-width="0.2834" stroke-miterlimit="3.8636" points="78.925,5.61 77.646,8.697 
		76.368,5.61 	"/>
	<polyline fill="none" stroke="#000000" stroke-width="0.2834" stroke-miterlimit="3.8636" points="84.481,5.61 83.202,8.697 
		81.924,5.61 	"/>
	<polyline fill="none" stroke="#000000" stroke-width="0.2834" stroke-miterlimit="3.8636" points="78.925,0.054 77.646,3.141 
		76.368,0.054 	"/>
	<polyline fill="none" stroke="#000000" stroke-width="0.2834" stroke-miterlimit="3.8636" points="84.481,0.054 83.202,3.141 
		81.924,0.054 	"/>
</g>
</svg>
