<svg xmlns="http://www.w3.org/2000/svg" xmlns:xlink="http://www.w3.org/1999/xlink" viewBox="0 0 54 43.2"><defs><style>.cls-1,.cls-3{fill:none;}.cls-2{clip-path:url(#clip-path);}.cls-3{stroke:#231f20;stroke-width:0.3px;}.cls-4{fill:url(#Unnamed_Pattern_39);}</style><clipPath id="clip-path"><rect class="cls-1" width="54.13" height="54.13"/></clipPath><pattern id="Unnamed_Pattern_39" data-name="Unnamed Pattern 39" width="54.13" height="54.13" patternTransform="matrix(1, 0, 0, -1, 1329.3, 17705.09)" patternUnits="userSpaceOnUse" viewBox="0 0 54.13 54.13"><rect class="cls-1" width="54.13" height="54.13"/><g class="cls-2"><path class="cls-3" d="M26.79,42V38m0,4h0m14.37,0,0,0m-2.52-4,2.49,4m7.63,0v4M32.35,42l2.52,4.16M20.29,42v4M5.54,42l2.59,4.16m45.8,4.25v-.06m0,0V46.21m-11.74,4.1-2.59-4.1M27.48,50.38V46.21m0,4.16v.06m-13.85-.06L11.1,46.21m35.45,7.91V50.38m-15.88,0,2.27,3.75m-14.27,0V50.38M6.77,54.13,4.43,50.38M7.31.84H0m38.36,0H33.44m0,0H23.27m-4.59,0h4.59m15.09,0h8.19M7.31.84H18.68m35.45,0H50.27m-3.72,0h3.72M54.13,16H0m54.13,3.22H0m54.13,4.2H0m54.13,3.8H0m48.66,4.05H0m48.66,0h5.46M28,34.71H12.48m28.75,0H54m.16,0H54m-12.74,0H28m-15.56,0H0M5.93,38H0m47,0h7.13M47,38H31.93m-26,0h26M10.38,8.63H0m38.81,0H54.13m-43.74,0h16m12.4,0H26.41M48.63,12.4h5.49m-48.74,0H0m5.38,0h7.28m19.59,0H48.63m-36,0h7.47m0,0H32.26M26.79,42H0m26.79,0H41.16m0,0H53.41m.71,0h-.71m.71,4.19H0m27.48,4.17h3.2m-17,0H4.43m26.25,0H46.55m-42.13,0H0m13.63,0h5.05m35.25,0H46.55m-19.07,0h-8.8m35.45,0h-.2"/><path class="cls-3" d="M52.38,4.25l0,0m-14,0V.84m0,3.37v0m0-3.4V.77M23.23.77l0,.06m2,3.37-2-3.37m2,3.41,0,0m-15,0V.84m0-.06V.84m0,3.37v0m0,0H0m54.13,0H52.35m-42.06,0h15m13.07,0H25.29m13.07,0h14m1.38,4.41v3.73m0-3.73v0M12.66,12.4l0,0M10.38,8.63l2.28,3.77M10.38,8.63l0,0m16.05,0v3.73m0-3.73v0m12.4,0,0,0M41.1,12.4l0,0M38.81,8.63l2.3,3.77m7.53,0V16M32.26,12.4,34.5,16M20.13,12.4V16M5.38,12.4,7.69,16M.51,16v3.16M11.43,16l1.89,3.1M28.05,16v3.16M40.7,16l1.92,3.16m3.78.06v4.14M30.65,19.25l2.6,4.13M18.52,19.25v4.14M4,19.25l2.54,4.06m46.7.14v3.74M10.21,23.45l2.29,3.74m14.21-3.74v3.74m11.82-3.74,2.27,3.74m7.85,4.1v-4m0,4h0m-13.85,0-2.53-4m-12.12,4h0m0,0v-4m-15,0,2.52,4M54,34.73h0m-2.15-3.4L54,34.71m-12.74,0V31.3m0,3.41h0M28,34.71l0,0m0,0L26,31.3m-13.5,3.41h0m0,0V31.3M5.93,38V34.73m0,3.27v0m11.25-3.3,2,3.21m12.74-3.21V38M47,38h0m0,0-1.94-3.27M53.41,42h0m0-4v4m-43-4,2.46,4"/><path class="cls-3" d="M33.5.94l-.06-.1M32.94,0l.5.84M7.31.84l.06.1M7.31.84,6.78,0M46.55.84V0M18.68.84V0M47.25,8.56,44.63,4.24M31.57,8.59V4.24M18.75,8.5,16.07,4.24m-11.5,0V8.59M50.23.77l0,.06m2.08,3.37L50.27.84"/></g></pattern></defs><title>Asset 15</title><g id="Layer_2" data-name="Layer 2"><g id="Layer_1-2" data-name="Layer 1"><rect class="cls-4" width="54" height="43.2"/></g></g></svg>