<svg xmlns="http://www.w3.org/2000/svg" xmlns:xlink="http://www.w3.org/1999/xlink" viewBox="0 0 54 43.2"><defs><style>.cls-1,.cls-3{fill:none;}.cls-2{clip-path:url(#clip-path);}.cls-3{stroke:#231f20;stroke-width:0.3px;}.cls-4{fill:url(#Unnamed_Pattern_52);}</style><clipPath id="clip-path"><rect class="cls-1" width="54.13" height="54.13"/></clipPath><pattern id="Unnamed_Pattern_52" data-name="Unnamed Pattern 52" width="54.13" height="54.12" patternTransform="matrix(1, 0, 0, -1, 1329.66, 17665.55)" patternUnits="userSpaceOnUse" viewBox="0 0 54.13 54.13"><rect class="cls-1" width="54.13" height="54.13"/><g class="cls-2"><path class="cls-3" d="M18.5,8.69l0-.06m0,0L15.87,4.24M5.46,8.63,2.87,4.24M5.5,8.69l0-.06M0,4.21H54.13M50.39.84h3.73m-30.8,0H37M0,.84H9m0,0H23.33M37,.84H50.39M0,16H51.82m0,0h2.31M0,19.24H54.13m.06,0h-.06m0,4.2H0m12.49,3.8H0m54.06,0H40.87m13.19,0h.07m-13.26,0H27.49m0,0h-15m39.22,4.05h2.41m-46.64,0H0m34.61,0H20.92m28.63,0h2.16m-44.23,0H20.92m13.69,0H49.55M28,34.71H13m28.81,0H53.91M13,34.71H0m28,0H41.85m12.27,0h-.21M6.62,38H0m32.62,0H47.25M6.62,38H19.31m34.82,0H47.25M32.62,38H19.31M51.23,8.63H47.06m4.17,0h2.9m-43.84,0h8.17m-13,0H0m24.79,0h7.68m6.32,0H32.46m-22.18,0H5.46m33.32,0h8.27m-28.6,0h6.33M12.6,12.4H0m12.6,0H27.1m14,0H54.19m-13.08,0h-14M27.53,42H41M12.72,42H0m41,0H53.78M27.53,42H12.72m41.06,0h.34M8,46.2H0m54.13,0H34.78m0,0H8m22.8,4.17H28.35m-11,0h11m13.67,0H30.77m-26.19,0H0m54.13,0h-9m-3.13,0h3.13m-27.81,0H4.59"/><path class="cls-3" d="M41.85,34.71l0,0M7.49,31.29v0m0,0-2.42-4m15.88,4.06v0m-2.42-4,2.42,4m13.69,0v0m0,0-2.42-4m-19.7,0h0m0,0L10.25,23.5M27.5,27.25h0m0,0L25.25,23.5m15.63,3.75h0m0,0L38.63,23.5M6.44,23.38,3.88,19.31m15.56,4.06-2.56-4.06m16.19,4.06L30.5,19.31m-17.87-.12-1.94-3.12m17,3.13-1.94-3.12m16.19,3.13L40,16.06M5.5,12.44,7.63,16m11.13-3.56L20.88,16m11.56-3.56L34.56,16m-22-3.6,0,0M10.29,8.63l0-.06M12.6,12.4,10.29,8.63m16.84,3.81,0,0M24.75,8.56l0,.06M27.1,12.4,24.79,8.63M41.1,12.4,38.79,8.63m0,0,0-.06M41.1,12.4l0,0m4,37.94h0m0,0,2.28,3.75m3.86-7.87,2.61,4.11m-7.72-8.3,2.65,4.11M53.78,42l-2.42-4m2.42,4,0,0m-8.56-7.31,2,3.24m0,0h0m6.67-3.28v0m-2.24-3.48,0,0m2.2,3.42-2.2-3.42m-2.16,0-2.42-4m2.42,4v0m4.49-4.08h0m0,0L51.81,23.5m2.05-4.29-2-3.2m0,0h0m-4.44,7.36-2.56-4.06m2.5-6.87L49.44,16m1.79-7.37,2.45,3.77m0,0v0m-2.47-3.8,0-.06M9,.84l0,0m0,0,2,3.35M23.33.84l2,3.35m-2-3.35,0,0M37,.84l2,3.35M37,.84l0,0m13.39,0,2,3.35m-2-3.35,0,0M47.06,8.63,44.43,4.24m-14.56,0,2.59,4.39m0,.06,0-.06"/><path class="cls-3" d="M42,6.25H34.72M43,10.38h7.25M3.07,14H0m8.55,3.5H1.3m13.85,3.75H7.89m14.38,4H15m7.89,4h7.25M23.22,33H16m-7.9,3.25h7.25M7.26,2.44H0M14,6.12H6.72m8.2,4.37h7.25m.66,3.63h7.25m7.26,3.5H30.08M42.4,21.37H35.15m14.49,4H42.4m8.8,3.75h2.93M51.25,33H44m-1.8,3.38H34.95M.87,39.87H8.12m28.38,0H29.25M3.4,44.12H0m22.81,0h7.25m20.36,4.06H43.17m-20.5,0H15.42m19.83,4H42.5m-34.38,0h7.25M7.31.75,6.86,0m13.2.75L19.61,0M33.5.75,33,0M47.88.75,47.42,0M4.59,50.38l2.28,3.75M4.58,50.36h0m12.75,0,2.28,3.75m-2.28-3.75h0m13.44,0h0m0,0,2.28,3.75m-19.6-3.79-2.52-4.08m17.44,4.17,0,0m-2.54-4.12,2.54,4.13m13.67,0,0,0m0,0L39.5,46.25M8,46.2l0,0m0,0L5.44,42.06m13.19,0,2.5,4.13m13.66,0-2.53-4.14m2.53,4.14,0,0M12.72,42l-2.41-4m2.41,4,0,0m14.78,0,0,0m0,0-2.41-4m13.44,0L41,42m0,0,0,0M6.62,38l-2-3.24m2,3.24h0m10.69-3.25,2,3.24m0,0h0m13.31,0h0m0,0-2-3.24M13,34.71l-2-3.4m2,3.4,0,0m15,0,0,0m0,0-2-3.4m15.79,3.4-2-3.4"/><path class="cls-3" d="M53.72,2.44h.4M2.52,29.12H0M50.52,14h3.6m-3.9,30.11h3.9M34.45,2.5H27.2"/></g></pattern></defs><title>dolomite-mudstone</title><g id="Layer_2" data-name="Layer 2"><g id="Layer_1-2" data-name="Layer 1"><rect class="cls-4" width="54" height="43.2"/></g></g></svg>