<?xml version="1.0" encoding="utf-8"?>
<!-- Generator: Adobe Illustrator 12.0.0, SVG Export Plug-In . SVG Version: 6.00 Build 51448)  -->
<!DOCTYPE svg PUBLIC "-//W3C//DTD SVG 1.1//EN" "http://www.w3.org/Graphics/SVG/1.1/DTD/svg11.dtd" [
	<!ENTITY ns_svg "http://www.w3.org/2000/svg">
	<!ENTITY ns_xlink "http://www.w3.org/1999/xlink">
]>
<svg  version="1.1" id="Layer_1" xmlns="&ns_svg;" xmlns:xlink="&ns_xlink;" width="89.292" height="35.876"
	 viewBox="5 0.2 35 35.865" overflow="hidden" enable-background="new 0 0 89.292 35.876" xml:space="preserve">
<rect x="8.672" y="5.635" fill="none" width="70.5" height="30"/>
<g>
	<rect x="8.672" y="17.958" fill="none" width="9.186" height="17.676"/>
	
		<line fill="none" stroke="#000000" stroke-width="0.2834" stroke-miterlimit="3.8636" x1="17.858" y1="34.487" x2="0" y2="34.487"/>
	<line fill="none" stroke="#000000" stroke-width="0.2834" stroke-miterlimit="3.8636" x1="17.858" y1="31.51" x2="0" y2="31.51"/>
	
		<line fill="none" stroke="#000000" stroke-width="0.2834" stroke-miterlimit="3.8636" x1="17.858" y1="28.535" x2="0" y2="28.535"/>
	
		<line fill="none" stroke="#000000" stroke-width="0.2834" stroke-miterlimit="3.8636" x1="1.488" y1="31.535" x2="4.512" y2="28.51"/>
	
		<line fill="none" stroke="#000000" stroke-width="0.2834" stroke-miterlimit="3.8636" x1="7.394" y1="31.535" x2="10.417" y2="28.51"/>
	
		<line fill="none" stroke="#000000" stroke-width="0.2834" stroke-miterlimit="3.8636" x1="1.488" y1="34.51" x2="4.512" y2="31.487"/>
	
		<line fill="none" stroke="#000000" stroke-width="0.2834" stroke-miterlimit="3.8636" x1="7.394" y1="34.51" x2="10.417" y2="31.487"/>
	
		<line fill="none" stroke="#000000" stroke-width="0.2834" stroke-miterlimit="3.8636" x1="3.159" y1="35.777" x2="4.448" y2="34.487"/>
	
		<line fill="none" stroke="#000000" stroke-width="0.2834" stroke-miterlimit="3.8636" x1="9.127" y1="35.777" x2="10.417" y2="34.487"/>
	
		<line fill="none" stroke="#000000" stroke-width="0.2834" stroke-miterlimit="3.8636" x1="13.346" y1="34.51" x2="16.37" y2="31.487"/>
	
		<line fill="none" stroke="#000000" stroke-width="0.2834" stroke-miterlimit="3.8636" x1="15.08" y1="35.777" x2="16.37" y2="34.487"/>
	
		<line fill="none" stroke="#000000" stroke-width="0.2834" stroke-miterlimit="3.8636" x1="17.858" y1="25.558" x2="0" y2="25.558"/>
	
		<line fill="none" stroke="#000000" stroke-width="0.2834" stroke-miterlimit="3.8636" x1="17.858" y1="22.582" x2="0" y2="22.582"/>
	
		<line fill="none" stroke="#000000" stroke-width="0.2834" stroke-miterlimit="3.8636" x1="17.858" y1="19.605" x2="0" y2="19.605"/>
	
		<line fill="none" stroke="#000000" stroke-width="0.2834" stroke-miterlimit="3.8636" x1="1.488" y1="22.605" x2="4.512" y2="19.582"/>
	
		<line fill="none" stroke="#000000" stroke-width="0.2834" stroke-miterlimit="3.8636" x1="7.394" y1="22.605" x2="10.417" y2="19.582"/>
	
		<line fill="none" stroke="#000000" stroke-width="0.2834" stroke-miterlimit="3.8636" x1="1.488" y1="25.582" x2="4.512" y2="22.558"/>
	
		<line fill="none" stroke="#000000" stroke-width="0.2834" stroke-miterlimit="3.8636" x1="7.394" y1="25.582" x2="10.417" y2="22.558"/>
	
		<line fill="none" stroke="#000000" stroke-width="0.2834" stroke-miterlimit="3.8636" x1="1.488" y1="19.628" x2="3.159" y2="17.958"/>
	
		<line fill="none" stroke="#000000" stroke-width="0.2834" stroke-miterlimit="3.8636" x1="7.394" y1="19.628" x2="9.064" y2="17.958"/>
	
		<line fill="none" stroke="#000000" stroke-width="0.2834" stroke-miterlimit="3.8636" x1="13.346" y1="25.582" x2="16.37" y2="22.558"/>
	
		<line fill="none" stroke="#000000" stroke-width="0.2834" stroke-miterlimit="3.8636" x1="13.346" y1="19.628" x2="15.017" y2="17.958"/>
	
		<line fill="none" stroke="#000000" stroke-width="0.2834" stroke-miterlimit="3.8636" x1="1.488" y1="28.558" x2="4.512" y2="25.534"/>
	
		<line fill="none" stroke="#000000" stroke-width="0.2834" stroke-miterlimit="3.8636" x1="7.394" y1="28.558" x2="10.417" y2="25.534"/>
	
		<line fill="none" stroke="#000000" stroke-width="0.2834" stroke-miterlimit="3.8636" x1="13.346" y1="31.535" x2="16.37" y2="28.51"/>
	
		<line fill="none" stroke="#000000" stroke-width="0.2834" stroke-miterlimit="3.8636" x1="13.346" y1="28.558" x2="16.37" y2="25.534"/>
	
		<line fill="none" stroke="#000000" stroke-width="0.2834" stroke-miterlimit="3.8636" x1="13.346" y1="22.605" x2="16.37" y2="19.582"/>
</g>
<g>
	<rect x="17.858" y="17.958" fill="none" width="17.858" height="17.676"/>
	
		<line fill="none" stroke="#000000" stroke-width="0.2834" stroke-miterlimit="3.8636" x1="35.716" y1="34.487" x2="17.858" y2="34.487"/>
	
		<line fill="none" stroke="#000000" stroke-width="0.2834" stroke-miterlimit="3.8636" x1="35.716" y1="31.51" x2="17.858" y2="31.51"/>
	
		<line fill="none" stroke="#000000" stroke-width="0.2834" stroke-miterlimit="3.8636" x1="35.716" y1="28.535" x2="17.858" y2="28.535"/>
	
		<line fill="none" stroke="#000000" stroke-width="0.2834" stroke-miterlimit="3.8636" x1="19.346" y1="31.535" x2="22.37" y2="28.51"/>
	
		<line fill="none" stroke="#000000" stroke-width="0.2834" stroke-miterlimit="3.8636" x1="25.251" y1="31.535" x2="28.275" y2="28.51"/>
	
		<line fill="none" stroke="#000000" stroke-width="0.2834" stroke-miterlimit="3.8636" x1="19.346" y1="34.51" x2="22.37" y2="31.487"/>
	
		<line fill="none" stroke="#000000" stroke-width="0.2834" stroke-miterlimit="3.8636" x1="25.251" y1="34.51" x2="28.275" y2="31.487"/>
	
		<line fill="none" stroke="#000000" stroke-width="0.2834" stroke-miterlimit="3.8636" x1="21.017" y1="35.777" x2="22.307" y2="34.487"/>
	
		<line fill="none" stroke="#000000" stroke-width="0.2834" stroke-miterlimit="3.8636" x1="26.986" y1="35.777" x2="28.275" y2="34.487"/>
	
		<line fill="none" stroke="#000000" stroke-width="0.2834" stroke-miterlimit="3.8636" x1="31.205" y1="34.51" x2="34.228" y2="31.487"/>
	
		<line fill="none" stroke="#000000" stroke-width="0.2834" stroke-miterlimit="3.8636" x1="32.938" y1="35.777" x2="34.228" y2="34.487"/>
	
		<line fill="none" stroke="#000000" stroke-width="0.2834" stroke-miterlimit="3.8636" x1="35.716" y1="25.558" x2="17.858" y2="25.558"/>
	
		<line fill="none" stroke="#000000" stroke-width="0.2834" stroke-miterlimit="3.8636" x1="35.716" y1="22.582" x2="17.858" y2="22.582"/>
	
		<line fill="none" stroke="#000000" stroke-width="0.2834" stroke-miterlimit="3.8636" x1="35.716" y1="19.605" x2="17.858" y2="19.605"/>
	
		<line fill="none" stroke="#000000" stroke-width="0.2834" stroke-miterlimit="3.8636" x1="19.346" y1="22.605" x2="22.37" y2="19.582"/>
	
		<line fill="none" stroke="#000000" stroke-width="0.2834" stroke-miterlimit="3.8636" x1="25.251" y1="22.605" x2="28.275" y2="19.582"/>
	
		<line fill="none" stroke="#000000" stroke-width="0.2834" stroke-miterlimit="3.8636" x1="19.346" y1="25.582" x2="22.37" y2="22.558"/>
	
		<line fill="none" stroke="#000000" stroke-width="0.2834" stroke-miterlimit="3.8636" x1="25.251" y1="25.582" x2="28.275" y2="22.558"/>
	
		<line fill="none" stroke="#000000" stroke-width="0.2834" stroke-miterlimit="3.8636" x1="19.346" y1="19.628" x2="21.017" y2="17.958"/>
	
		<line fill="none" stroke="#000000" stroke-width="0.2834" stroke-miterlimit="3.8636" x1="25.251" y1="19.628" x2="26.922" y2="17.958"/>
	
		<line fill="none" stroke="#000000" stroke-width="0.2834" stroke-miterlimit="3.8636" x1="31.205" y1="25.582" x2="34.228" y2="22.558"/>
	
		<line fill="none" stroke="#000000" stroke-width="0.2834" stroke-miterlimit="3.8636" x1="31.205" y1="19.628" x2="32.875" y2="17.958"/>
	
		<line fill="none" stroke="#000000" stroke-width="0.2834" stroke-miterlimit="3.8636" x1="19.346" y1="28.558" x2="22.37" y2="25.534"/>
	
		<line fill="none" stroke="#000000" stroke-width="0.2834" stroke-miterlimit="3.8636" x1="25.251" y1="28.558" x2="28.275" y2="25.534"/>
	
		<line fill="none" stroke="#000000" stroke-width="0.2834" stroke-miterlimit="3.8636" x1="31.205" y1="31.535" x2="34.228" y2="28.51"/>
	
		<line fill="none" stroke="#000000" stroke-width="0.2834" stroke-miterlimit="3.8636" x1="31.205" y1="28.558" x2="34.228" y2="25.534"/>
	
		<line fill="none" stroke="#000000" stroke-width="0.2834" stroke-miterlimit="3.8636" x1="31.205" y1="22.605" x2="34.228" y2="19.582"/>
</g>
<g>
	<rect x="35.716" y="17.958" fill="none" width="17.858" height="17.676"/>
	
		<line fill="none" stroke="#000000" stroke-width="0.2834" stroke-miterlimit="3.8636" x1="53.575" y1="34.487" x2="35.716" y2="34.487"/>
	
		<line fill="none" stroke="#000000" stroke-width="0.2834" stroke-miterlimit="3.8636" x1="53.575" y1="31.51" x2="35.716" y2="31.51"/>
	
		<line fill="none" stroke="#000000" stroke-width="0.2834" stroke-miterlimit="3.8636" x1="53.575" y1="28.535" x2="35.716" y2="28.535"/>
	
		<line fill="none" stroke="#000000" stroke-width="0.2834" stroke-miterlimit="3.8636" x1="37.205" y1="31.535" x2="40.229" y2="28.51"/>
	
		<line fill="none" stroke="#000000" stroke-width="0.2834" stroke-miterlimit="3.8636" x1="43.11" y1="31.535" x2="46.133" y2="28.51"/>
	
		<line fill="none" stroke="#000000" stroke-width="0.2834" stroke-miterlimit="3.8636" x1="37.205" y1="34.51" x2="40.229" y2="31.487"/>
	
		<line fill="none" stroke="#000000" stroke-width="0.2834" stroke-miterlimit="3.8636" x1="43.11" y1="34.51" x2="46.133" y2="31.487"/>
	
		<line fill="none" stroke="#000000" stroke-width="0.2834" stroke-miterlimit="3.8636" x1="38.875" y1="35.777" x2="40.165" y2="34.487"/>
	
		<line fill="none" stroke="#000000" stroke-width="0.2834" stroke-miterlimit="3.8636" x1="44.844" y1="35.777" x2="46.133" y2="34.487"/>
	
		<line fill="none" stroke="#000000" stroke-width="0.2834" stroke-miterlimit="3.8636" x1="49.063" y1="34.51" x2="52.086" y2="31.487"/>
	
		<line fill="none" stroke="#000000" stroke-width="0.2834" stroke-miterlimit="3.8636" x1="50.796" y1="35.777" x2="52.086" y2="34.487"/>
	
		<line fill="none" stroke="#000000" stroke-width="0.2834" stroke-miterlimit="3.8636" x1="53.575" y1="25.558" x2="35.716" y2="25.558"/>
	
		<line fill="none" stroke="#000000" stroke-width="0.2834" stroke-miterlimit="3.8636" x1="53.575" y1="22.582" x2="35.716" y2="22.582"/>
	
		<line fill="none" stroke="#000000" stroke-width="0.2834" stroke-miterlimit="3.8636" x1="53.575" y1="19.605" x2="35.716" y2="19.605"/>
	
		<line fill="none" stroke="#000000" stroke-width="0.2834" stroke-miterlimit="3.8636" x1="37.205" y1="22.605" x2="40.229" y2="19.582"/>
	
		<line fill="none" stroke="#000000" stroke-width="0.2834" stroke-miterlimit="3.8636" x1="43.11" y1="22.605" x2="46.133" y2="19.582"/>
	
		<line fill="none" stroke="#000000" stroke-width="0.2834" stroke-miterlimit="3.8636" x1="37.205" y1="25.582" x2="40.229" y2="22.558"/>
	
		<line fill="none" stroke="#000000" stroke-width="0.2834" stroke-miterlimit="3.8636" x1="43.11" y1="25.582" x2="46.133" y2="22.558"/>
	
		<line fill="none" stroke="#000000" stroke-width="0.2834" stroke-miterlimit="3.8636" x1="37.205" y1="19.628" x2="38.875" y2="17.958"/>
	
		<line fill="none" stroke="#000000" stroke-width="0.2834" stroke-miterlimit="3.8636" x1="43.11" y1="19.628" x2="44.78" y2="17.958"/>
	
		<line fill="none" stroke="#000000" stroke-width="0.2834" stroke-miterlimit="3.8636" x1="49.063" y1="25.582" x2="52.086" y2="22.558"/>
	
		<line fill="none" stroke="#000000" stroke-width="0.2834" stroke-miterlimit="3.8636" x1="49.063" y1="19.628" x2="50.733" y2="17.958"/>
	
		<line fill="none" stroke="#000000" stroke-width="0.2834" stroke-miterlimit="3.8636" x1="37.205" y1="28.558" x2="40.229" y2="25.534"/>
	
		<line fill="none" stroke="#000000" stroke-width="0.2834" stroke-miterlimit="3.8636" x1="43.11" y1="28.558" x2="46.133" y2="25.534"/>
	
		<line fill="none" stroke="#000000" stroke-width="0.2834" stroke-miterlimit="3.8636" x1="49.063" y1="31.535" x2="52.086" y2="28.51"/>
	
		<line fill="none" stroke="#000000" stroke-width="0.2834" stroke-miterlimit="3.8636" x1="49.063" y1="28.558" x2="52.086" y2="25.534"/>
	
		<line fill="none" stroke="#000000" stroke-width="0.2834" stroke-miterlimit="3.8636" x1="49.063" y1="22.605" x2="52.086" y2="19.582"/>
</g>
<g>
	<rect x="53.575" y="17.958" fill="none" width="17.857" height="17.676"/>
	
		<line fill="none" stroke="#000000" stroke-width="0.2834" stroke-miterlimit="3.8636" x1="71.432" y1="34.487" x2="53.575" y2="34.487"/>
	
		<line fill="none" stroke="#000000" stroke-width="0.2834" stroke-miterlimit="3.8636" x1="71.432" y1="31.51" x2="53.575" y2="31.51"/>
	
		<line fill="none" stroke="#000000" stroke-width="0.2834" stroke-miterlimit="3.8636" x1="71.432" y1="28.535" x2="53.575" y2="28.535"/>
	
		<line fill="none" stroke="#000000" stroke-width="0.2834" stroke-miterlimit="3.8636" x1="55.063" y1="31.535" x2="58.086" y2="28.51"/>
	
		<line fill="none" stroke="#000000" stroke-width="0.2834" stroke-miterlimit="3.8636" x1="60.968" y1="31.535" x2="63.992" y2="28.51"/>
	
		<line fill="none" stroke="#000000" stroke-width="0.2834" stroke-miterlimit="3.8636" x1="55.063" y1="34.51" x2="58.086" y2="31.487"/>
	
		<line fill="none" stroke="#000000" stroke-width="0.2834" stroke-miterlimit="3.8636" x1="60.968" y1="34.51" x2="63.992" y2="31.487"/>
	
		<line fill="none" stroke="#000000" stroke-width="0.2834" stroke-miterlimit="3.8636" x1="56.733" y1="35.777" x2="58.023" y2="34.487"/>
	
		<line fill="none" stroke="#000000" stroke-width="0.2834" stroke-miterlimit="3.8636" x1="62.702" y1="35.777" x2="63.992" y2="34.487"/>
	
		<line fill="none" stroke="#000000" stroke-width="0.2834" stroke-miterlimit="3.8636" x1="66.92" y1="34.51" x2="69.944" y2="31.487"/>
	
		<line fill="none" stroke="#000000" stroke-width="0.2834" stroke-miterlimit="3.8636" x1="68.655" y1="35.777" x2="69.944" y2="34.487"/>
	
		<line fill="none" stroke="#000000" stroke-width="0.2834" stroke-miterlimit="3.8636" x1="71.432" y1="25.558" x2="53.575" y2="25.558"/>
	
		<line fill="none" stroke="#000000" stroke-width="0.2834" stroke-miterlimit="3.8636" x1="71.432" y1="22.582" x2="53.575" y2="22.582"/>
	
		<line fill="none" stroke="#000000" stroke-width="0.2834" stroke-miterlimit="3.8636" x1="71.432" y1="19.605" x2="53.575" y2="19.605"/>
	
		<line fill="none" stroke="#000000" stroke-width="0.2834" stroke-miterlimit="3.8636" x1="55.063" y1="22.605" x2="58.086" y2="19.582"/>
	
		<line fill="none" stroke="#000000" stroke-width="0.2834" stroke-miterlimit="3.8636" x1="60.968" y1="22.605" x2="63.992" y2="19.582"/>
	
		<line fill="none" stroke="#000000" stroke-width="0.2834" stroke-miterlimit="3.8636" x1="55.063" y1="25.582" x2="58.086" y2="22.558"/>
	
		<line fill="none" stroke="#000000" stroke-width="0.2834" stroke-miterlimit="3.8636" x1="60.968" y1="25.582" x2="63.992" y2="22.558"/>
	
		<line fill="none" stroke="#000000" stroke-width="0.2834" stroke-miterlimit="3.8636" x1="55.063" y1="19.628" x2="56.733" y2="17.958"/>
	
		<line fill="none" stroke="#000000" stroke-width="0.2834" stroke-miterlimit="3.8636" x1="60.968" y1="19.628" x2="62.639" y2="17.958"/>
	
		<line fill="none" stroke="#000000" stroke-width="0.2834" stroke-miterlimit="3.8636" x1="66.92" y1="25.582" x2="69.944" y2="22.558"/>
	
		<line fill="none" stroke="#000000" stroke-width="0.2834" stroke-miterlimit="3.8636" x1="66.92" y1="19.628" x2="68.591" y2="17.958"/>
	
		<line fill="none" stroke="#000000" stroke-width="0.2834" stroke-miterlimit="3.8636" x1="55.063" y1="28.558" x2="58.086" y2="25.534"/>
	
		<line fill="none" stroke="#000000" stroke-width="0.2834" stroke-miterlimit="3.8636" x1="60.968" y1="28.558" x2="63.992" y2="25.534"/>
	
		<line fill="none" stroke="#000000" stroke-width="0.2834" stroke-miterlimit="3.8636" x1="66.92" y1="31.535" x2="69.944" y2="28.51"/>
	
		<line fill="none" stroke="#000000" stroke-width="0.2834" stroke-miterlimit="3.8636" x1="66.92" y1="28.558" x2="69.944" y2="25.534"/>
	
		<line fill="none" stroke="#000000" stroke-width="0.2834" stroke-miterlimit="3.8636" x1="66.92" y1="22.605" x2="69.944" y2="19.582"/>
</g>
<g>
	<rect x="71.433" y="17.958" fill="none" width="7.739" height="17.676"/>
	
		<line fill="none" stroke="#000000" stroke-width="0.2834" stroke-miterlimit="3.8636" x1="89.292" y1="34.487" x2="71.432" y2="34.487"/>
	
		<line fill="none" stroke="#000000" stroke-width="0.2834" stroke-miterlimit="3.8636" x1="89.292" y1="31.51" x2="71.432" y2="31.51"/>
	
		<line fill="none" stroke="#000000" stroke-width="0.2834" stroke-miterlimit="3.8636" x1="89.292" y1="28.535" x2="71.432" y2="28.535"/>
	
		<line fill="none" stroke="#000000" stroke-width="0.2834" stroke-miterlimit="3.8636" x1="72.92" y1="31.535" x2="75.945" y2="28.51"/>
	
		<line fill="none" stroke="#000000" stroke-width="0.2834" stroke-miterlimit="3.8636" x1="78.827" y1="31.535" x2="81.85" y2="28.51"/>
	
		<line fill="none" stroke="#000000" stroke-width="0.2834" stroke-miterlimit="3.8636" x1="72.92" y1="34.51" x2="75.945" y2="31.487"/>
	
		<line fill="none" stroke="#000000" stroke-width="0.2834" stroke-miterlimit="3.8636" x1="78.827" y1="34.51" x2="81.85" y2="31.487"/>
	
		<line fill="none" stroke="#000000" stroke-width="0.2834" stroke-miterlimit="3.8636" x1="74.591" y1="35.777" x2="75.881" y2="34.487"/>
	
		<line fill="none" stroke="#000000" stroke-width="0.2834" stroke-miterlimit="3.8636" x1="80.56" y1="35.777" x2="81.85" y2="34.487"/>
	
		<line fill="none" stroke="#000000" stroke-width="0.2834" stroke-miterlimit="3.8636" x1="84.779" y1="34.51" x2="87.803" y2="31.487"/>
	
		<line fill="none" stroke="#000000" stroke-width="0.2834" stroke-miterlimit="3.8636" x1="86.513" y1="35.777" x2="87.803" y2="34.487"/>
	
		<line fill="none" stroke="#000000" stroke-width="0.2834" stroke-miterlimit="3.8636" x1="89.292" y1="25.558" x2="71.432" y2="25.558"/>
	
		<line fill="none" stroke="#000000" stroke-width="0.2834" stroke-miterlimit="3.8636" x1="89.292" y1="22.582" x2="71.432" y2="22.582"/>
	
		<line fill="none" stroke="#000000" stroke-width="0.2834" stroke-miterlimit="3.8636" x1="89.292" y1="19.605" x2="71.432" y2="19.605"/>
	
		<line fill="none" stroke="#000000" stroke-width="0.2834" stroke-miterlimit="3.8636" x1="72.92" y1="22.605" x2="75.945" y2="19.582"/>
	
		<line fill="none" stroke="#000000" stroke-width="0.2834" stroke-miterlimit="3.8636" x1="78.827" y1="22.605" x2="81.85" y2="19.582"/>
	
		<line fill="none" stroke="#000000" stroke-width="0.2834" stroke-miterlimit="3.8636" x1="72.92" y1="25.582" x2="75.945" y2="22.558"/>
	
		<line fill="none" stroke="#000000" stroke-width="0.2834" stroke-miterlimit="3.8636" x1="78.827" y1="25.582" x2="81.85" y2="22.558"/>
	
		<line fill="none" stroke="#000000" stroke-width="0.2834" stroke-miterlimit="3.8636" x1="72.92" y1="19.628" x2="74.591" y2="17.958"/>
	
		<line fill="none" stroke="#000000" stroke-width="0.2834" stroke-miterlimit="3.8636" x1="78.827" y1="19.628" x2="80.497" y2="17.958"/>
	
		<line fill="none" stroke="#000000" stroke-width="0.2834" stroke-miterlimit="3.8636" x1="84.779" y1="25.582" x2="87.803" y2="22.558"/>
	
		<line fill="none" stroke="#000000" stroke-width="0.2834" stroke-miterlimit="3.8636" x1="84.779" y1="19.628" x2="86.45" y2="17.958"/>
	
		<line fill="none" stroke="#000000" stroke-width="0.2834" stroke-miterlimit="3.8636" x1="72.92" y1="28.558" x2="75.945" y2="25.534"/>
	
		<line fill="none" stroke="#000000" stroke-width="0.2834" stroke-miterlimit="3.8636" x1="78.827" y1="28.558" x2="81.85" y2="25.534"/>
	
		<line fill="none" stroke="#000000" stroke-width="0.2834" stroke-miterlimit="3.8636" x1="84.779" y1="31.535" x2="87.803" y2="28.51"/>
	
		<line fill="none" stroke="#000000" stroke-width="0.2834" stroke-miterlimit="3.8636" x1="84.779" y1="28.558" x2="87.803" y2="25.534"/>
	
		<line fill="none" stroke="#000000" stroke-width="0.2834" stroke-miterlimit="3.8636" x1="84.779" y1="22.605" x2="87.803" y2="19.582"/>
</g>
<g>
	<rect x="8.672" y="5.635" fill="none" width="9.186" height="12.324"/>
	
		<line fill="none" stroke="#000000" stroke-width="0.2834" stroke-miterlimit="3.8636" x1="17.858" y1="16.628" x2="0" y2="16.628"/>
	
		<line fill="none" stroke="#000000" stroke-width="0.2834" stroke-miterlimit="3.8636" x1="17.858" y1="13.652" x2="0" y2="13.652"/>
	
		<line fill="none" stroke="#000000" stroke-width="0.2834" stroke-miterlimit="3.8636" x1="17.858" y1="10.676" x2="0" y2="10.676"/>
	
		<line fill="none" stroke="#000000" stroke-width="0.2834" stroke-miterlimit="3.8636" x1="1.488" y1="13.676" x2="4.512" y2="10.652"/>
	
		<line fill="none" stroke="#000000" stroke-width="0.2834" stroke-miterlimit="3.8636" x1="7.394" y1="13.676" x2="10.417" y2="10.652"/>
	
		<line fill="none" stroke="#000000" stroke-width="0.2834" stroke-miterlimit="3.8636" x1="1.488" y1="16.652" x2="4.512" y2="13.628"/>
	
		<line fill="none" stroke="#000000" stroke-width="0.2834" stroke-miterlimit="3.8636" x1="7.394" y1="16.652" x2="10.417" y2="13.628"/>
	
		<line fill="none" stroke="#000000" stroke-width="0.2834" stroke-miterlimit="3.8636" x1="3.159" y1="17.918" x2="4.448" y2="16.628"/>
	
		<line fill="none" stroke="#000000" stroke-width="0.2834" stroke-miterlimit="3.8636" x1="9.127" y1="17.918" x2="10.417" y2="16.628"/>
	
		<line fill="none" stroke="#000000" stroke-width="0.2834" stroke-miterlimit="3.8636" x1="13.346" y1="16.652" x2="16.37" y2="13.628"/>
	
		<line fill="none" stroke="#000000" stroke-width="0.2834" stroke-miterlimit="3.8636" x1="15.08" y1="17.918" x2="16.37" y2="16.628"/>
	<line fill="none" stroke="#000000" stroke-width="0.2834" stroke-miterlimit="3.8636" x1="17.858" y1="7.7" x2="0" y2="7.7"/>
	<line fill="none" stroke="#000000" stroke-width="0.2834" stroke-miterlimit="3.8636" x1="17.858" y1="4.723" x2="0" y2="4.723"/>
	<line fill="none" stroke="#000000" stroke-width="0.2834" stroke-miterlimit="3.8636" x1="17.858" y1="1.747" x2="0" y2="1.747"/>
	
		<line fill="none" stroke="#000000" stroke-width="0.2834" stroke-miterlimit="3.8636" x1="1.488" y1="4.747" x2="4.512" y2="1.723"/>
	
		<line fill="none" stroke="#000000" stroke-width="0.2834" stroke-miterlimit="3.8636" x1="7.394" y1="4.747" x2="10.417" y2="1.723"/>
	
		<line fill="none" stroke="#000000" stroke-width="0.2834" stroke-miterlimit="3.8636" x1="1.488" y1="7.723" x2="4.512" y2="4.699"/>
	
		<line fill="none" stroke="#000000" stroke-width="0.2834" stroke-miterlimit="3.8636" x1="7.394" y1="7.723" x2="10.417" y2="4.699"/>
	<line fill="none" stroke="#000000" stroke-width="0.2834" stroke-miterlimit="3.8636" x1="1.488" y1="1.771" x2="3.159" y2="0.1"/>
	<line fill="none" stroke="#000000" stroke-width="0.2834" stroke-miterlimit="3.8636" x1="7.394" y1="1.771" x2="9.064" y2="0.1"/>
	
		<line fill="none" stroke="#000000" stroke-width="0.2834" stroke-miterlimit="3.8636" x1="13.346" y1="7.723" x2="16.37" y2="4.699"/>
	
		<line fill="none" stroke="#000000" stroke-width="0.2834" stroke-miterlimit="3.8636" x1="13.346" y1="1.771" x2="15.017" y2="0.1"/>
	
		<line fill="none" stroke="#000000" stroke-width="0.2834" stroke-miterlimit="3.8636" x1="1.488" y1="10.7" x2="4.512" y2="7.676"/>
	
		<line fill="none" stroke="#000000" stroke-width="0.2834" stroke-miterlimit="3.8636" x1="7.394" y1="10.7" x2="10.417" y2="7.676"/>
	
		<line fill="none" stroke="#000000" stroke-width="0.2834" stroke-miterlimit="3.8636" x1="13.346" y1="13.676" x2="16.37" y2="10.652"/>
	
		<line fill="none" stroke="#000000" stroke-width="0.2834" stroke-miterlimit="3.8636" x1="13.346" y1="10.7" x2="16.37" y2="7.676"/>
	
		<line fill="none" stroke="#000000" stroke-width="0.2834" stroke-miterlimit="3.8636" x1="13.346" y1="4.747" x2="16.37" y2="1.723"/>
</g>
<g>
	<rect x="17.858" y="5.635" fill="none" width="17.858" height="12.324"/>
	
		<line fill="none" stroke="#000000" stroke-width="0.2834" stroke-miterlimit="3.8636" x1="35.716" y1="16.628" x2="17.858" y2="16.628"/>
	
		<line fill="none" stroke="#000000" stroke-width="0.2834" stroke-miterlimit="3.8636" x1="35.716" y1="13.652" x2="17.858" y2="13.652"/>
	
		<line fill="none" stroke="#000000" stroke-width="0.2834" stroke-miterlimit="3.8636" x1="35.716" y1="10.676" x2="17.858" y2="10.676"/>
	
		<line fill="none" stroke="#000000" stroke-width="0.2834" stroke-miterlimit="3.8636" x1="19.346" y1="13.676" x2="22.37" y2="10.652"/>
	
		<line fill="none" stroke="#000000" stroke-width="0.2834" stroke-miterlimit="3.8636" x1="25.251" y1="13.676" x2="28.275" y2="10.652"/>
	
		<line fill="none" stroke="#000000" stroke-width="0.2834" stroke-miterlimit="3.8636" x1="19.346" y1="16.652" x2="22.37" y2="13.628"/>
	
		<line fill="none" stroke="#000000" stroke-width="0.2834" stroke-miterlimit="3.8636" x1="25.251" y1="16.652" x2="28.275" y2="13.628"/>
	
		<line fill="none" stroke="#000000" stroke-width="0.2834" stroke-miterlimit="3.8636" x1="21.017" y1="17.918" x2="22.307" y2="16.628"/>
	
		<line fill="none" stroke="#000000" stroke-width="0.2834" stroke-miterlimit="3.8636" x1="26.986" y1="17.918" x2="28.275" y2="16.628"/>
	
		<line fill="none" stroke="#000000" stroke-width="0.2834" stroke-miterlimit="3.8636" x1="31.205" y1="16.652" x2="34.228" y2="13.628"/>
	
		<line fill="none" stroke="#000000" stroke-width="0.2834" stroke-miterlimit="3.8636" x1="32.938" y1="17.918" x2="34.228" y2="16.628"/>
	<line fill="none" stroke="#000000" stroke-width="0.2834" stroke-miterlimit="3.8636" x1="35.716" y1="7.7" x2="17.858" y2="7.7"/>
	
		<line fill="none" stroke="#000000" stroke-width="0.2834" stroke-miterlimit="3.8636" x1="35.716" y1="4.723" x2="17.858" y2="4.723"/>
	
		<line fill="none" stroke="#000000" stroke-width="0.2834" stroke-miterlimit="3.8636" x1="35.716" y1="1.747" x2="17.858" y2="1.747"/>
	
		<line fill="none" stroke="#000000" stroke-width="0.2834" stroke-miterlimit="3.8636" x1="19.346" y1="4.747" x2="22.37" y2="1.723"/>
	
		<line fill="none" stroke="#000000" stroke-width="0.2834" stroke-miterlimit="3.8636" x1="25.251" y1="4.747" x2="28.275" y2="1.723"/>
	
		<line fill="none" stroke="#000000" stroke-width="0.2834" stroke-miterlimit="3.8636" x1="19.346" y1="7.723" x2="22.37" y2="4.699"/>
	
		<line fill="none" stroke="#000000" stroke-width="0.2834" stroke-miterlimit="3.8636" x1="25.251" y1="7.723" x2="28.275" y2="4.699"/>
	
		<line fill="none" stroke="#000000" stroke-width="0.2834" stroke-miterlimit="3.8636" x1="19.346" y1="1.771" x2="21.017" y2="0.1"/>
	
		<line fill="none" stroke="#000000" stroke-width="0.2834" stroke-miterlimit="3.8636" x1="25.251" y1="1.771" x2="26.922" y2="0.1"/>
	
		<line fill="none" stroke="#000000" stroke-width="0.2834" stroke-miterlimit="3.8636" x1="31.205" y1="7.723" x2="34.228" y2="4.699"/>
	
		<line fill="none" stroke="#000000" stroke-width="0.2834" stroke-miterlimit="3.8636" x1="31.205" y1="1.771" x2="32.875" y2="0.1"/>
	
		<line fill="none" stroke="#000000" stroke-width="0.2834" stroke-miterlimit="3.8636" x1="19.346" y1="10.7" x2="22.37" y2="7.676"/>
	
		<line fill="none" stroke="#000000" stroke-width="0.2834" stroke-miterlimit="3.8636" x1="25.251" y1="10.7" x2="28.275" y2="7.676"/>
	
		<line fill="none" stroke="#000000" stroke-width="0.2834" stroke-miterlimit="3.8636" x1="31.205" y1="13.676" x2="34.228" y2="10.652"/>
	
		<line fill="none" stroke="#000000" stroke-width="0.2834" stroke-miterlimit="3.8636" x1="31.205" y1="10.7" x2="34.228" y2="7.676"/>
	
		<line fill="none" stroke="#000000" stroke-width="0.2834" stroke-miterlimit="3.8636" x1="31.205" y1="4.747" x2="34.228" y2="1.723"/>
</g>
<g>
	<rect x="35.716" y="5.635" fill="none" width="17.858" height="12.324"/>
	
		<line fill="none" stroke="#000000" stroke-width="0.2834" stroke-miterlimit="3.8636" x1="53.575" y1="16.628" x2="35.716" y2="16.628"/>
	
		<line fill="none" stroke="#000000" stroke-width="0.2834" stroke-miterlimit="3.8636" x1="53.575" y1="13.652" x2="35.716" y2="13.652"/>
	
		<line fill="none" stroke="#000000" stroke-width="0.2834" stroke-miterlimit="3.8636" x1="53.575" y1="10.676" x2="35.716" y2="10.676"/>
	
		<line fill="none" stroke="#000000" stroke-width="0.2834" stroke-miterlimit="3.8636" x1="37.205" y1="13.676" x2="40.229" y2="10.652"/>
	
		<line fill="none" stroke="#000000" stroke-width="0.2834" stroke-miterlimit="3.8636" x1="43.11" y1="13.676" x2="46.133" y2="10.652"/>
	
		<line fill="none" stroke="#000000" stroke-width="0.2834" stroke-miterlimit="3.8636" x1="37.205" y1="16.652" x2="40.229" y2="13.628"/>
	
		<line fill="none" stroke="#000000" stroke-width="0.2834" stroke-miterlimit="3.8636" x1="43.11" y1="16.652" x2="46.133" y2="13.628"/>
	
		<line fill="none" stroke="#000000" stroke-width="0.2834" stroke-miterlimit="3.8636" x1="38.875" y1="17.918" x2="40.165" y2="16.628"/>
	
		<line fill="none" stroke="#000000" stroke-width="0.2834" stroke-miterlimit="3.8636" x1="44.844" y1="17.918" x2="46.133" y2="16.628"/>
	
		<line fill="none" stroke="#000000" stroke-width="0.2834" stroke-miterlimit="3.8636" x1="49.063" y1="16.652" x2="52.086" y2="13.628"/>
	
		<line fill="none" stroke="#000000" stroke-width="0.2834" stroke-miterlimit="3.8636" x1="50.796" y1="17.918" x2="52.086" y2="16.628"/>
	<line fill="none" stroke="#000000" stroke-width="0.2834" stroke-miterlimit="3.8636" x1="53.575" y1="7.7" x2="35.716" y2="7.7"/>
	
		<line fill="none" stroke="#000000" stroke-width="0.2834" stroke-miterlimit="3.8636" x1="53.575" y1="4.723" x2="35.716" y2="4.723"/>
	
		<line fill="none" stroke="#000000" stroke-width="0.2834" stroke-miterlimit="3.8636" x1="53.575" y1="1.747" x2="35.716" y2="1.747"/>
	
		<line fill="none" stroke="#000000" stroke-width="0.2834" stroke-miterlimit="3.8636" x1="37.205" y1="4.747" x2="40.229" y2="1.723"/>
	
		<line fill="none" stroke="#000000" stroke-width="0.2834" stroke-miterlimit="3.8636" x1="43.11" y1="4.747" x2="46.133" y2="1.723"/>
	
		<line fill="none" stroke="#000000" stroke-width="0.2834" stroke-miterlimit="3.8636" x1="37.205" y1="7.723" x2="40.229" y2="4.699"/>
	
		<line fill="none" stroke="#000000" stroke-width="0.2834" stroke-miterlimit="3.8636" x1="43.11" y1="7.723" x2="46.133" y2="4.699"/>
	
		<line fill="none" stroke="#000000" stroke-width="0.2834" stroke-miterlimit="3.8636" x1="37.205" y1="1.771" x2="38.875" y2="0.1"/>
	<line fill="none" stroke="#000000" stroke-width="0.2834" stroke-miterlimit="3.8636" x1="43.11" y1="1.771" x2="44.78" y2="0.1"/>
	
		<line fill="none" stroke="#000000" stroke-width="0.2834" stroke-miterlimit="3.8636" x1="49.063" y1="7.723" x2="52.086" y2="4.699"/>
	
		<line fill="none" stroke="#000000" stroke-width="0.2834" stroke-miterlimit="3.8636" x1="49.063" y1="1.771" x2="50.733" y2="0.1"/>
	
		<line fill="none" stroke="#000000" stroke-width="0.2834" stroke-miterlimit="3.8636" x1="37.205" y1="10.7" x2="40.229" y2="7.676"/>
	
		<line fill="none" stroke="#000000" stroke-width="0.2834" stroke-miterlimit="3.8636" x1="43.11" y1="10.7" x2="46.133" y2="7.676"/>
	
		<line fill="none" stroke="#000000" stroke-width="0.2834" stroke-miterlimit="3.8636" x1="49.063" y1="13.676" x2="52.086" y2="10.652"/>
	
		<line fill="none" stroke="#000000" stroke-width="0.2834" stroke-miterlimit="3.8636" x1="49.063" y1="10.7" x2="52.086" y2="7.676"/>
	
		<line fill="none" stroke="#000000" stroke-width="0.2834" stroke-miterlimit="3.8636" x1="49.063" y1="4.747" x2="52.086" y2="1.723"/>
</g>
<g>
	<rect x="53.575" y="5.635" fill="none" width="17.857" height="12.324"/>
	
		<line fill="none" stroke="#000000" stroke-width="0.2834" stroke-miterlimit="3.8636" x1="71.432" y1="16.628" x2="53.575" y2="16.628"/>
	
		<line fill="none" stroke="#000000" stroke-width="0.2834" stroke-miterlimit="3.8636" x1="71.432" y1="13.652" x2="53.575" y2="13.652"/>
	
		<line fill="none" stroke="#000000" stroke-width="0.2834" stroke-miterlimit="3.8636" x1="71.432" y1="10.676" x2="53.575" y2="10.676"/>
	
		<line fill="none" stroke="#000000" stroke-width="0.2834" stroke-miterlimit="3.8636" x1="55.063" y1="13.676" x2="58.086" y2="10.652"/>
	
		<line fill="none" stroke="#000000" stroke-width="0.2834" stroke-miterlimit="3.8636" x1="60.968" y1="13.676" x2="63.992" y2="10.652"/>
	
		<line fill="none" stroke="#000000" stroke-width="0.2834" stroke-miterlimit="3.8636" x1="55.063" y1="16.652" x2="58.086" y2="13.628"/>
	
		<line fill="none" stroke="#000000" stroke-width="0.2834" stroke-miterlimit="3.8636" x1="60.968" y1="16.652" x2="63.992" y2="13.628"/>
	
		<line fill="none" stroke="#000000" stroke-width="0.2834" stroke-miterlimit="3.8636" x1="56.733" y1="17.918" x2="58.023" y2="16.628"/>
	
		<line fill="none" stroke="#000000" stroke-width="0.2834" stroke-miterlimit="3.8636" x1="62.702" y1="17.918" x2="63.992" y2="16.628"/>
	
		<line fill="none" stroke="#000000" stroke-width="0.2834" stroke-miterlimit="3.8636" x1="66.92" y1="16.652" x2="69.944" y2="13.628"/>
	
		<line fill="none" stroke="#000000" stroke-width="0.2834" stroke-miterlimit="3.8636" x1="68.655" y1="17.918" x2="69.944" y2="16.628"/>
	<line fill="none" stroke="#000000" stroke-width="0.2834" stroke-miterlimit="3.8636" x1="71.432" y1="7.7" x2="53.575" y2="7.7"/>
	
		<line fill="none" stroke="#000000" stroke-width="0.2834" stroke-miterlimit="3.8636" x1="71.432" y1="4.723" x2="53.575" y2="4.723"/>
	
		<line fill="none" stroke="#000000" stroke-width="0.2834" stroke-miterlimit="3.8636" x1="71.432" y1="1.747" x2="53.575" y2="1.747"/>
	
		<line fill="none" stroke="#000000" stroke-width="0.2834" stroke-miterlimit="3.8636" x1="55.063" y1="4.747" x2="58.086" y2="1.723"/>
	
		<line fill="none" stroke="#000000" stroke-width="0.2834" stroke-miterlimit="3.8636" x1="60.968" y1="4.747" x2="63.992" y2="1.723"/>
	
		<line fill="none" stroke="#000000" stroke-width="0.2834" stroke-miterlimit="3.8636" x1="55.063" y1="7.723" x2="58.086" y2="4.699"/>
	
		<line fill="none" stroke="#000000" stroke-width="0.2834" stroke-miterlimit="3.8636" x1="60.968" y1="7.723" x2="63.992" y2="4.699"/>
	
		<line fill="none" stroke="#000000" stroke-width="0.2834" stroke-miterlimit="3.8636" x1="55.063" y1="1.771" x2="56.733" y2="0.1"/>
	
		<line fill="none" stroke="#000000" stroke-width="0.2834" stroke-miterlimit="3.8636" x1="60.968" y1="1.771" x2="62.639" y2="0.1"/>
	
		<line fill="none" stroke="#000000" stroke-width="0.2834" stroke-miterlimit="3.8636" x1="66.92" y1="7.723" x2="69.944" y2="4.699"/>
	
		<line fill="none" stroke="#000000" stroke-width="0.2834" stroke-miterlimit="3.8636" x1="66.92" y1="1.771" x2="68.591" y2="0.1"/>
	
		<line fill="none" stroke="#000000" stroke-width="0.2834" stroke-miterlimit="3.8636" x1="55.063" y1="10.7" x2="58.086" y2="7.676"/>
	
		<line fill="none" stroke="#000000" stroke-width="0.2834" stroke-miterlimit="3.8636" x1="60.968" y1="10.7" x2="63.992" y2="7.676"/>
	
		<line fill="none" stroke="#000000" stroke-width="0.2834" stroke-miterlimit="3.8636" x1="66.92" y1="13.676" x2="69.944" y2="10.652"/>
	
		<line fill="none" stroke="#000000" stroke-width="0.2834" stroke-miterlimit="3.8636" x1="66.92" y1="10.7" x2="69.944" y2="7.676"/>
	
		<line fill="none" stroke="#000000" stroke-width="0.2834" stroke-miterlimit="3.8636" x1="66.92" y1="4.747" x2="69.944" y2="1.723"/>
</g>
<g>
	<rect x="71.433" y="5.635" fill="none" width="7.739" height="12.324"/>
	
		<line fill="none" stroke="#000000" stroke-width="0.2834" stroke-miterlimit="3.8636" x1="89.292" y1="16.628" x2="71.432" y2="16.628"/>
	
		<line fill="none" stroke="#000000" stroke-width="0.2834" stroke-miterlimit="3.8636" x1="89.292" y1="13.652" x2="71.432" y2="13.652"/>
	
		<line fill="none" stroke="#000000" stroke-width="0.2834" stroke-miterlimit="3.8636" x1="89.292" y1="10.676" x2="71.432" y2="10.676"/>
	
		<line fill="none" stroke="#000000" stroke-width="0.2834" stroke-miterlimit="3.8636" x1="72.92" y1="13.676" x2="75.945" y2="10.652"/>
	
		<line fill="none" stroke="#000000" stroke-width="0.2834" stroke-miterlimit="3.8636" x1="78.827" y1="13.676" x2="81.85" y2="10.652"/>
	
		<line fill="none" stroke="#000000" stroke-width="0.2834" stroke-miterlimit="3.8636" x1="72.92" y1="16.652" x2="75.945" y2="13.628"/>
	
		<line fill="none" stroke="#000000" stroke-width="0.2834" stroke-miterlimit="3.8636" x1="78.827" y1="16.652" x2="81.85" y2="13.628"/>
	
		<line fill="none" stroke="#000000" stroke-width="0.2834" stroke-miterlimit="3.8636" x1="74.591" y1="17.918" x2="75.881" y2="16.628"/>
	
		<line fill="none" stroke="#000000" stroke-width="0.2834" stroke-miterlimit="3.8636" x1="80.56" y1="17.918" x2="81.85" y2="16.628"/>
	
		<line fill="none" stroke="#000000" stroke-width="0.2834" stroke-miterlimit="3.8636" x1="84.779" y1="16.652" x2="87.803" y2="13.628"/>
	
		<line fill="none" stroke="#000000" stroke-width="0.2834" stroke-miterlimit="3.8636" x1="86.513" y1="17.918" x2="87.803" y2="16.628"/>
	<line fill="none" stroke="#000000" stroke-width="0.2834" stroke-miterlimit="3.8636" x1="89.292" y1="7.7" x2="71.432" y2="7.7"/>
	
		<line fill="none" stroke="#000000" stroke-width="0.2834" stroke-miterlimit="3.8636" x1="89.292" y1="4.723" x2="71.432" y2="4.723"/>
	
		<line fill="none" stroke="#000000" stroke-width="0.2834" stroke-miterlimit="3.8636" x1="89.292" y1="1.747" x2="71.432" y2="1.747"/>
	
		<line fill="none" stroke="#000000" stroke-width="0.2834" stroke-miterlimit="3.8636" x1="72.92" y1="4.747" x2="75.945" y2="1.723"/>
	
		<line fill="none" stroke="#000000" stroke-width="0.2834" stroke-miterlimit="3.8636" x1="78.827" y1="4.747" x2="81.85" y2="1.723"/>
	
		<line fill="none" stroke="#000000" stroke-width="0.2834" stroke-miterlimit="3.8636" x1="72.92" y1="7.723" x2="75.945" y2="4.699"/>
	
		<line fill="none" stroke="#000000" stroke-width="0.2834" stroke-miterlimit="3.8636" x1="78.827" y1="7.723" x2="81.85" y2="4.699"/>
	
		<line fill="none" stroke="#000000" stroke-width="0.2834" stroke-miterlimit="3.8636" x1="72.92" y1="1.771" x2="74.591" y2="0.1"/>
	
		<line fill="none" stroke="#000000" stroke-width="0.2834" stroke-miterlimit="3.8636" x1="78.827" y1="1.771" x2="80.497" y2="0.1"/>
	
		<line fill="none" stroke="#000000" stroke-width="0.2834" stroke-miterlimit="3.8636" x1="84.779" y1="7.723" x2="87.803" y2="4.699"/>
	
		<line fill="none" stroke="#000000" stroke-width="0.2834" stroke-miterlimit="3.8636" x1="84.779" y1="1.771" x2="86.45" y2="0.1"/>
	
		<line fill="none" stroke="#000000" stroke-width="0.2834" stroke-miterlimit="3.8636" x1="72.92" y1="10.7" x2="75.945" y2="7.676"/>
	
		<line fill="none" stroke="#000000" stroke-width="0.2834" stroke-miterlimit="3.8636" x1="78.827" y1="10.7" x2="81.85" y2="7.676"/>
	
		<line fill="none" stroke="#000000" stroke-width="0.2834" stroke-miterlimit="3.8636" x1="84.779" y1="13.676" x2="87.803" y2="10.652"/>
	
		<line fill="none" stroke="#000000" stroke-width="0.2834" stroke-miterlimit="3.8636" x1="84.779" y1="10.7" x2="87.803" y2="7.676"/>
	
		<line fill="none" stroke="#000000" stroke-width="0.2834" stroke-miterlimit="3.8636" x1="84.779" y1="4.747" x2="87.803" y2="1.723"/>
</g>
</svg>
