<?xml version="1.0" encoding="utf-8"?>
<!-- Generator: Adobe Illustrator 12.0.0, SVG Export Plug-In . SVG Version: 6.00 Build 51448)  -->
<!DOCTYPE svg PUBLIC "-//W3C//DTD SVG 1.1//EN" "http://www.w3.org/Graphics/SVG/1.1/DTD/svg11.dtd" [
	<!ENTITY ns_svg "http://www.w3.org/2000/svg">
	<!ENTITY ns_xlink "http://www.w3.org/1999/xlink">
]>
<svg  version="1.1" id="Layer_1" xmlns="&ns_svg;" xmlns:xlink="&ns_xlink;" width="87.329" height="44.176"
	 viewBox="0 0 87.329 44.176" overflow="visible" enable-background="new 0 0 87.329 44.176" xml:space="preserve">
<rect x="7.168" y="5.778" fill="none" width="70.5" height="30.5"/>
<g>
	<rect x="7.168" y="33.768" fill="none" width="3.823" height="2.51"/>
	<polyline fill="none" stroke="#000000" stroke-width="0.2834" stroke-miterlimit="3.8636" points="2.878,35.741 4.157,34.463 
		5.435,35.741 	"/>
	<polyline fill="none" stroke="#000000" stroke-width="0.2834" stroke-miterlimit="3.8636" points="8.434,35.741 9.712,34.463 
		10.991,35.741 	"/>
	<polyline fill="none" stroke="#000000" stroke-width="0.2834" stroke-miterlimit="3.8636" points="5.656,38.52 6.935,37.24 
		8.213,38.52 	"/>
	<polyline fill="none" stroke="#000000" stroke-width="0.2834" stroke-miterlimit="3.8636" points="0.1,38.52 1.378,37.24 
		2.657,38.52 	"/>
	<polyline fill="none" stroke="#000000" stroke-width="0.2834" stroke-miterlimit="3.8636" points="2.878,41.297 4.157,40.019 
		5.435,41.297 	"/>
	<polyline fill="none" stroke="#000000" stroke-width="0.2834" stroke-miterlimit="3.8636" points="8.434,41.297 9.712,40.019 
		10.991,41.297 	"/>
	<polyline fill="none" stroke="#000000" stroke-width="0.2834" stroke-miterlimit="3.8636" points="5.656,44.075 6.935,42.797 
		8.213,44.075 	"/>
	<polyline fill="none" stroke="#000000" stroke-width="0.2834" stroke-miterlimit="3.8636" points="0.1,44.075 1.378,42.797 
		2.657,44.075 	"/>
</g>
<g>
	<rect x="10.991" y="33.768" fill="none" width="10.891" height="2.51"/>
	<polyline fill="none" stroke="#000000" stroke-width="0.2834" stroke-miterlimit="3.8636" points="13.769,35.741 15.048,34.463 
		16.327,35.741 	"/>
	<polyline fill="none" stroke="#000000" stroke-width="0.2834" stroke-miterlimit="3.8636" points="19.325,35.741 20.604,34.463 
		21.882,35.741 	"/>
	<polyline fill="none" stroke="#000000" stroke-width="0.2834" stroke-miterlimit="3.8636" points="16.547,38.52 17.826,37.24 
		19.104,38.52 	"/>
	<polyline fill="none" stroke="#000000" stroke-width="0.2834" stroke-miterlimit="3.8636" points="10.991,38.52 12.27,37.24 
		13.548,38.52 	"/>
	<polyline fill="none" stroke="#000000" stroke-width="0.2834" stroke-miterlimit="3.8636" points="13.769,41.297 15.048,40.019 
		16.327,41.297 	"/>
	<polyline fill="none" stroke="#000000" stroke-width="0.2834" stroke-miterlimit="3.8636" points="19.325,41.297 20.604,40.019 
		21.882,41.297 	"/>
	<polyline fill="none" stroke="#000000" stroke-width="0.2834" stroke-miterlimit="3.8636" points="16.547,44.075 17.826,42.797 
		19.104,44.075 	"/>
	<polyline fill="none" stroke="#000000" stroke-width="0.2834" stroke-miterlimit="3.8636" points="10.991,44.075 12.27,42.797 
		13.548,44.075 	"/>
</g>
<g>
	<rect x="21.882" y="33.768" fill="none" width="10.891" height="2.51"/>
	<polyline fill="none" stroke="#000000" stroke-width="0.2834" stroke-miterlimit="3.8636" points="24.66,35.741 25.939,34.463 
		27.217,35.741 	"/>
	<polyline fill="none" stroke="#000000" stroke-width="0.2834" stroke-miterlimit="3.8636" points="30.216,35.741 31.495,34.463 
		32.773,35.741 	"/>
	<polyline fill="none" stroke="#000000" stroke-width="0.2834" stroke-miterlimit="3.8636" points="27.438,38.52 28.717,37.24 
		29.996,38.52 	"/>
	<polyline fill="none" stroke="#000000" stroke-width="0.2834" stroke-miterlimit="3.8636" points="21.882,38.52 23.161,37.24 
		24.439,38.52 	"/>
	<polyline fill="none" stroke="#000000" stroke-width="0.2834" stroke-miterlimit="3.8636" points="24.66,41.297 25.939,40.019 
		27.217,41.297 	"/>
	<polyline fill="none" stroke="#000000" stroke-width="0.2834" stroke-miterlimit="3.8636" points="30.216,41.297 31.495,40.019 
		32.773,41.297 	"/>
	<polyline fill="none" stroke="#000000" stroke-width="0.2834" stroke-miterlimit="3.8636" points="27.438,44.075 28.717,42.797 
		29.996,44.075 	"/>
	<polyline fill="none" stroke="#000000" stroke-width="0.2834" stroke-miterlimit="3.8636" points="21.882,44.075 23.161,42.797 
		24.439,44.075 	"/>
</g>
<g>
	<rect x="32.773" y="33.768" fill="none" width="10.892" height="2.51"/>
	<polyline fill="none" stroke="#000000" stroke-width="0.2834" stroke-miterlimit="3.8636" points="35.551,35.741 36.83,34.463 
		38.108,35.741 	"/>
	<polyline fill="none" stroke="#000000" stroke-width="0.2834" stroke-miterlimit="3.8636" points="41.107,35.741 42.386,34.463 
		43.664,35.741 	"/>
	<polyline fill="none" stroke="#000000" stroke-width="0.2834" stroke-miterlimit="3.8636" points="38.329,38.52 39.608,37.24 
		40.886,38.52 	"/>
	<polyline fill="none" stroke="#000000" stroke-width="0.2834" stroke-miterlimit="3.8636" points="32.773,38.52 34.052,37.24 
		35.331,38.52 	"/>
	<polyline fill="none" stroke="#000000" stroke-width="0.2834" stroke-miterlimit="3.8636" points="35.551,41.297 36.83,40.019 
		38.108,41.297 	"/>
	<polyline fill="none" stroke="#000000" stroke-width="0.2834" stroke-miterlimit="3.8636" points="41.107,41.297 42.386,40.019 
		43.664,41.297 	"/>
	<polyline fill="none" stroke="#000000" stroke-width="0.2834" stroke-miterlimit="3.8636" points="38.329,44.075 39.608,42.797 
		40.886,44.075 	"/>
	<polyline fill="none" stroke="#000000" stroke-width="0.2834" stroke-miterlimit="3.8636" points="32.773,44.075 34.052,42.797 
		35.331,44.075 	"/>
</g>
<g>
	<rect x="43.665" y="33.768" fill="none" width="10.891" height="2.51"/>
	<polyline fill="none" stroke="#000000" stroke-width="0.2834" stroke-miterlimit="3.8636" points="46.442,35.741 47.721,34.463 
		49,35.741 	"/>
	<polyline fill="none" stroke="#000000" stroke-width="0.2834" stroke-miterlimit="3.8636" points="51.999,35.741 53.277,34.463 
		54.555,35.741 	"/>
	<polyline fill="none" stroke="#000000" stroke-width="0.2834" stroke-miterlimit="3.8636" points="49.22,38.52 50.499,37.24 
		51.778,38.52 	"/>
	<polyline fill="none" stroke="#000000" stroke-width="0.2834" stroke-miterlimit="3.8636" points="43.665,38.52 44.943,37.24 
		46.221,38.52 	"/>
	<polyline fill="none" stroke="#000000" stroke-width="0.2834" stroke-miterlimit="3.8636" points="46.442,41.297 47.721,40.019 
		49,41.297 	"/>
	<polyline fill="none" stroke="#000000" stroke-width="0.2834" stroke-miterlimit="3.8636" points="51.999,41.297 53.277,40.019 
		54.555,41.297 	"/>
	<polyline fill="none" stroke="#000000" stroke-width="0.2834" stroke-miterlimit="3.8636" points="49.22,44.075 50.499,42.797 
		51.778,44.075 	"/>
	<polyline fill="none" stroke="#000000" stroke-width="0.2834" stroke-miterlimit="3.8636" points="43.665,44.075 44.943,42.797 
		46.221,44.075 	"/>
</g>
<g>
	<rect x="54.555" y="33.768" fill="none" width="10.891" height="2.51"/>
	<polyline fill="none" stroke="#000000" stroke-width="0.2834" stroke-miterlimit="3.8636" points="57.333,35.741 58.612,34.463 
		59.891,35.741 	"/>
	<polyline fill="none" stroke="#000000" stroke-width="0.2834" stroke-miterlimit="3.8636" points="62.889,35.741 64.167,34.463 
		65.446,35.741 	"/>
	<polyline fill="none" stroke="#000000" stroke-width="0.2834" stroke-miterlimit="3.8636" points="60.112,38.52 61.39,37.24 
		62.668,38.52 	"/>
	<polyline fill="none" stroke="#000000" stroke-width="0.2834" stroke-miterlimit="3.8636" points="54.555,38.52 55.834,37.24 
		57.113,38.52 	"/>
	<polyline fill="none" stroke="#000000" stroke-width="0.2834" stroke-miterlimit="3.8636" points="57.333,41.297 58.612,40.019 
		59.891,41.297 	"/>
	<polyline fill="none" stroke="#000000" stroke-width="0.2834" stroke-miterlimit="3.8636" points="62.889,41.297 64.167,40.019 
		65.446,41.297 	"/>
	<polyline fill="none" stroke="#000000" stroke-width="0.2834" stroke-miterlimit="3.8636" points="60.112,44.075 61.39,42.797 
		62.668,44.075 	"/>
	<polyline fill="none" stroke="#000000" stroke-width="0.2834" stroke-miterlimit="3.8636" points="54.555,44.075 55.834,42.797 
		57.113,44.075 	"/>
</g>
<g>
	<rect x="65.446" y="33.768" fill="none" width="10.892" height="2.51"/>
	<polyline fill="none" stroke="#000000" stroke-width="0.2834" stroke-miterlimit="3.8636" points="68.224,35.741 69.502,34.463 
		70.782,35.741 	"/>
	<polyline fill="none" stroke="#000000" stroke-width="0.2834" stroke-miterlimit="3.8636" points="73.78,35.741 75.059,34.463 
		76.337,35.741 	"/>
	<polyline fill="none" stroke="#000000" stroke-width="0.2834" stroke-miterlimit="3.8636" points="71.002,38.52 72.281,37.24 
		73.559,38.52 	"/>
	<polyline fill="none" stroke="#000000" stroke-width="0.2834" stroke-miterlimit="3.8636" points="65.446,38.52 66.725,37.24 
		68.003,38.52 	"/>
	<polyline fill="none" stroke="#000000" stroke-width="0.2834" stroke-miterlimit="3.8636" points="68.224,41.297 69.502,40.019 
		70.782,41.297 	"/>
	<polyline fill="none" stroke="#000000" stroke-width="0.2834" stroke-miterlimit="3.8636" points="73.78,41.297 75.059,40.019 
		76.337,41.297 	"/>
	<polyline fill="none" stroke="#000000" stroke-width="0.2834" stroke-miterlimit="3.8636" points="71.002,44.075 72.281,42.797 
		73.559,44.075 	"/>
	<polyline fill="none" stroke="#000000" stroke-width="0.2834" stroke-miterlimit="3.8636" points="65.446,44.075 66.725,42.797 
		68.003,44.075 	"/>
</g>
<g>
	<rect x="76.337" y="33.768" fill="none" width="1.331" height="2.51"/>
	<polyline fill="none" stroke="#000000" stroke-width="0.2834" stroke-miterlimit="3.8636" points="79.116,35.741 80.394,34.463 
		81.672,35.741 	"/>
	<polyline fill="none" stroke="#000000" stroke-width="0.2834" stroke-miterlimit="3.8636" points="84.671,35.741 85.95,34.463 
		87.228,35.741 	"/>
	<polyline fill="none" stroke="#000000" stroke-width="0.2834" stroke-miterlimit="3.8636" points="81.893,38.52 83.172,37.24 
		84.451,38.52 	"/>
	<polyline fill="none" stroke="#000000" stroke-width="0.2834" stroke-miterlimit="3.8636" points="76.337,38.52 77.616,37.24 
		78.895,38.52 	"/>
	<polyline fill="none" stroke="#000000" stroke-width="0.2834" stroke-miterlimit="3.8636" points="79.116,41.297 80.394,40.019 
		81.672,41.297 	"/>
	<polyline fill="none" stroke="#000000" stroke-width="0.2834" stroke-miterlimit="3.8636" points="84.671,41.297 85.95,40.019 
		87.228,41.297 	"/>
	<polyline fill="none" stroke="#000000" stroke-width="0.2834" stroke-miterlimit="3.8636" points="81.893,44.075 83.172,42.797 
		84.451,44.075 	"/>
	<polyline fill="none" stroke="#000000" stroke-width="0.2834" stroke-miterlimit="3.8636" points="76.337,44.075 77.616,42.797 
		78.895,44.075 	"/>
</g>
<g>
	<rect x="7.168" y="22.348" fill="none" width="3.823" height="11.42"/>
	<polyline fill="none" stroke="#000000" stroke-width="0.2834" stroke-miterlimit="3.8636" points="2.878,24.32 4.157,23.041 
		5.435,24.32 	"/>
	<polyline fill="none" stroke="#000000" stroke-width="0.2834" stroke-miterlimit="3.8636" points="8.434,24.32 9.712,23.041 
		10.991,24.32 	"/>
	<polyline fill="none" stroke="#000000" stroke-width="0.2834" stroke-miterlimit="3.8636" points="5.656,27.099 6.935,25.819 
		8.213,27.099 	"/>
	<polyline fill="none" stroke="#000000" stroke-width="0.2834" stroke-miterlimit="3.8636" points="0.1,27.099 1.378,25.819 
		2.657,27.099 	"/>
	<polyline fill="none" stroke="#000000" stroke-width="0.2834" stroke-miterlimit="3.8636" points="2.878,29.876 4.157,28.598 
		5.435,29.876 	"/>
	<polyline fill="none" stroke="#000000" stroke-width="0.2834" stroke-miterlimit="3.8636" points="8.434,29.876 9.712,28.598 
		10.991,29.876 	"/>
	<polyline fill="none" stroke="#000000" stroke-width="0.2834" stroke-miterlimit="3.8636" points="5.656,32.654 6.935,31.375 
		8.213,32.654 	"/>
	<polyline fill="none" stroke="#000000" stroke-width="0.2834" stroke-miterlimit="3.8636" points="0.1,32.654 1.378,31.375 
		2.657,32.654 	"/>
</g>
<g>
	<rect x="10.991" y="22.348" fill="none" width="10.891" height="11.42"/>
	<polyline fill="none" stroke="#000000" stroke-width="0.2834" stroke-miterlimit="3.8636" points="13.769,24.32 15.048,23.041 
		16.327,24.32 	"/>
	<polyline fill="none" stroke="#000000" stroke-width="0.2834" stroke-miterlimit="3.8636" points="19.325,24.32 20.604,23.041 
		21.882,24.32 	"/>
	<polyline fill="none" stroke="#000000" stroke-width="0.2834" stroke-miterlimit="3.8636" points="16.547,27.099 17.826,25.819 
		19.104,27.099 	"/>
	<polyline fill="none" stroke="#000000" stroke-width="0.2834" stroke-miterlimit="3.8636" points="10.991,27.099 12.27,25.819 
		13.548,27.099 	"/>
	<polyline fill="none" stroke="#000000" stroke-width="0.2834" stroke-miterlimit="3.8636" points="13.769,29.876 15.048,28.598 
		16.327,29.876 	"/>
	<polyline fill="none" stroke="#000000" stroke-width="0.2834" stroke-miterlimit="3.8636" points="19.325,29.876 20.604,28.598 
		21.882,29.876 	"/>
	<polyline fill="none" stroke="#000000" stroke-width="0.2834" stroke-miterlimit="3.8636" points="16.547,32.654 17.826,31.375 
		19.104,32.654 	"/>
	<polyline fill="none" stroke="#000000" stroke-width="0.2834" stroke-miterlimit="3.8636" points="10.991,32.654 12.27,31.375 
		13.548,32.654 	"/>
</g>
<g>
	<rect x="21.882" y="22.348" fill="none" width="10.891" height="11.42"/>
	<polyline fill="none" stroke="#000000" stroke-width="0.2834" stroke-miterlimit="3.8636" points="24.66,24.32 25.939,23.041 
		27.217,24.32 	"/>
	<polyline fill="none" stroke="#000000" stroke-width="0.2834" stroke-miterlimit="3.8636" points="30.216,24.32 31.495,23.041 
		32.773,24.32 	"/>
	<polyline fill="none" stroke="#000000" stroke-width="0.2834" stroke-miterlimit="3.8636" points="27.438,27.099 28.717,25.819 
		29.996,27.099 	"/>
	<polyline fill="none" stroke="#000000" stroke-width="0.2834" stroke-miterlimit="3.8636" points="21.882,27.099 23.161,25.819 
		24.439,27.099 	"/>
	<polyline fill="none" stroke="#000000" stroke-width="0.2834" stroke-miterlimit="3.8636" points="24.66,29.876 25.939,28.598 
		27.217,29.876 	"/>
	<polyline fill="none" stroke="#000000" stroke-width="0.2834" stroke-miterlimit="3.8636" points="30.216,29.876 31.495,28.598 
		32.773,29.876 	"/>
	<polyline fill="none" stroke="#000000" stroke-width="0.2834" stroke-miterlimit="3.8636" points="27.438,32.654 28.717,31.375 
		29.996,32.654 	"/>
	<polyline fill="none" stroke="#000000" stroke-width="0.2834" stroke-miterlimit="3.8636" points="21.882,32.654 23.161,31.375 
		24.439,32.654 	"/>
</g>
<g>
	<rect x="32.773" y="22.348" fill="none" width="10.892" height="11.42"/>
	<polyline fill="none" stroke="#000000" stroke-width="0.2834" stroke-miterlimit="3.8636" points="35.551,24.32 36.83,23.041 
		38.108,24.32 	"/>
	<polyline fill="none" stroke="#000000" stroke-width="0.2834" stroke-miterlimit="3.8636" points="41.107,24.32 42.386,23.041 
		43.664,24.32 	"/>
	<polyline fill="none" stroke="#000000" stroke-width="0.2834" stroke-miterlimit="3.8636" points="38.329,27.099 39.608,25.819 
		40.886,27.099 	"/>
	<polyline fill="none" stroke="#000000" stroke-width="0.2834" stroke-miterlimit="3.8636" points="32.773,27.099 34.052,25.819 
		35.331,27.099 	"/>
	<polyline fill="none" stroke="#000000" stroke-width="0.2834" stroke-miterlimit="3.8636" points="35.551,29.876 36.83,28.598 
		38.108,29.876 	"/>
	<polyline fill="none" stroke="#000000" stroke-width="0.2834" stroke-miterlimit="3.8636" points="41.107,29.876 42.386,28.598 
		43.664,29.876 	"/>
	<polyline fill="none" stroke="#000000" stroke-width="0.2834" stroke-miterlimit="3.8636" points="38.329,32.654 39.608,31.375 
		40.886,32.654 	"/>
	<polyline fill="none" stroke="#000000" stroke-width="0.2834" stroke-miterlimit="3.8636" points="32.773,32.654 34.052,31.375 
		35.331,32.654 	"/>
</g>
<g>
	<rect x="43.665" y="22.348" fill="none" width="10.891" height="11.42"/>
	<polyline fill="none" stroke="#000000" stroke-width="0.2834" stroke-miterlimit="3.8636" points="46.442,24.32 47.721,23.041 
		49,24.32 	"/>
	<polyline fill="none" stroke="#000000" stroke-width="0.2834" stroke-miterlimit="3.8636" points="51.999,24.32 53.277,23.041 
		54.555,24.32 	"/>
	<polyline fill="none" stroke="#000000" stroke-width="0.2834" stroke-miterlimit="3.8636" points="49.22,27.099 50.499,25.819 
		51.778,27.099 	"/>
	<polyline fill="none" stroke="#000000" stroke-width="0.2834" stroke-miterlimit="3.8636" points="43.665,27.099 44.943,25.819 
		46.221,27.099 	"/>
	<polyline fill="none" stroke="#000000" stroke-width="0.2834" stroke-miterlimit="3.8636" points="46.442,29.876 47.721,28.598 
		49,29.876 	"/>
	<polyline fill="none" stroke="#000000" stroke-width="0.2834" stroke-miterlimit="3.8636" points="51.999,29.876 53.277,28.598 
		54.555,29.876 	"/>
	<polyline fill="none" stroke="#000000" stroke-width="0.2834" stroke-miterlimit="3.8636" points="49.22,32.654 50.499,31.375 
		51.778,32.654 	"/>
	<polyline fill="none" stroke="#000000" stroke-width="0.2834" stroke-miterlimit="3.8636" points="43.665,32.654 44.943,31.375 
		46.221,32.654 	"/>
</g>
<g>
	<rect x="54.555" y="22.348" fill="none" width="10.891" height="11.42"/>
	<polyline fill="none" stroke="#000000" stroke-width="0.2834" stroke-miterlimit="3.8636" points="57.333,24.32 58.612,23.041 
		59.891,24.32 	"/>
	<polyline fill="none" stroke="#000000" stroke-width="0.2834" stroke-miterlimit="3.8636" points="62.889,24.32 64.167,23.041 
		65.446,24.32 	"/>
	<polyline fill="none" stroke="#000000" stroke-width="0.2834" stroke-miterlimit="3.8636" points="60.112,27.099 61.39,25.819 
		62.668,27.099 	"/>
	<polyline fill="none" stroke="#000000" stroke-width="0.2834" stroke-miterlimit="3.8636" points="54.555,27.099 55.834,25.819 
		57.113,27.099 	"/>
	<polyline fill="none" stroke="#000000" stroke-width="0.2834" stroke-miterlimit="3.8636" points="57.333,29.876 58.612,28.598 
		59.891,29.876 	"/>
	<polyline fill="none" stroke="#000000" stroke-width="0.2834" stroke-miterlimit="3.8636" points="62.889,29.876 64.167,28.598 
		65.446,29.876 	"/>
	<polyline fill="none" stroke="#000000" stroke-width="0.2834" stroke-miterlimit="3.8636" points="60.112,32.654 61.39,31.375 
		62.668,32.654 	"/>
	<polyline fill="none" stroke="#000000" stroke-width="0.2834" stroke-miterlimit="3.8636" points="54.555,32.654 55.834,31.375 
		57.113,32.654 	"/>
</g>
<g>
	<rect x="65.446" y="22.348" fill="none" width="10.892" height="11.42"/>
	<polyline fill="none" stroke="#000000" stroke-width="0.2834" stroke-miterlimit="3.8636" points="68.224,24.32 69.502,23.041 
		70.782,24.32 	"/>
	<polyline fill="none" stroke="#000000" stroke-width="0.2834" stroke-miterlimit="3.8636" points="73.78,24.32 75.059,23.041 
		76.337,24.32 	"/>
	<polyline fill="none" stroke="#000000" stroke-width="0.2834" stroke-miterlimit="3.8636" points="71.002,27.099 72.281,25.819 
		73.559,27.099 	"/>
	<polyline fill="none" stroke="#000000" stroke-width="0.2834" stroke-miterlimit="3.8636" points="65.446,27.099 66.725,25.819 
		68.003,27.099 	"/>
	<polyline fill="none" stroke="#000000" stroke-width="0.2834" stroke-miterlimit="3.8636" points="68.224,29.876 69.502,28.598 
		70.782,29.876 	"/>
	<polyline fill="none" stroke="#000000" stroke-width="0.2834" stroke-miterlimit="3.8636" points="73.78,29.876 75.059,28.598 
		76.337,29.876 	"/>
	<polyline fill="none" stroke="#000000" stroke-width="0.2834" stroke-miterlimit="3.8636" points="71.002,32.654 72.281,31.375 
		73.559,32.654 	"/>
	<polyline fill="none" stroke="#000000" stroke-width="0.2834" stroke-miterlimit="3.8636" points="65.446,32.654 66.725,31.375 
		68.003,32.654 	"/>
</g>
<g>
	<rect x="76.337" y="22.348" fill="none" width="1.331" height="11.42"/>
	<polyline fill="none" stroke="#000000" stroke-width="0.2834" stroke-miterlimit="3.8636" points="79.116,24.32 80.394,23.041 
		81.672,24.32 	"/>
	<polyline fill="none" stroke="#000000" stroke-width="0.2834" stroke-miterlimit="3.8636" points="84.671,24.32 85.95,23.041 
		87.228,24.32 	"/>
	<polyline fill="none" stroke="#000000" stroke-width="0.2834" stroke-miterlimit="3.8636" points="81.893,27.099 83.172,25.819 
		84.451,27.099 	"/>
	<polyline fill="none" stroke="#000000" stroke-width="0.2834" stroke-miterlimit="3.8636" points="76.337,27.099 77.616,25.819 
		78.895,27.099 	"/>
	<polyline fill="none" stroke="#000000" stroke-width="0.2834" stroke-miterlimit="3.8636" points="79.116,29.876 80.394,28.598 
		81.672,29.876 	"/>
	<polyline fill="none" stroke="#000000" stroke-width="0.2834" stroke-miterlimit="3.8636" points="84.671,29.876 85.95,28.598 
		87.228,29.876 	"/>
	<polyline fill="none" stroke="#000000" stroke-width="0.2834" stroke-miterlimit="3.8636" points="81.893,32.654 83.172,31.375 
		84.451,32.654 	"/>
	<polyline fill="none" stroke="#000000" stroke-width="0.2834" stroke-miterlimit="3.8636" points="76.337,32.654 77.616,31.375 
		78.895,32.654 	"/>
</g>
<g>
	<rect x="7.168" y="10.926" fill="none" width="3.823" height="11.421"/>
	<polyline fill="none" stroke="#000000" stroke-width="0.2834" stroke-miterlimit="3.8636" points="2.878,12.899 4.157,11.621 
		5.435,12.899 	"/>
	<polyline fill="none" stroke="#000000" stroke-width="0.2834" stroke-miterlimit="3.8636" points="8.434,12.899 9.712,11.621 
		10.991,12.899 	"/>
	<polyline fill="none" stroke="#000000" stroke-width="0.2834" stroke-miterlimit="3.8636" points="5.656,15.678 6.935,14.399 
		8.213,15.678 	"/>
	<polyline fill="none" stroke="#000000" stroke-width="0.2834" stroke-miterlimit="3.8636" points="0.1,15.678 1.378,14.399 
		2.657,15.678 	"/>
	<polyline fill="none" stroke="#000000" stroke-width="0.2834" stroke-miterlimit="3.8636" points="2.878,18.456 4.157,17.177 
		5.435,18.456 	"/>
	<polyline fill="none" stroke="#000000" stroke-width="0.2834" stroke-miterlimit="3.8636" points="8.434,18.456 9.712,17.177 
		10.991,18.456 	"/>
	<polyline fill="none" stroke="#000000" stroke-width="0.2834" stroke-miterlimit="3.8636" points="5.656,21.233 6.935,19.955 
		8.213,21.233 	"/>
	<polyline fill="none" stroke="#000000" stroke-width="0.2834" stroke-miterlimit="3.8636" points="0.1,21.233 1.378,19.955 
		2.657,21.233 	"/>
</g>
<g>
	<rect x="10.991" y="10.926" fill="none" width="10.891" height="11.421"/>
	<polyline fill="none" stroke="#000000" stroke-width="0.2834" stroke-miterlimit="3.8636" points="13.769,12.899 15.048,11.621 
		16.327,12.899 	"/>
	<polyline fill="none" stroke="#000000" stroke-width="0.2834" stroke-miterlimit="3.8636" points="19.325,12.899 20.604,11.621 
		21.882,12.899 	"/>
	<polyline fill="none" stroke="#000000" stroke-width="0.2834" stroke-miterlimit="3.8636" points="16.547,15.678 17.826,14.399 
		19.104,15.678 	"/>
	<polyline fill="none" stroke="#000000" stroke-width="0.2834" stroke-miterlimit="3.8636" points="10.991,15.678 12.27,14.399 
		13.548,15.678 	"/>
	<polyline fill="none" stroke="#000000" stroke-width="0.2834" stroke-miterlimit="3.8636" points="13.769,18.456 15.048,17.177 
		16.327,18.456 	"/>
	<polyline fill="none" stroke="#000000" stroke-width="0.2834" stroke-miterlimit="3.8636" points="19.325,18.456 20.604,17.177 
		21.882,18.456 	"/>
	<polyline fill="none" stroke="#000000" stroke-width="0.2834" stroke-miterlimit="3.8636" points="16.547,21.233 17.826,19.955 
		19.104,21.233 	"/>
	<polyline fill="none" stroke="#000000" stroke-width="0.2834" stroke-miterlimit="3.8636" points="10.991,21.233 12.27,19.955 
		13.548,21.233 	"/>
</g>
<g>
	<rect x="21.882" y="10.926" fill="none" width="10.891" height="11.421"/>
	<polyline fill="none" stroke="#000000" stroke-width="0.2834" stroke-miterlimit="3.8636" points="24.66,12.899 25.939,11.621 
		27.217,12.899 	"/>
	<polyline fill="none" stroke="#000000" stroke-width="0.2834" stroke-miterlimit="3.8636" points="30.216,12.899 31.495,11.621 
		32.773,12.899 	"/>
	<polyline fill="none" stroke="#000000" stroke-width="0.2834" stroke-miterlimit="3.8636" points="27.438,15.678 28.717,14.399 
		29.996,15.678 	"/>
	<polyline fill="none" stroke="#000000" stroke-width="0.2834" stroke-miterlimit="3.8636" points="21.882,15.678 23.161,14.399 
		24.439,15.678 	"/>
	<polyline fill="none" stroke="#000000" stroke-width="0.2834" stroke-miterlimit="3.8636" points="24.66,18.456 25.939,17.177 
		27.217,18.456 	"/>
	<polyline fill="none" stroke="#000000" stroke-width="0.2834" stroke-miterlimit="3.8636" points="30.216,18.456 31.495,17.177 
		32.773,18.456 	"/>
	<polyline fill="none" stroke="#000000" stroke-width="0.2834" stroke-miterlimit="3.8636" points="27.438,21.233 28.717,19.955 
		29.996,21.233 	"/>
	<polyline fill="none" stroke="#000000" stroke-width="0.2834" stroke-miterlimit="3.8636" points="21.882,21.233 23.161,19.955 
		24.439,21.233 	"/>
</g>
<g>
	<rect x="32.773" y="10.926" fill="none" width="10.892" height="11.421"/>
	<polyline fill="none" stroke="#000000" stroke-width="0.2834" stroke-miterlimit="3.8636" points="35.551,12.899 36.83,11.621 
		38.108,12.899 	"/>
	<polyline fill="none" stroke="#000000" stroke-width="0.2834" stroke-miterlimit="3.8636" points="41.107,12.899 42.386,11.621 
		43.664,12.899 	"/>
	<polyline fill="none" stroke="#000000" stroke-width="0.2834" stroke-miterlimit="3.8636" points="38.329,15.678 39.608,14.399 
		40.886,15.678 	"/>
	<polyline fill="none" stroke="#000000" stroke-width="0.2834" stroke-miterlimit="3.8636" points="32.773,15.678 34.052,14.399 
		35.331,15.678 	"/>
	<polyline fill="none" stroke="#000000" stroke-width="0.2834" stroke-miterlimit="3.8636" points="35.551,18.456 36.83,17.177 
		38.108,18.456 	"/>
	<polyline fill="none" stroke="#000000" stroke-width="0.2834" stroke-miterlimit="3.8636" points="41.107,18.456 42.386,17.177 
		43.664,18.456 	"/>
	<polyline fill="none" stroke="#000000" stroke-width="0.2834" stroke-miterlimit="3.8636" points="38.329,21.233 39.608,19.955 
		40.886,21.233 	"/>
	<polyline fill="none" stroke="#000000" stroke-width="0.2834" stroke-miterlimit="3.8636" points="32.773,21.233 34.052,19.955 
		35.331,21.233 	"/>
</g>
<g>
	<rect x="43.665" y="10.926" fill="none" width="10.891" height="11.421"/>
	<polyline fill="none" stroke="#000000" stroke-width="0.2834" stroke-miterlimit="3.8636" points="46.442,12.899 47.721,11.621 
		49,12.899 	"/>
	<polyline fill="none" stroke="#000000" stroke-width="0.2834" stroke-miterlimit="3.8636" points="51.999,12.899 53.277,11.621 
		54.555,12.899 	"/>
	<polyline fill="none" stroke="#000000" stroke-width="0.2834" stroke-miterlimit="3.8636" points="49.22,15.678 50.499,14.399 
		51.778,15.678 	"/>
	<polyline fill="none" stroke="#000000" stroke-width="0.2834" stroke-miterlimit="3.8636" points="43.665,15.678 44.943,14.399 
		46.221,15.678 	"/>
	<polyline fill="none" stroke="#000000" stroke-width="0.2834" stroke-miterlimit="3.8636" points="46.442,18.456 47.721,17.177 
		49,18.456 	"/>
	<polyline fill="none" stroke="#000000" stroke-width="0.2834" stroke-miterlimit="3.8636" points="51.999,18.456 53.277,17.177 
		54.555,18.456 	"/>
	<polyline fill="none" stroke="#000000" stroke-width="0.2834" stroke-miterlimit="3.8636" points="49.22,21.233 50.499,19.955 
		51.778,21.233 	"/>
	<polyline fill="none" stroke="#000000" stroke-width="0.2834" stroke-miterlimit="3.8636" points="43.665,21.233 44.943,19.955 
		46.221,21.233 	"/>
</g>
<g>
	<rect x="54.555" y="10.926" fill="none" width="10.891" height="11.421"/>
	<polyline fill="none" stroke="#000000" stroke-width="0.2834" stroke-miterlimit="3.8636" points="57.333,12.899 58.612,11.621 
		59.891,12.899 	"/>
	<polyline fill="none" stroke="#000000" stroke-width="0.2834" stroke-miterlimit="3.8636" points="62.889,12.899 64.167,11.621 
		65.446,12.899 	"/>
	<polyline fill="none" stroke="#000000" stroke-width="0.2834" stroke-miterlimit="3.8636" points="60.112,15.678 61.39,14.399 
		62.668,15.678 	"/>
	<polyline fill="none" stroke="#000000" stroke-width="0.2834" stroke-miterlimit="3.8636" points="54.555,15.678 55.834,14.399 
		57.113,15.678 	"/>
	<polyline fill="none" stroke="#000000" stroke-width="0.2834" stroke-miterlimit="3.8636" points="57.333,18.456 58.612,17.177 
		59.891,18.456 	"/>
	<polyline fill="none" stroke="#000000" stroke-width="0.2834" stroke-miterlimit="3.8636" points="62.889,18.456 64.167,17.177 
		65.446,18.456 	"/>
	<polyline fill="none" stroke="#000000" stroke-width="0.2834" stroke-miterlimit="3.8636" points="60.112,21.233 61.39,19.955 
		62.668,21.233 	"/>
	<polyline fill="none" stroke="#000000" stroke-width="0.2834" stroke-miterlimit="3.8636" points="54.555,21.233 55.834,19.955 
		57.113,21.233 	"/>
</g>
<g>
	<rect x="65.446" y="10.926" fill="none" width="10.892" height="11.421"/>
	<polyline fill="none" stroke="#000000" stroke-width="0.2834" stroke-miterlimit="3.8636" points="68.224,12.899 69.502,11.621 
		70.782,12.899 	"/>
	<polyline fill="none" stroke="#000000" stroke-width="0.2834" stroke-miterlimit="3.8636" points="73.78,12.899 75.059,11.621 
		76.337,12.899 	"/>
	<polyline fill="none" stroke="#000000" stroke-width="0.2834" stroke-miterlimit="3.8636" points="71.002,15.678 72.281,14.399 
		73.559,15.678 	"/>
	<polyline fill="none" stroke="#000000" stroke-width="0.2834" stroke-miterlimit="3.8636" points="65.446,15.678 66.725,14.399 
		68.003,15.678 	"/>
	<polyline fill="none" stroke="#000000" stroke-width="0.2834" stroke-miterlimit="3.8636" points="68.224,18.456 69.502,17.177 
		70.782,18.456 	"/>
	<polyline fill="none" stroke="#000000" stroke-width="0.2834" stroke-miterlimit="3.8636" points="73.78,18.456 75.059,17.177 
		76.337,18.456 	"/>
	<polyline fill="none" stroke="#000000" stroke-width="0.2834" stroke-miterlimit="3.8636" points="71.002,21.233 72.281,19.955 
		73.559,21.233 	"/>
	<polyline fill="none" stroke="#000000" stroke-width="0.2834" stroke-miterlimit="3.8636" points="65.446,21.233 66.725,19.955 
		68.003,21.233 	"/>
</g>
<g>
	<rect x="76.337" y="10.926" fill="none" width="1.331" height="11.421"/>
	<polyline fill="none" stroke="#000000" stroke-width="0.2834" stroke-miterlimit="3.8636" points="79.116,12.899 80.394,11.621 
		81.672,12.899 	"/>
	<polyline fill="none" stroke="#000000" stroke-width="0.2834" stroke-miterlimit="3.8636" points="84.671,12.899 85.95,11.621 
		87.228,12.899 	"/>
	<polyline fill="none" stroke="#000000" stroke-width="0.2834" stroke-miterlimit="3.8636" points="81.893,15.678 83.172,14.399 
		84.451,15.678 	"/>
	<polyline fill="none" stroke="#000000" stroke-width="0.2834" stroke-miterlimit="3.8636" points="76.337,15.678 77.616,14.399 
		78.895,15.678 	"/>
	<polyline fill="none" stroke="#000000" stroke-width="0.2834" stroke-miterlimit="3.8636" points="79.116,18.456 80.394,17.177 
		81.672,18.456 	"/>
	<polyline fill="none" stroke="#000000" stroke-width="0.2834" stroke-miterlimit="3.8636" points="84.671,18.456 85.95,17.177 
		87.228,18.456 	"/>
	<polyline fill="none" stroke="#000000" stroke-width="0.2834" stroke-miterlimit="3.8636" points="81.893,21.233 83.172,19.955 
		84.451,21.233 	"/>
	<polyline fill="none" stroke="#000000" stroke-width="0.2834" stroke-miterlimit="3.8636" points="76.337,21.233 77.616,19.955 
		78.895,21.233 	"/>
</g>
<g>
	<rect x="7.168" y="5.778" fill="none" width="3.823" height="5.148"/>
	<polyline fill="none" stroke="#000000" stroke-width="0.2834" stroke-miterlimit="3.8636" points="2.878,1.479 4.157,0.2 
		5.435,1.479 	"/>
	<polyline fill="none" stroke="#000000" stroke-width="0.2834" stroke-miterlimit="3.8636" points="8.434,1.479 9.712,0.2 
		10.991,1.479 	"/>
	<polyline fill="none" stroke="#000000" stroke-width="0.2834" stroke-miterlimit="3.8636" points="5.656,4.257 6.935,2.978 
		8.213,4.257 	"/>
	<polyline fill="none" stroke="#000000" stroke-width="0.2834" stroke-miterlimit="3.8636" points="0.1,4.257 1.378,2.978 
		2.657,4.257 	"/>
	<polyline fill="none" stroke="#000000" stroke-width="0.2834" stroke-miterlimit="3.8636" points="2.878,7.035 4.157,5.756 
		5.435,7.035 	"/>
	<polyline fill="none" stroke="#000000" stroke-width="0.2834" stroke-miterlimit="3.8636" points="8.434,7.035 9.712,5.756 
		10.991,7.035 	"/>
	<polyline fill="none" stroke="#000000" stroke-width="0.2834" stroke-miterlimit="3.8636" points="5.656,9.813 6.935,8.534 
		8.213,9.813 	"/>
	<polyline fill="none" stroke="#000000" stroke-width="0.2834" stroke-miterlimit="3.8636" points="0.1,9.813 1.378,8.534 
		2.657,9.813 	"/>
</g>
<g>
	<rect x="10.991" y="5.778" fill="none" width="10.891" height="5.148"/>
	<polyline fill="none" stroke="#000000" stroke-width="0.2834" stroke-miterlimit="3.8636" points="13.769,1.479 15.048,0.2 
		16.327,1.479 	"/>
	<polyline fill="none" stroke="#000000" stroke-width="0.2834" stroke-miterlimit="3.8636" points="19.325,1.479 20.604,0.2 
		21.882,1.479 	"/>
	<polyline fill="none" stroke="#000000" stroke-width="0.2834" stroke-miterlimit="3.8636" points="16.547,4.257 17.826,2.978 
		19.104,4.257 	"/>
	<polyline fill="none" stroke="#000000" stroke-width="0.2834" stroke-miterlimit="3.8636" points="10.991,4.257 12.27,2.978 
		13.548,4.257 	"/>
	<polyline fill="none" stroke="#000000" stroke-width="0.2834" stroke-miterlimit="3.8636" points="13.769,7.035 15.048,5.756 
		16.327,7.035 	"/>
	<polyline fill="none" stroke="#000000" stroke-width="0.2834" stroke-miterlimit="3.8636" points="19.325,7.035 20.604,5.756 
		21.882,7.035 	"/>
	<polyline fill="none" stroke="#000000" stroke-width="0.2834" stroke-miterlimit="3.8636" points="16.547,9.813 17.826,8.534 
		19.104,9.813 	"/>
	<polyline fill="none" stroke="#000000" stroke-width="0.2834" stroke-miterlimit="3.8636" points="10.991,9.813 12.27,8.534 
		13.548,9.813 	"/>
</g>
<g>
	<rect x="21.882" y="5.778" fill="none" width="10.891" height="5.148"/>
	<polyline fill="none" stroke="#000000" stroke-width="0.2834" stroke-miterlimit="3.8636" points="24.66,1.479 25.939,0.2 
		27.217,1.479 	"/>
	<polyline fill="none" stroke="#000000" stroke-width="0.2834" stroke-miterlimit="3.8636" points="30.216,1.479 31.495,0.2 
		32.773,1.479 	"/>
	<polyline fill="none" stroke="#000000" stroke-width="0.2834" stroke-miterlimit="3.8636" points="27.438,4.257 28.717,2.978 
		29.996,4.257 	"/>
	<polyline fill="none" stroke="#000000" stroke-width="0.2834" stroke-miterlimit="3.8636" points="21.882,4.257 23.161,2.978 
		24.439,4.257 	"/>
	<polyline fill="none" stroke="#000000" stroke-width="0.2834" stroke-miterlimit="3.8636" points="24.66,7.035 25.939,5.756 
		27.217,7.035 	"/>
	<polyline fill="none" stroke="#000000" stroke-width="0.2834" stroke-miterlimit="3.8636" points="30.216,7.035 31.495,5.756 
		32.773,7.035 	"/>
	<polyline fill="none" stroke="#000000" stroke-width="0.2834" stroke-miterlimit="3.8636" points="27.438,9.813 28.717,8.534 
		29.996,9.813 	"/>
	<polyline fill="none" stroke="#000000" stroke-width="0.2834" stroke-miterlimit="3.8636" points="21.882,9.813 23.161,8.534 
		24.439,9.813 	"/>
</g>
<g>
	<rect x="32.773" y="5.778" fill="none" width="10.892" height="5.148"/>
	<polyline fill="none" stroke="#000000" stroke-width="0.2834" stroke-miterlimit="3.8636" points="35.551,1.479 36.83,0.2 
		38.108,1.479 	"/>
	<polyline fill="none" stroke="#000000" stroke-width="0.2834" stroke-miterlimit="3.8636" points="41.107,1.479 42.386,0.2 
		43.664,1.479 	"/>
	<polyline fill="none" stroke="#000000" stroke-width="0.2834" stroke-miterlimit="3.8636" points="38.329,4.257 39.608,2.978 
		40.886,4.257 	"/>
	<polyline fill="none" stroke="#000000" stroke-width="0.2834" stroke-miterlimit="3.8636" points="32.773,4.257 34.052,2.978 
		35.331,4.257 	"/>
	<polyline fill="none" stroke="#000000" stroke-width="0.2834" stroke-miterlimit="3.8636" points="35.551,7.035 36.83,5.756 
		38.108,7.035 	"/>
	<polyline fill="none" stroke="#000000" stroke-width="0.2834" stroke-miterlimit="3.8636" points="41.107,7.035 42.386,5.756 
		43.664,7.035 	"/>
	<polyline fill="none" stroke="#000000" stroke-width="0.2834" stroke-miterlimit="3.8636" points="38.329,9.813 39.608,8.534 
		40.886,9.813 	"/>
	<polyline fill="none" stroke="#000000" stroke-width="0.2834" stroke-miterlimit="3.8636" points="32.773,9.813 34.052,8.534 
		35.331,9.813 	"/>
</g>
<g>
	<rect x="43.665" y="5.778" fill="none" width="10.891" height="5.148"/>
	<polyline fill="none" stroke="#000000" stroke-width="0.2834" stroke-miterlimit="3.8636" points="46.442,1.479 47.721,0.2 
		49,1.479 	"/>
	<polyline fill="none" stroke="#000000" stroke-width="0.2834" stroke-miterlimit="3.8636" points="51.999,1.479 53.277,0.2 
		54.555,1.479 	"/>
	<polyline fill="none" stroke="#000000" stroke-width="0.2834" stroke-miterlimit="3.8636" points="49.22,4.257 50.499,2.978 
		51.778,4.257 	"/>
	<polyline fill="none" stroke="#000000" stroke-width="0.2834" stroke-miterlimit="3.8636" points="43.665,4.257 44.943,2.978 
		46.221,4.257 	"/>
	<polyline fill="none" stroke="#000000" stroke-width="0.2834" stroke-miterlimit="3.8636" points="46.442,7.035 47.721,5.756 
		49,7.035 	"/>
	<polyline fill="none" stroke="#000000" stroke-width="0.2834" stroke-miterlimit="3.8636" points="51.999,7.035 53.277,5.756 
		54.555,7.035 	"/>
	<polyline fill="none" stroke="#000000" stroke-width="0.2834" stroke-miterlimit="3.8636" points="49.22,9.813 50.499,8.534 
		51.778,9.813 	"/>
	<polyline fill="none" stroke="#000000" stroke-width="0.2834" stroke-miterlimit="3.8636" points="43.665,9.813 44.943,8.534 
		46.221,9.813 	"/>
</g>
<g>
	<rect x="54.555" y="5.778" fill="none" width="10.891" height="5.148"/>
	<polyline fill="none" stroke="#000000" stroke-width="0.2834" stroke-miterlimit="3.8636" points="57.333,1.479 58.612,0.2 
		59.891,1.479 	"/>
	<polyline fill="none" stroke="#000000" stroke-width="0.2834" stroke-miterlimit="3.8636" points="62.889,1.479 64.167,0.2 
		65.446,1.479 	"/>
	<polyline fill="none" stroke="#000000" stroke-width="0.2834" stroke-miterlimit="3.8636" points="60.112,4.257 61.39,2.978 
		62.668,4.257 	"/>
	<polyline fill="none" stroke="#000000" stroke-width="0.2834" stroke-miterlimit="3.8636" points="54.555,4.257 55.834,2.978 
		57.113,4.257 	"/>
	<polyline fill="none" stroke="#000000" stroke-width="0.2834" stroke-miterlimit="3.8636" points="57.333,7.035 58.612,5.756 
		59.891,7.035 	"/>
	<polyline fill="none" stroke="#000000" stroke-width="0.2834" stroke-miterlimit="3.8636" points="62.889,7.035 64.167,5.756 
		65.446,7.035 	"/>
	<polyline fill="none" stroke="#000000" stroke-width="0.2834" stroke-miterlimit="3.8636" points="60.112,9.813 61.39,8.534 
		62.668,9.813 	"/>
	<polyline fill="none" stroke="#000000" stroke-width="0.2834" stroke-miterlimit="3.8636" points="54.555,9.813 55.834,8.534 
		57.113,9.813 	"/>
</g>
<g>
	<rect x="65.446" y="5.778" fill="none" width="10.892" height="5.148"/>
	<polyline fill="none" stroke="#000000" stroke-width="0.2834" stroke-miterlimit="3.8636" points="68.224,1.479 69.502,0.2 
		70.782,1.479 	"/>
	<polyline fill="none" stroke="#000000" stroke-width="0.2834" stroke-miterlimit="3.8636" points="73.78,1.479 75.059,0.2 
		76.337,1.479 	"/>
	<polyline fill="none" stroke="#000000" stroke-width="0.2834" stroke-miterlimit="3.8636" points="71.002,4.257 72.281,2.978 
		73.559,4.257 	"/>
	<polyline fill="none" stroke="#000000" stroke-width="0.2834" stroke-miterlimit="3.8636" points="65.446,4.257 66.725,2.978 
		68.003,4.257 	"/>
	<polyline fill="none" stroke="#000000" stroke-width="0.2834" stroke-miterlimit="3.8636" points="68.224,7.035 69.502,5.756 
		70.782,7.035 	"/>
	<polyline fill="none" stroke="#000000" stroke-width="0.2834" stroke-miterlimit="3.8636" points="73.78,7.035 75.059,5.756 
		76.337,7.035 	"/>
	<polyline fill="none" stroke="#000000" stroke-width="0.2834" stroke-miterlimit="3.8636" points="71.002,9.813 72.281,8.534 
		73.559,9.813 	"/>
	<polyline fill="none" stroke="#000000" stroke-width="0.2834" stroke-miterlimit="3.8636" points="65.446,9.813 66.725,8.534 
		68.003,9.813 	"/>
</g>
<g>
	<rect x="76.337" y="5.778" fill="none" width="1.331" height="5.148"/>
	<polyline fill="none" stroke="#000000" stroke-width="0.2834" stroke-miterlimit="3.8636" points="79.116,1.479 80.394,0.2 
		81.672,1.479 	"/>
	<polyline fill="none" stroke="#000000" stroke-width="0.2834" stroke-miterlimit="3.8636" points="84.671,1.479 85.95,0.2 
		87.228,1.479 	"/>
	<polyline fill="none" stroke="#000000" stroke-width="0.2834" stroke-miterlimit="3.8636" points="81.893,4.257 83.172,2.978 
		84.451,4.257 	"/>
	<polyline fill="none" stroke="#000000" stroke-width="0.2834" stroke-miterlimit="3.8636" points="76.337,4.257 77.616,2.978 
		78.895,4.257 	"/>
	<polyline fill="none" stroke="#000000" stroke-width="0.2834" stroke-miterlimit="3.8636" points="79.116,7.035 80.394,5.756 
		81.672,7.035 	"/>
	<polyline fill="none" stroke="#000000" stroke-width="0.2834" stroke-miterlimit="3.8636" points="84.671,7.035 85.95,5.756 
		87.228,7.035 	"/>
	<polyline fill="none" stroke="#000000" stroke-width="0.2834" stroke-miterlimit="3.8636" points="81.893,9.813 83.172,8.534 
		84.451,9.813 	"/>
	<polyline fill="none" stroke="#000000" stroke-width="0.2834" stroke-miterlimit="3.8636" points="76.337,9.813 77.616,8.534 
		78.895,9.813 	"/>
</g>
</svg>
