<?xml version="1.0" encoding="utf-8"?>
<!-- Generator: Adobe Illustrator 12.0.0, SVG Export Plug-In . SVG Version: 6.00 Build 51448)  -->
<!DOCTYPE svg PUBLIC "-//W3C//DTD SVG 1.1//EN" "http://www.w3.org/Graphics/SVG/1.1/DTD/svg11.dtd" [
	<!ENTITY ns_svg "http://www.w3.org/2000/svg">
	<!ENTITY ns_xlink "http://www.w3.org/1999/xlink">
]>
<svg  version="1.1" id="Layer_1" xmlns="&ns_svg;" xmlns:xlink="&ns_xlink;" width="75.005" height="43.143"
	 viewBox="0 0 75.005 43.143" overflow="visible" enable-background="new 0 0 75.005 43.143" xml:space="preserve">
<rect x="0.226" y="10.933" fill="none" width="67" height="31"/>
<g>
	<rect x="0.226" y="32.286" fill="none" width="10.49" height="9.646"/>
	
		<line fill="none" stroke="#000000" stroke-width="0.2834" stroke-miterlimit="3.8636" x1="0" y1="35.858" x2="10.715" y2="35.858"/>
	
		<line fill="none" stroke="#000000" stroke-width="0.2834" stroke-miterlimit="3.8636" x1="0" y1="34.073" x2="10.715" y2="34.073"/>
	
		<line fill="none" stroke="#000000" stroke-width="0.2834" stroke-miterlimit="3.8636" x1="0" y1="32.286" x2="10.715" y2="32.286"/>
	
		<line fill="none" stroke="#000000" stroke-width="0.2834" stroke-miterlimit="3.8636" x1="0" y1="39.429" x2="10.715" y2="39.429"/>
	
		<line fill="none" stroke="#000000" stroke-width="0.2834" stroke-miterlimit="3.8636" x1="0" y1="41.215" x2="10.715" y2="41.215"/>
	
		<line fill="none" stroke="#000000" stroke-width="0.2834" stroke-miterlimit="3.8636" x1="0" y1="37.643" x2="10.715" y2="37.643"/>
	<line fill="none" stroke="#000000" stroke-width="0.2834" stroke-miterlimit="3.8636" x1="0" y1="43" x2="10.715" y2="43"/>
</g>
<g>
	<rect x="10.715" y="32.286" fill="none" width="10.715" height="9.646"/>
	
		<line fill="none" stroke="#000000" stroke-width="0.2834" stroke-miterlimit="3.8636" x1="10.715" y1="35.858" x2="21.43" y2="35.858"/>
	
		<line fill="none" stroke="#000000" stroke-width="0.2834" stroke-miterlimit="3.8636" x1="10.715" y1="34.073" x2="21.43" y2="34.073"/>
	
		<line fill="none" stroke="#000000" stroke-width="0.2834" stroke-miterlimit="3.8636" x1="10.715" y1="32.286" x2="21.43" y2="32.286"/>
	
		<line fill="none" stroke="#000000" stroke-width="0.2834" stroke-miterlimit="3.8636" x1="10.715" y1="39.429" x2="21.43" y2="39.429"/>
	
		<line fill="none" stroke="#000000" stroke-width="0.2834" stroke-miterlimit="3.8636" x1="10.715" y1="41.215" x2="21.43" y2="41.215"/>
	
		<line fill="none" stroke="#000000" stroke-width="0.2834" stroke-miterlimit="3.8636" x1="10.715" y1="37.643" x2="21.43" y2="37.643"/>
	<line fill="none" stroke="#000000" stroke-width="0.2834" stroke-miterlimit="3.8636" x1="10.715" y1="43" x2="21.43" y2="43"/>
</g>
<g>
	<rect x="21.43" y="32.286" fill="none" width="10.715" height="9.646"/>
	
		<line fill="none" stroke="#000000" stroke-width="0.2834" stroke-miterlimit="3.8636" x1="21.43" y1="35.858" x2="32.145" y2="35.858"/>
	
		<line fill="none" stroke="#000000" stroke-width="0.2834" stroke-miterlimit="3.8636" x1="21.43" y1="34.073" x2="32.145" y2="34.073"/>
	
		<line fill="none" stroke="#000000" stroke-width="0.2834" stroke-miterlimit="3.8636" x1="21.43" y1="32.286" x2="32.145" y2="32.286"/>
	
		<line fill="none" stroke="#000000" stroke-width="0.2834" stroke-miterlimit="3.8636" x1="21.43" y1="39.429" x2="32.145" y2="39.429"/>
	
		<line fill="none" stroke="#000000" stroke-width="0.2834" stroke-miterlimit="3.8636" x1="21.43" y1="41.215" x2="32.145" y2="41.215"/>
	
		<line fill="none" stroke="#000000" stroke-width="0.2834" stroke-miterlimit="3.8636" x1="21.43" y1="37.643" x2="32.145" y2="37.643"/>
	<line fill="none" stroke="#000000" stroke-width="0.2834" stroke-miterlimit="3.8636" x1="21.43" y1="43" x2="32.145" y2="43"/>
</g>
<g>
	<rect x="32.145" y="32.286" fill="none" width="10.715" height="9.646"/>
	
		<line fill="none" stroke="#000000" stroke-width="0.2834" stroke-miterlimit="3.8636" x1="32.145" y1="35.858" x2="42.86" y2="35.858"/>
	
		<line fill="none" stroke="#000000" stroke-width="0.2834" stroke-miterlimit="3.8636" x1="32.145" y1="34.073" x2="42.86" y2="34.073"/>
	
		<line fill="none" stroke="#000000" stroke-width="0.2834" stroke-miterlimit="3.8636" x1="32.145" y1="32.286" x2="42.86" y2="32.286"/>
	
		<line fill="none" stroke="#000000" stroke-width="0.2834" stroke-miterlimit="3.8636" x1="32.145" y1="39.429" x2="42.86" y2="39.429"/>
	
		<line fill="none" stroke="#000000" stroke-width="0.2834" stroke-miterlimit="3.8636" x1="32.145" y1="41.215" x2="42.86" y2="41.215"/>
	
		<line fill="none" stroke="#000000" stroke-width="0.2834" stroke-miterlimit="3.8636" x1="32.145" y1="37.643" x2="42.86" y2="37.643"/>
	<line fill="none" stroke="#000000" stroke-width="0.2834" stroke-miterlimit="3.8636" x1="32.145" y1="43" x2="42.86" y2="43"/>
</g>
<g>
	<rect x="42.86" y="32.286" fill="none" width="10.715" height="9.646"/>
	
		<line fill="none" stroke="#000000" stroke-width="0.2834" stroke-miterlimit="3.8636" x1="42.86" y1="35.858" x2="53.575" y2="35.858"/>
	
		<line fill="none" stroke="#000000" stroke-width="0.2834" stroke-miterlimit="3.8636" x1="42.86" y1="34.073" x2="53.575" y2="34.073"/>
	
		<line fill="none" stroke="#000000" stroke-width="0.2834" stroke-miterlimit="3.8636" x1="42.86" y1="32.286" x2="53.575" y2="32.286"/>
	
		<line fill="none" stroke="#000000" stroke-width="0.2834" stroke-miterlimit="3.8636" x1="42.86" y1="39.429" x2="53.575" y2="39.429"/>
	
		<line fill="none" stroke="#000000" stroke-width="0.2834" stroke-miterlimit="3.8636" x1="42.86" y1="41.215" x2="53.575" y2="41.215"/>
	
		<line fill="none" stroke="#000000" stroke-width="0.2834" stroke-miterlimit="3.8636" x1="42.86" y1="37.643" x2="53.575" y2="37.643"/>
	<line fill="none" stroke="#000000" stroke-width="0.2834" stroke-miterlimit="3.8636" x1="42.86" y1="43" x2="53.575" y2="43"/>
</g>
<g>
	<rect x="53.575" y="32.286" fill="none" width="10.715" height="9.646"/>
	
		<line fill="none" stroke="#000000" stroke-width="0.2834" stroke-miterlimit="3.8636" x1="53.575" y1="35.858" x2="64.29" y2="35.858"/>
	
		<line fill="none" stroke="#000000" stroke-width="0.2834" stroke-miterlimit="3.8636" x1="53.575" y1="34.073" x2="64.29" y2="34.073"/>
	
		<line fill="none" stroke="#000000" stroke-width="0.2834" stroke-miterlimit="3.8636" x1="53.575" y1="32.286" x2="64.29" y2="32.286"/>
	
		<line fill="none" stroke="#000000" stroke-width="0.2834" stroke-miterlimit="3.8636" x1="53.575" y1="39.429" x2="64.29" y2="39.429"/>
	
		<line fill="none" stroke="#000000" stroke-width="0.2834" stroke-miterlimit="3.8636" x1="53.575" y1="41.215" x2="64.29" y2="41.215"/>
	
		<line fill="none" stroke="#000000" stroke-width="0.2834" stroke-miterlimit="3.8636" x1="53.575" y1="37.643" x2="64.29" y2="37.643"/>
	<line fill="none" stroke="#000000" stroke-width="0.2834" stroke-miterlimit="3.8636" x1="53.575" y1="43" x2="64.29" y2="43"/>
</g>
<g>
	<rect x="64.29" y="32.286" fill="none" width="2.936" height="9.646"/>
	
		<line fill="none" stroke="#000000" stroke-width="0.2834" stroke-miterlimit="3.8636" x1="64.29" y1="35.858" x2="75.005" y2="35.858"/>
	
		<line fill="none" stroke="#000000" stroke-width="0.2834" stroke-miterlimit="3.8636" x1="64.29" y1="34.073" x2="75.005" y2="34.073"/>
	
		<line fill="none" stroke="#000000" stroke-width="0.2834" stroke-miterlimit="3.8636" x1="64.29" y1="32.286" x2="75.005" y2="32.286"/>
	
		<line fill="none" stroke="#000000" stroke-width="0.2834" stroke-miterlimit="3.8636" x1="64.29" y1="39.429" x2="75.005" y2="39.429"/>
	
		<line fill="none" stroke="#000000" stroke-width="0.2834" stroke-miterlimit="3.8636" x1="64.29" y1="41.215" x2="75.005" y2="41.215"/>
	
		<line fill="none" stroke="#000000" stroke-width="0.2834" stroke-miterlimit="3.8636" x1="64.29" y1="37.643" x2="75.005" y2="37.643"/>
	<line fill="none" stroke="#000000" stroke-width="0.2834" stroke-miterlimit="3.8636" x1="64.29" y1="43" x2="75.005" y2="43"/>
</g>
<g>
	<rect x="0.226" y="21.571" fill="none" width="10.49" height="10.715"/>
	
		<line fill="none" stroke="#000000" stroke-width="0.2834" stroke-miterlimit="3.8636" x1="0" y1="25.143" x2="10.715" y2="25.143"/>
	
		<line fill="none" stroke="#000000" stroke-width="0.2834" stroke-miterlimit="3.8636" x1="0" y1="23.358" x2="10.715" y2="23.358"/>
	
		<line fill="none" stroke="#000000" stroke-width="0.2834" stroke-miterlimit="3.8636" x1="0" y1="21.571" x2="10.715" y2="21.571"/>
	
		<line fill="none" stroke="#000000" stroke-width="0.2834" stroke-miterlimit="3.8636" x1="0" y1="28.714" x2="10.715" y2="28.714"/>
	<line fill="none" stroke="#000000" stroke-width="0.2834" stroke-miterlimit="3.8636" x1="0" y1="30.5" x2="10.715" y2="30.5"/>
	
		<line fill="none" stroke="#000000" stroke-width="0.2834" stroke-miterlimit="3.8636" x1="0" y1="26.928" x2="10.715" y2="26.928"/>
	
		<line fill="none" stroke="#000000" stroke-width="0.2834" stroke-miterlimit="3.8636" x1="0" y1="32.286" x2="10.715" y2="32.286"/>
</g>
<g>
	<rect x="10.715" y="21.571" fill="none" width="10.715" height="10.715"/>
	
		<line fill="none" stroke="#000000" stroke-width="0.2834" stroke-miterlimit="3.8636" x1="10.715" y1="25.143" x2="21.43" y2="25.143"/>
	
		<line fill="none" stroke="#000000" stroke-width="0.2834" stroke-miterlimit="3.8636" x1="10.715" y1="23.358" x2="21.43" y2="23.358"/>
	
		<line fill="none" stroke="#000000" stroke-width="0.2834" stroke-miterlimit="3.8636" x1="10.715" y1="21.571" x2="21.43" y2="21.571"/>
	
		<line fill="none" stroke="#000000" stroke-width="0.2834" stroke-miterlimit="3.8636" x1="10.715" y1="28.714" x2="21.43" y2="28.714"/>
	
		<line fill="none" stroke="#000000" stroke-width="0.2834" stroke-miterlimit="3.8636" x1="10.715" y1="30.5" x2="21.43" y2="30.5"/>
	
		<line fill="none" stroke="#000000" stroke-width="0.2834" stroke-miterlimit="3.8636" x1="10.715" y1="26.928" x2="21.43" y2="26.928"/>
	
		<line fill="none" stroke="#000000" stroke-width="0.2834" stroke-miterlimit="3.8636" x1="10.715" y1="32.286" x2="21.43" y2="32.286"/>
</g>
<g>
	<rect x="21.43" y="21.571" fill="none" width="10.715" height="10.715"/>
	
		<line fill="none" stroke="#000000" stroke-width="0.2834" stroke-miterlimit="3.8636" x1="21.43" y1="25.143" x2="32.145" y2="25.143"/>
	
		<line fill="none" stroke="#000000" stroke-width="0.2834" stroke-miterlimit="3.8636" x1="21.43" y1="23.358" x2="32.145" y2="23.358"/>
	
		<line fill="none" stroke="#000000" stroke-width="0.2834" stroke-miterlimit="3.8636" x1="21.43" y1="21.571" x2="32.145" y2="21.571"/>
	
		<line fill="none" stroke="#000000" stroke-width="0.2834" stroke-miterlimit="3.8636" x1="21.43" y1="28.714" x2="32.145" y2="28.714"/>
	
		<line fill="none" stroke="#000000" stroke-width="0.2834" stroke-miterlimit="3.8636" x1="21.43" y1="30.5" x2="32.145" y2="30.5"/>
	
		<line fill="none" stroke="#000000" stroke-width="0.2834" stroke-miterlimit="3.8636" x1="21.43" y1="26.928" x2="32.145" y2="26.928"/>
	
		<line fill="none" stroke="#000000" stroke-width="0.2834" stroke-miterlimit="3.8636" x1="21.43" y1="32.286" x2="32.145" y2="32.286"/>
</g>
<g>
	<rect x="32.145" y="21.571" fill="none" width="10.715" height="10.715"/>
	
		<line fill="none" stroke="#000000" stroke-width="0.2834" stroke-miterlimit="3.8636" x1="32.145" y1="25.143" x2="42.86" y2="25.143"/>
	
		<line fill="none" stroke="#000000" stroke-width="0.2834" stroke-miterlimit="3.8636" x1="32.145" y1="23.358" x2="42.86" y2="23.358"/>
	
		<line fill="none" stroke="#000000" stroke-width="0.2834" stroke-miterlimit="3.8636" x1="32.145" y1="21.571" x2="42.86" y2="21.571"/>
	
		<line fill="none" stroke="#000000" stroke-width="0.2834" stroke-miterlimit="3.8636" x1="32.145" y1="28.714" x2="42.86" y2="28.714"/>
	
		<line fill="none" stroke="#000000" stroke-width="0.2834" stroke-miterlimit="3.8636" x1="32.145" y1="30.5" x2="42.86" y2="30.5"/>
	
		<line fill="none" stroke="#000000" stroke-width="0.2834" stroke-miterlimit="3.8636" x1="32.145" y1="26.928" x2="42.86" y2="26.928"/>
	
		<line fill="none" stroke="#000000" stroke-width="0.2834" stroke-miterlimit="3.8636" x1="32.145" y1="32.286" x2="42.86" y2="32.286"/>
</g>
<g>
	<rect x="42.86" y="21.571" fill="none" width="10.715" height="10.715"/>
	
		<line fill="none" stroke="#000000" stroke-width="0.2834" stroke-miterlimit="3.8636" x1="42.86" y1="25.143" x2="53.575" y2="25.143"/>
	
		<line fill="none" stroke="#000000" stroke-width="0.2834" stroke-miterlimit="3.8636" x1="42.86" y1="23.358" x2="53.575" y2="23.358"/>
	
		<line fill="none" stroke="#000000" stroke-width="0.2834" stroke-miterlimit="3.8636" x1="42.86" y1="21.571" x2="53.575" y2="21.571"/>
	
		<line fill="none" stroke="#000000" stroke-width="0.2834" stroke-miterlimit="3.8636" x1="42.86" y1="28.714" x2="53.575" y2="28.714"/>
	
		<line fill="none" stroke="#000000" stroke-width="0.2834" stroke-miterlimit="3.8636" x1="42.86" y1="30.5" x2="53.575" y2="30.5"/>
	
		<line fill="none" stroke="#000000" stroke-width="0.2834" stroke-miterlimit="3.8636" x1="42.86" y1="26.928" x2="53.575" y2="26.928"/>
	
		<line fill="none" stroke="#000000" stroke-width="0.2834" stroke-miterlimit="3.8636" x1="42.86" y1="32.286" x2="53.575" y2="32.286"/>
</g>
<g>
	<rect x="53.575" y="21.571" fill="none" width="10.715" height="10.715"/>
	
		<line fill="none" stroke="#000000" stroke-width="0.2834" stroke-miterlimit="3.8636" x1="53.575" y1="25.143" x2="64.29" y2="25.143"/>
	
		<line fill="none" stroke="#000000" stroke-width="0.2834" stroke-miterlimit="3.8636" x1="53.575" y1="23.358" x2="64.29" y2="23.358"/>
	
		<line fill="none" stroke="#000000" stroke-width="0.2834" stroke-miterlimit="3.8636" x1="53.575" y1="21.571" x2="64.29" y2="21.571"/>
	
		<line fill="none" stroke="#000000" stroke-width="0.2834" stroke-miterlimit="3.8636" x1="53.575" y1="28.714" x2="64.29" y2="28.714"/>
	
		<line fill="none" stroke="#000000" stroke-width="0.2834" stroke-miterlimit="3.8636" x1="53.575" y1="30.5" x2="64.29" y2="30.5"/>
	
		<line fill="none" stroke="#000000" stroke-width="0.2834" stroke-miterlimit="3.8636" x1="53.575" y1="26.928" x2="64.29" y2="26.928"/>
	
		<line fill="none" stroke="#000000" stroke-width="0.2834" stroke-miterlimit="3.8636" x1="53.575" y1="32.286" x2="64.29" y2="32.286"/>
</g>
<g>
	<rect x="64.29" y="21.571" fill="none" width="2.936" height="10.715"/>
	
		<line fill="none" stroke="#000000" stroke-width="0.2834" stroke-miterlimit="3.8636" x1="64.29" y1="25.143" x2="75.005" y2="25.143"/>
	
		<line fill="none" stroke="#000000" stroke-width="0.2834" stroke-miterlimit="3.8636" x1="64.29" y1="23.358" x2="75.005" y2="23.358"/>
	
		<line fill="none" stroke="#000000" stroke-width="0.2834" stroke-miterlimit="3.8636" x1="64.29" y1="21.571" x2="75.005" y2="21.571"/>
	
		<line fill="none" stroke="#000000" stroke-width="0.2834" stroke-miterlimit="3.8636" x1="64.29" y1="28.714" x2="75.005" y2="28.714"/>
	
		<line fill="none" stroke="#000000" stroke-width="0.2834" stroke-miterlimit="3.8636" x1="64.29" y1="30.5" x2="75.005" y2="30.5"/>
	
		<line fill="none" stroke="#000000" stroke-width="0.2834" stroke-miterlimit="3.8636" x1="64.29" y1="26.928" x2="75.005" y2="26.928"/>
	
		<line fill="none" stroke="#000000" stroke-width="0.2834" stroke-miterlimit="3.8636" x1="64.29" y1="32.286" x2="75.005" y2="32.286"/>
</g>
<g>
	<rect x="0.226" y="10.933" fill="none" width="10.49" height="10.638"/>
	
		<line fill="none" stroke="#000000" stroke-width="0.2834" stroke-miterlimit="3.8636" x1="0" y1="14.428" x2="10.715" y2="14.428"/>
	
		<line fill="none" stroke="#000000" stroke-width="0.2834" stroke-miterlimit="3.8636" x1="0" y1="12.642" x2="10.715" y2="12.642"/>
	
		<line fill="none" stroke="#000000" stroke-width="0.2834" stroke-miterlimit="3.8636" x1="0" y1="10.856" x2="10.715" y2="10.856"/>
	<line fill="none" stroke="#000000" stroke-width="0.2834" stroke-miterlimit="3.8636" x1="0" y1="18" x2="10.715" y2="18"/>
	
		<line fill="none" stroke="#000000" stroke-width="0.2834" stroke-miterlimit="3.8636" x1="0" y1="19.786" x2="10.715" y2="19.786"/>
	
		<line fill="none" stroke="#000000" stroke-width="0.2834" stroke-miterlimit="3.8636" x1="0" y1="16.214" x2="10.715" y2="16.214"/>
	
		<line fill="none" stroke="#000000" stroke-width="0.2834" stroke-miterlimit="3.8636" x1="0" y1="21.571" x2="10.715" y2="21.571"/>
</g>
<g>
	<rect x="10.715" y="10.933" fill="none" width="10.715" height="10.638"/>
	
		<line fill="none" stroke="#000000" stroke-width="0.2834" stroke-miterlimit="3.8636" x1="10.715" y1="14.428" x2="21.43" y2="14.428"/>
	
		<line fill="none" stroke="#000000" stroke-width="0.2834" stroke-miterlimit="3.8636" x1="10.715" y1="12.642" x2="21.43" y2="12.642"/>
	
		<line fill="none" stroke="#000000" stroke-width="0.2834" stroke-miterlimit="3.8636" x1="10.715" y1="10.856" x2="21.43" y2="10.856"/>
	<line fill="none" stroke="#000000" stroke-width="0.2834" stroke-miterlimit="3.8636" x1="10.715" y1="18" x2="21.43" y2="18"/>
	
		<line fill="none" stroke="#000000" stroke-width="0.2834" stroke-miterlimit="3.8636" x1="10.715" y1="19.786" x2="21.43" y2="19.786"/>
	
		<line fill="none" stroke="#000000" stroke-width="0.2834" stroke-miterlimit="3.8636" x1="10.715" y1="16.214" x2="21.43" y2="16.214"/>
	
		<line fill="none" stroke="#000000" stroke-width="0.2834" stroke-miterlimit="3.8636" x1="10.715" y1="21.571" x2="21.43" y2="21.571"/>
</g>
<g>
	<rect x="21.43" y="10.933" fill="none" width="10.715" height="10.638"/>
	
		<line fill="none" stroke="#000000" stroke-width="0.2834" stroke-miterlimit="3.8636" x1="21.43" y1="14.428" x2="32.145" y2="14.428"/>
	
		<line fill="none" stroke="#000000" stroke-width="0.2834" stroke-miterlimit="3.8636" x1="21.43" y1="12.642" x2="32.145" y2="12.642"/>
	
		<line fill="none" stroke="#000000" stroke-width="0.2834" stroke-miterlimit="3.8636" x1="21.43" y1="10.856" x2="32.145" y2="10.856"/>
	<line fill="none" stroke="#000000" stroke-width="0.2834" stroke-miterlimit="3.8636" x1="21.43" y1="18" x2="32.145" y2="18"/>
	
		<line fill="none" stroke="#000000" stroke-width="0.2834" stroke-miterlimit="3.8636" x1="21.43" y1="19.786" x2="32.145" y2="19.786"/>
	
		<line fill="none" stroke="#000000" stroke-width="0.2834" stroke-miterlimit="3.8636" x1="21.43" y1="16.214" x2="32.145" y2="16.214"/>
	
		<line fill="none" stroke="#000000" stroke-width="0.2834" stroke-miterlimit="3.8636" x1="21.43" y1="21.571" x2="32.145" y2="21.571"/>
</g>
<g>
	<rect x="32.145" y="10.933" fill="none" width="10.715" height="10.638"/>
	
		<line fill="none" stroke="#000000" stroke-width="0.2834" stroke-miterlimit="3.8636" x1="32.145" y1="14.428" x2="42.86" y2="14.428"/>
	
		<line fill="none" stroke="#000000" stroke-width="0.2834" stroke-miterlimit="3.8636" x1="32.145" y1="12.642" x2="42.86" y2="12.642"/>
	
		<line fill="none" stroke="#000000" stroke-width="0.2834" stroke-miterlimit="3.8636" x1="32.145" y1="10.856" x2="42.86" y2="10.856"/>
	<line fill="none" stroke="#000000" stroke-width="0.2834" stroke-miterlimit="3.8636" x1="32.145" y1="18" x2="42.86" y2="18"/>
	
		<line fill="none" stroke="#000000" stroke-width="0.2834" stroke-miterlimit="3.8636" x1="32.145" y1="19.786" x2="42.86" y2="19.786"/>
	
		<line fill="none" stroke="#000000" stroke-width="0.2834" stroke-miterlimit="3.8636" x1="32.145" y1="16.214" x2="42.86" y2="16.214"/>
	
		<line fill="none" stroke="#000000" stroke-width="0.2834" stroke-miterlimit="3.8636" x1="32.145" y1="21.571" x2="42.86" y2="21.571"/>
</g>
<g>
	<rect x="42.86" y="10.933" fill="none" width="10.715" height="10.638"/>
	
		<line fill="none" stroke="#000000" stroke-width="0.2834" stroke-miterlimit="3.8636" x1="42.86" y1="14.428" x2="53.575" y2="14.428"/>
	
		<line fill="none" stroke="#000000" stroke-width="0.2834" stroke-miterlimit="3.8636" x1="42.86" y1="12.642" x2="53.575" y2="12.642"/>
	
		<line fill="none" stroke="#000000" stroke-width="0.2834" stroke-miterlimit="3.8636" x1="42.86" y1="10.856" x2="53.575" y2="10.856"/>
	<line fill="none" stroke="#000000" stroke-width="0.2834" stroke-miterlimit="3.8636" x1="42.86" y1="18" x2="53.575" y2="18"/>
	
		<line fill="none" stroke="#000000" stroke-width="0.2834" stroke-miterlimit="3.8636" x1="42.86" y1="19.786" x2="53.575" y2="19.786"/>
	
		<line fill="none" stroke="#000000" stroke-width="0.2834" stroke-miterlimit="3.8636" x1="42.86" y1="16.214" x2="53.575" y2="16.214"/>
	
		<line fill="none" stroke="#000000" stroke-width="0.2834" stroke-miterlimit="3.8636" x1="42.86" y1="21.571" x2="53.575" y2="21.571"/>
</g>
<g>
	<rect x="53.575" y="10.933" fill="none" width="10.715" height="10.638"/>
	
		<line fill="none" stroke="#000000" stroke-width="0.2834" stroke-miterlimit="3.8636" x1="53.575" y1="14.428" x2="64.29" y2="14.428"/>
	
		<line fill="none" stroke="#000000" stroke-width="0.2834" stroke-miterlimit="3.8636" x1="53.575" y1="12.642" x2="64.29" y2="12.642"/>
	
		<line fill="none" stroke="#000000" stroke-width="0.2834" stroke-miterlimit="3.8636" x1="53.575" y1="10.856" x2="64.29" y2="10.856"/>
	<line fill="none" stroke="#000000" stroke-width="0.2834" stroke-miterlimit="3.8636" x1="53.575" y1="18" x2="64.29" y2="18"/>
	
		<line fill="none" stroke="#000000" stroke-width="0.2834" stroke-miterlimit="3.8636" x1="53.575" y1="19.786" x2="64.29" y2="19.786"/>
	
		<line fill="none" stroke="#000000" stroke-width="0.2834" stroke-miterlimit="3.8636" x1="53.575" y1="16.214" x2="64.29" y2="16.214"/>
	
		<line fill="none" stroke="#000000" stroke-width="0.2834" stroke-miterlimit="3.8636" x1="53.575" y1="21.571" x2="64.29" y2="21.571"/>
</g>
<g>
	<rect x="64.29" y="10.933" fill="none" width="2.936" height="10.638"/>
	
		<line fill="none" stroke="#000000" stroke-width="0.2834" stroke-miterlimit="3.8636" x1="64.29" y1="14.428" x2="75.005" y2="14.428"/>
	
		<line fill="none" stroke="#000000" stroke-width="0.2834" stroke-miterlimit="3.8636" x1="64.29" y1="12.642" x2="75.005" y2="12.642"/>
	
		<line fill="none" stroke="#000000" stroke-width="0.2834" stroke-miterlimit="3.8636" x1="64.29" y1="10.856" x2="75.005" y2="10.856"/>
	<line fill="none" stroke="#000000" stroke-width="0.2834" stroke-miterlimit="3.8636" x1="64.29" y1="18" x2="75.005" y2="18"/>
	
		<line fill="none" stroke="#000000" stroke-width="0.2834" stroke-miterlimit="3.8636" x1="64.29" y1="19.786" x2="75.005" y2="19.786"/>
	
		<line fill="none" stroke="#000000" stroke-width="0.2834" stroke-miterlimit="3.8636" x1="64.29" y1="16.214" x2="75.005" y2="16.214"/>
	
		<line fill="none" stroke="#000000" stroke-width="0.2834" stroke-miterlimit="3.8636" x1="64.29" y1="21.571" x2="75.005" y2="21.571"/>
</g>
<g>
	<rect x="0.226" y="10.856" fill="none" width="10.49" height="0.076"/>
	<line fill="none" stroke="#000000" stroke-width="0.2834" stroke-miterlimit="3.8636" x1="0" y1="3.713" x2="10.715" y2="3.713"/>
	<line fill="none" stroke="#000000" stroke-width="0.2834" stroke-miterlimit="3.8636" x1="0" y1="1.927" x2="10.715" y2="1.927"/>
	<line fill="none" stroke="#000000" stroke-width="0.2834" stroke-miterlimit="3.8636" x1="0" y1="0.142" x2="10.715" y2="0.142"/>
	<line fill="none" stroke="#000000" stroke-width="0.2834" stroke-miterlimit="3.8636" x1="0" y1="7.285" x2="10.715" y2="7.285"/>
	<line fill="none" stroke="#000000" stroke-width="0.2834" stroke-miterlimit="3.8636" x1="0" y1="9.071" x2="10.715" y2="9.071"/>
	<line fill="none" stroke="#000000" stroke-width="0.2834" stroke-miterlimit="3.8636" x1="0" y1="5.499" x2="10.715" y2="5.499"/>
	
		<line fill="none" stroke="#000000" stroke-width="0.2834" stroke-miterlimit="3.8636" x1="0" y1="10.856" x2="10.715" y2="10.856"/>
</g>
<g>
	<rect x="10.715" y="10.856" fill="none" width="10.715" height="0.076"/>
	
		<line fill="none" stroke="#000000" stroke-width="0.2834" stroke-miterlimit="3.8636" x1="10.715" y1="3.713" x2="21.43" y2="3.713"/>
	
		<line fill="none" stroke="#000000" stroke-width="0.2834" stroke-miterlimit="3.8636" x1="10.715" y1="1.927" x2="21.43" y2="1.927"/>
	
		<line fill="none" stroke="#000000" stroke-width="0.2834" stroke-miterlimit="3.8636" x1="10.715" y1="0.142" x2="21.43" y2="0.142"/>
	
		<line fill="none" stroke="#000000" stroke-width="0.2834" stroke-miterlimit="3.8636" x1="10.715" y1="7.285" x2="21.43" y2="7.285"/>
	
		<line fill="none" stroke="#000000" stroke-width="0.2834" stroke-miterlimit="3.8636" x1="10.715" y1="9.071" x2="21.43" y2="9.071"/>
	
		<line fill="none" stroke="#000000" stroke-width="0.2834" stroke-miterlimit="3.8636" x1="10.715" y1="5.499" x2="21.43" y2="5.499"/>
	
		<line fill="none" stroke="#000000" stroke-width="0.2834" stroke-miterlimit="3.8636" x1="10.715" y1="10.856" x2="21.43" y2="10.856"/>
</g>
<g>
	<rect x="21.43" y="10.856" fill="none" width="10.715" height="0.076"/>
	
		<line fill="none" stroke="#000000" stroke-width="0.2834" stroke-miterlimit="3.8636" x1="21.43" y1="3.713" x2="32.145" y2="3.713"/>
	
		<line fill="none" stroke="#000000" stroke-width="0.2834" stroke-miterlimit="3.8636" x1="21.43" y1="1.927" x2="32.145" y2="1.927"/>
	
		<line fill="none" stroke="#000000" stroke-width="0.2834" stroke-miterlimit="3.8636" x1="21.43" y1="0.142" x2="32.145" y2="0.142"/>
	
		<line fill="none" stroke="#000000" stroke-width="0.2834" stroke-miterlimit="3.8636" x1="21.43" y1="7.285" x2="32.145" y2="7.285"/>
	
		<line fill="none" stroke="#000000" stroke-width="0.2834" stroke-miterlimit="3.8636" x1="21.43" y1="9.071" x2="32.145" y2="9.071"/>
	
		<line fill="none" stroke="#000000" stroke-width="0.2834" stroke-miterlimit="3.8636" x1="21.43" y1="5.499" x2="32.145" y2="5.499"/>
	
		<line fill="none" stroke="#000000" stroke-width="0.2834" stroke-miterlimit="3.8636" x1="21.43" y1="10.856" x2="32.145" y2="10.856"/>
</g>
<g>
	<rect x="32.145" y="10.856" fill="none" width="10.715" height="0.076"/>
	
		<line fill="none" stroke="#000000" stroke-width="0.2834" stroke-miterlimit="3.8636" x1="32.145" y1="3.713" x2="42.86" y2="3.713"/>
	
		<line fill="none" stroke="#000000" stroke-width="0.2834" stroke-miterlimit="3.8636" x1="32.145" y1="1.927" x2="42.86" y2="1.927"/>
	
		<line fill="none" stroke="#000000" stroke-width="0.2834" stroke-miterlimit="3.8636" x1="32.145" y1="0.142" x2="42.86" y2="0.142"/>
	
		<line fill="none" stroke="#000000" stroke-width="0.2834" stroke-miterlimit="3.8636" x1="32.145" y1="7.285" x2="42.86" y2="7.285"/>
	
		<line fill="none" stroke="#000000" stroke-width="0.2834" stroke-miterlimit="3.8636" x1="32.145" y1="9.071" x2="42.86" y2="9.071"/>
	
		<line fill="none" stroke="#000000" stroke-width="0.2834" stroke-miterlimit="3.8636" x1="32.145" y1="5.499" x2="42.86" y2="5.499"/>
	
		<line fill="none" stroke="#000000" stroke-width="0.2834" stroke-miterlimit="3.8636" x1="32.145" y1="10.856" x2="42.86" y2="10.856"/>
</g>
<g>
	<rect x="42.86" y="10.856" fill="none" width="10.715" height="0.076"/>
	
		<line fill="none" stroke="#000000" stroke-width="0.2834" stroke-miterlimit="3.8636" x1="42.86" y1="3.713" x2="53.575" y2="3.713"/>
	
		<line fill="none" stroke="#000000" stroke-width="0.2834" stroke-miterlimit="3.8636" x1="42.86" y1="1.927" x2="53.575" y2="1.927"/>
	
		<line fill="none" stroke="#000000" stroke-width="0.2834" stroke-miterlimit="3.8636" x1="42.86" y1="0.142" x2="53.575" y2="0.142"/>
	
		<line fill="none" stroke="#000000" stroke-width="0.2834" stroke-miterlimit="3.8636" x1="42.86" y1="7.285" x2="53.575" y2="7.285"/>
	
		<line fill="none" stroke="#000000" stroke-width="0.2834" stroke-miterlimit="3.8636" x1="42.86" y1="9.071" x2="53.575" y2="9.071"/>
	
		<line fill="none" stroke="#000000" stroke-width="0.2834" stroke-miterlimit="3.8636" x1="42.86" y1="5.499" x2="53.575" y2="5.499"/>
	
		<line fill="none" stroke="#000000" stroke-width="0.2834" stroke-miterlimit="3.8636" x1="42.86" y1="10.856" x2="53.575" y2="10.856"/>
</g>
<g>
	<rect x="53.575" y="10.856" fill="none" width="10.715" height="0.076"/>
	
		<line fill="none" stroke="#000000" stroke-width="0.2834" stroke-miterlimit="3.8636" x1="53.575" y1="3.713" x2="64.29" y2="3.713"/>
	
		<line fill="none" stroke="#000000" stroke-width="0.2834" stroke-miterlimit="3.8636" x1="53.575" y1="1.927" x2="64.29" y2="1.927"/>
	
		<line fill="none" stroke="#000000" stroke-width="0.2834" stroke-miterlimit="3.8636" x1="53.575" y1="0.142" x2="64.29" y2="0.142"/>
	
		<line fill="none" stroke="#000000" stroke-width="0.2834" stroke-miterlimit="3.8636" x1="53.575" y1="7.285" x2="64.29" y2="7.285"/>
	
		<line fill="none" stroke="#000000" stroke-width="0.2834" stroke-miterlimit="3.8636" x1="53.575" y1="9.071" x2="64.29" y2="9.071"/>
	
		<line fill="none" stroke="#000000" stroke-width="0.2834" stroke-miterlimit="3.8636" x1="53.575" y1="5.499" x2="64.29" y2="5.499"/>
	
		<line fill="none" stroke="#000000" stroke-width="0.2834" stroke-miterlimit="3.8636" x1="53.575" y1="10.856" x2="64.29" y2="10.856"/>
</g>
<g>
	<rect x="64.29" y="10.856" fill="none" width="2.936" height="0.076"/>
	
		<line fill="none" stroke="#000000" stroke-width="0.2834" stroke-miterlimit="3.8636" x1="64.29" y1="3.713" x2="75.005" y2="3.713"/>
	
		<line fill="none" stroke="#000000" stroke-width="0.2834" stroke-miterlimit="3.8636" x1="64.29" y1="1.927" x2="75.005" y2="1.927"/>
	
		<line fill="none" stroke="#000000" stroke-width="0.2834" stroke-miterlimit="3.8636" x1="64.29" y1="0.142" x2="75.005" y2="0.142"/>
	
		<line fill="none" stroke="#000000" stroke-width="0.2834" stroke-miterlimit="3.8636" x1="64.29" y1="7.285" x2="75.005" y2="7.285"/>
	
		<line fill="none" stroke="#000000" stroke-width="0.2834" stroke-miterlimit="3.8636" x1="64.29" y1="9.071" x2="75.005" y2="9.071"/>
	
		<line fill="none" stroke="#000000" stroke-width="0.2834" stroke-miterlimit="3.8636" x1="64.29" y1="5.499" x2="75.005" y2="5.499"/>
	
		<line fill="none" stroke="#000000" stroke-width="0.2834" stroke-miterlimit="3.8636" x1="64.29" y1="10.856" x2="75.005" y2="10.856"/>
</g>
</svg>
