<svg id="Layer_1" data-name="Layer 1" xmlns="http://www.w3.org/2000/svg" viewBox="0 0 17.62 12.27"><defs><style>.cls-1{fill:none;stroke:#000;stroke-miterlimit:10;stroke-width:0.48px;}</style></defs><title>digitate-stromatolites</title><path class="cls-1" d="M2.09,8s0-3.08,2-3.08,1.88,3,1.88,3"/><path class="cls-1" d="M2.09,5.24s0-3.08,2-3.08,1.88,3,1.88,3"/><path class="cls-1" d="M2.13,10.67s0-3.08,2-3.08,1.88,3,1.88,3"/><path class="cls-1" d="M7.14,8s0-3.08,2-3.08,1.88,3,1.88,3"/><path class="cls-1" d="M7.14,5.24s0-3.08,2-3.08,1.88,3,1.88,3"/><path class="cls-1" d="M7.19,10.67s0-3.08,2-3.08,1.88,3,1.88,3"/><path class="cls-1" d="M12,8s0-3.08,2-3.08,1.88,3,1.88,3"/><path class="cls-1" d="M12,5.24s0-3.08,2-3.08,1.88,3,1.88,3"/><path class="cls-1" d="M12.06,10.67s0-3.08,2-3.08,1.88,3,1.88,3"/></svg>