<svg id="Layer_1" data-name="Layer 1" xmlns="http://www.w3.org/2000/svg" xmlns:xlink="http://www.w3.org/1999/xlink" viewBox="0 0 18.63 11.22"><defs><style>.cls-1,.cls-3,.cls-4{fill:none;}.cls-2{clip-path:url(#clip-path);}.cls-3,.cls-4{stroke:#000;stroke-miterlimit:10;}.cls-3{stroke-width:0.57px;}.cls-4{stroke-width:0.15px;}</style><clipPath id="clip-path"><rect class="cls-1" x="0.28" y="0.39" width="18.35" height="10.83"/></clipPath></defs><title>hcs</title><g class="cls-2"><path class="cls-3" d="M-.28,6.55c7.24,0,9-2.43,12.59-2.43S16.92,7.32,20,7.32"/><path class="cls-3" d="M20.21,3.51c-9,0-8-2.5-13.33-2.5C3.75,1,2.44,2.42-.36,2.42"/><path class="cls-3" d="M20.61,10.91c-9,0-8-2.5-13.33-2.5C4.15,8.41,2.84,9.83,0,9.83"/><path class="cls-4" d="M12.46,2.5C9.19,2.5,5.07,5.83-.28,5.83"/><path class="cls-4" d="M11.59,1.89C6.05,1.87,4.2,5.22-1.15,5.22"/><path class="cls-4" d="M8.57,1.33C6.13,1.33,3.38,3.87-2,3.87"/><path class="cls-4" d="M14.15,4.44c-2.44,0-6.28,3-14.66,3"/><path class="cls-4" d="M16.4,5.63C10.72,5.06,6.83,8.45-.28,8.45"/><path class="cls-4" d="M20.45,8.16c-4.39,0-3.62-2.74-14,0"/><path class="cls-4" d="M20.49,9C16.1,9,14.61,7.21,9.15,8.51"/><path class="cls-4" d="M20.4,9.76c-4.39,0-4.79-.49-7.78-.21"/><path class="cls-4" d="M20,4.87c-3.27,0-3.49-.35-6.62-2"/><path class="cls-4" d="M23,6a19,19,0,0,1-7.49-1.15"/></g></svg>