<svg id="Layer_1" data-name="Layer 1" xmlns="http://www.w3.org/2000/svg" xmlns:xlink="http://www.w3.org/1999/xlink" viewBox="0 0 18.48 11.27"><defs><style>.cls-1,.cls-3,.cls-4{fill:none;}.cls-2{clip-path:url(#clip-path);}.cls-3,.cls-4{stroke:#000;stroke-miterlimit:10;}.cls-3{stroke-width:0.2px;}.cls-4{stroke-width:0.57px;}</style><clipPath id="clip-path"><rect class="cls-1" x="0.08" y="0.52" width="18.56" height="9.83"/></clipPath></defs><title>tcs</title><g class="cls-2"><path class="cls-3" d="M3.14,7.27a9.08,9.08,0,0,0,5.24-3"/><path class="cls-3" d="M.43,6.9A12.21,12.21,0,0,0,6.77,4"/><path class="cls-3" d="M-2.43,6.64A13.73,13.73,0,0,0,4.46,3.69"/><path class="cls-3" d="M17.72,6.19a12.63,12.63,0,0,1-6.5-2.94"/><path class="cls-3" d="M19.71,5.69a12.63,12.63,0,0,1-6.5-2.94"/><path class="cls-3" d="M21.45,5.17A12.63,12.63,0,0,1,15,2.22"/><path class="cls-3" d="M6.2,7.51A8,8,0,0,0,9.89,4.78"/><path class="cls-3" d="M9,7.41a8.79,8.79,0,0,0,2.88-1.86"/><path class="cls-3" d="M-4.49,6.16A13.73,13.73,0,0,0,2.41,3.21"/><path class="cls-3" d="M10.22,9.38A5.54,5.54,0,0,0,13.9,6.64"/><path class="cls-3" d="M8.27,9a5,5,0,0,0,2.93-2"/><path class="cls-3" d="M12.47,9.4a5.4,5.4,0,0,0,3.45-2.85"/><path class="cls-3" d="M14.36,9.37a5.4,5.4,0,0,0,3.45-2.85"/><path class="cls-3" d="M16.48,9.39a5.4,5.4,0,0,0,3.45-2.85"/><path class="cls-3" d="M6,9.35C1.52,8.66,0,6.61.31,6.91"/><path class="cls-3" d="M4.49,9.73C-1.39,8.9-3.45,6.43-3,6.79"/><path class="cls-4" d="M-.52,2.11C3,3.62,5.05,4.08,8,3.86a18.42,18.42,0,0,0,8.79-2.61"/><path class="cls-4" d="M8,3.86C10.2,4.8,16,8,21.79,5.22"/><path class="cls-4" d="M-.85,6.51C3.66,8,10.58,8.12,14.52,6.14"/><path class="cls-4" d="M22,9c-2.69.67-13.31,1.12-17.83-1.45"/><path class="cls-4" d="M-3.14,9.58s6.69,1.17,11.21-.73"/></g></svg>